{
.appVersion = "3302";
.formatVersion = 3;
DisplayStrings = (
"ÀÀÁÁÂÂÃÃÄÄÅÅĀĀĂĂĄĄÇÇĆĆĈĈČČĎĎÈÈÉÉÊÊËËĒĒĘĘĚĚĜĜĞĞĢǴǴĤĤÌÌÍÍÎÎÏÏĨĨĪĪĬĬĮĮĴĴĶĹĹĻĽÑÑŃŃŅŇŇÒÒÓÓÔÔÕÕÖÖŌŌŎŎŐŐŔŔŖŘŘŚŚŜŜŞŞŠŠȘŤŤȚȚÙÙÚÚÛÛÜÜŨŨŪŪŬŬŮŮŰŰŲŲÝÝŸŸŹŹŽŽĿǄǇǊààááââããääååāāăăąąççććĉĉččèèééêêëëēēĕĕęęěěĝĝğğǵǵĥĥììííîîïïĩĩīīĭĭįįĵĵĺĺññńńňňòòóóôôõõööōōŏŏőőŕŕřřśśŝŝşşššțțùùúúûûüüũũūūŭŭůůűűųųýýÿÿźźžžǆǉǌǅỳỳẅẅẂẂŴŴŶŶỲỲẄẄẃẃẀẀĔĔẁẁŵŵŷŷȚ/uni021A ț/uni021B"
);
customParameters = (
{
name = glyphOrder;
value = (
A,
Agrave,
Aacute,
Acircumflex,
Atilde,
Adieresis,
Aring,
Amacron,
Abreve,
Aogonek,
uni0200,
uni0202,
B,
C,
Ccedilla,
Cacute,
Ccircumflex,
Cdotaccent,
Ccaron,
D,
Dcaron,
E,
Egrave,
Eacute,
Ecircumflex,
Edieresis,
Emacron,
Edotaccent,
Eogonek,
Ecaron,
uni0204,
uni0206,
F,
G,
Gcircumflex,
Gbreve,
Gdotaccent,
Gcommaaccent,
uni01F4,
H,
Hcircumflex,
I,
Igrave,
Iacute,
Icircumflex,
Idieresis,
Itilde,
Imacron,
Ibreve,
Iogonek,
Idotaccent,
uni0208,
uni020A,
J,
Jcircumflex,
K,
Kcommaaccent,
L,
Lacute,
Lcommaaccent,
Lcaron,
M,
N,
Ntilde,
Nacute,
Ncommaaccent,
Ncaron,
O,
Ograve,
Oacute,
Ocircumflex,
Otilde,
Odieresis,
Omacron,
Obreve,
Ohungarumlaut,
uni020C,
uni020E,
P,
Q,
R,
Racute,
Rcommaaccent,
Rcaron,
uni0210,
uni0212,
S,
Sacute,
Scircumflex,
Scedilla,
Scaron,
Scommaaccent,
T,
Tcaron,
Tcommaaccent,
uni021A,
U,
Ugrave,
Uacute,
Ucircumflex,
Udieresis,
Utilde,
Umacron,
Ubreve,
Uring,
Uhungarumlaut,
Uogonek,
uni0214,
uni0216,
V,
W,
X,
Y,
Yacute,
Ydieresis,
Z,
Zacute,
Zdotaccent,
Zcaron,
AE,
Eth,
Oslash,
Thorn,
Dcroat,
Hbar,
IJ,
Ldot,
Lslash,
Eng,
OE,
uni01C4,
uni01C7,
uni01CA,
uni01F1,
a,
agrave,
aacute,
acircumflex,
atilde,
adieresis,
aring,
amacron,
abreve,
aogonek,
uni0201,
uni0203,
b,
c,
ccedilla,
cacute,
ccircumflex,
cdotaccent,
ccaron,
d,
dcaron,
e,
egrave,
eacute,
ecircumflex,
edieresis,
emacron,
ebreve,
edotaccent,
eogonek,
ecaron,
uni0205,
uni0207,
f,
g,
gcircumflex,
gbreve,
gdotaccent,
gcommaaccent,
uni01F5,
h,
hcircumflex,
i,
igrave,
iacute,
icircumflex,
idieresis,
itilde,
imacron,
ibreve,
iogonek,
uni0209,
uni020B,
j,

glyphs = (
{
glyphname = A;
layers = (
{
layerId = m001;
shapes = (
{
closed = 1;
nodes = (
(13,134,o),
(34,176,o),
(85,176,cs),
(224,176,l),
(886,1671,ls),
(906,1718,o),
(945,1763,o),
(1009,1763,cs),
(1076,1763,o),
(1107,1717,o),
(1127,1667,cs),
(1728,176,l),
(1906,176,ls),
(1957,176,o),
(1977,134,o),
(1977,84,cs),
(1977,40,o),
(1951,0,o),
(1904,0,cs),
(1259,0,ls),
(1212,0,o),
(1185,40,o),
(1185,84,cs),
(1185,134,o),
(1206,176,o),
(1257,176,cs),
(1476,176,l),
(1328,567,l),
(603,567,l),
(446,176,l),
(632,176,ls),
(683,176,o),
(704,134,o),
(704,84,cs),
(704,40,o),
(677,0,o),
(630,0,cs),
(87,0,ls),
(40,0,o),
(13,40,o),
(13,84,cs)
);
},
{
closed = 1;
nodes = (
(1271,721,l),
(978,1499,l),
(665,721,l)
);
}
);
width = 1990;
}
);
unicode = 65;
},
{
glyphname = B;
layers = (
{
layerId = m001;
shapes = (
{
closed = 1;
nodes = (
(1764,145,o),
(1396,0,o),
(1030,0,cs),
(123,0,ls),
(76,0,o),
(49,40,o),
(49,84,cs),
(49,134,o),
(70,176,o),
(121,176,cs),
(385,176,l),
(385,1538,l),
(172,1538,ls),
(125,1538,o),
(99,1578,o),
(99,1622,cs),
(99,1672,o),
(119,1714,o),
(170,1714,cs),
(987,1714,ls),
(1317,1714,o),
(1595,1615,o),
(1595,1279,cs),
(1595,1111,o),
(1485,1002,o),
(1354,967,c),
(1577,936,o),
(1764,803,o),
(1764,510,cs)
);
},
{
closed = 1;
nodes = (
(1514,835,o),
(1300,866,o),
(1069,866,cs),
(619,866,l),
(619,176,l),
(1033,176,ls),
(1314,176,o),
(1514,262,o),
(1514,532,cs)
);
},
{
closed = 1;
nodes = (
(1394,1472,o),
(1238,1538,o),
(1006,1538,cs),
(619,1538,l),
(619,995,l),
(1069,995,ls),
(1231,995,o),
(1394,1074,o),
(1394,1267,cs)
);
}
);
width = 1844;
}
);
unicode = 66;
},
{
glyphname = C;
layers = (
{
layerId = m001;
shapes = (
{
closed = 1;
nodes = (
(1710,249,o),
(1422,-25,o),
(973,-25,cs),
(468,-25,o),
(93,330,o),
(93,889,cs),
(93,1399,o),
(475,1739,o),
(992,1739,cs),
(1210,1739,o),
(1359,1661,o),
(1479,1538,c),
(1479,1642,ls),
(1479,1693,o),
(1521,1714,o),
(1571,1714,cs),
(1615,1714,o),
(1655,1687,o),
(1655,1640,cs),
(1655,1266,ls),
(1655,1219,o),
(1615,1192,o),
(1571,1192,cs),
(1526,1192,o),
(1511,1236,o),
(1487,1270,c),
(1389,1431,o),
(1243,1550,o),
(992,1550,cs),
(596,1550,o),
(356,1268,o),
(356,878,cs),
(356,439,o),
(585,171,o),
(992,171,cs),
(1275,171,o),
(1452,336,o),
(1502,590,cs),
(1512,638,o),
(1558,661,o),
(1604,661,cs),
(1656,661,o),
(1710,630,o),
(1710,571,cs)
);
}
);
width = 1818;
}
);
unicode = 67;
},
{
glyphname = D;
layers = (
{
layerId = m001;
shapes = (
{
closed = 1;
nodes = (
(1618,1297,o),
(1343,1538,o),
(909,1538,cs),
(623,1538,l),
(623,176,l),
(670,173,o),
(715,172,o),
(760,172,cs),
(1268,172,o),
(1618,346,o),
(1618,866,cs)
);
},
{
closed = 1;
nodes = (
(1860,301,o),
(1448,0,o),
(881,0,cs),
(123,0,ls),
(76,0,o),
(49,40,o),
(49,84,cs),
(49,134,o),
(70,176,o),
(121,176,cs),
(389,176,l),
(389,1538,l),
(186,1538,ls),
(135,1538,o),
(115,1580,o),
(115,1630,cs),
(115,1674,o),
(142,1714,o),
(189,1714,cs),
(881,1714,ls),
(1460,1714,o),
(1860,1438,o),
(1860,866,cs)
);
}
);
width = 1953;
}
);
unicode = 68;
},
{
glyphname = E;
layers = (
{
layerId = m001;
shapes = (
{
closed = 1;
nodes = (
(1174,602,o),
(1149,569,o),
(1104,569,cs),
(1062,569,o),
(1035,600,o),
(1024,637,cs),
(973,823,l),
(639,823,l),
(639,176,l),
(1506,176,l),
(1622,506,l),
(1641,548,o),
(1673,582,o),
(1725,582,cs),
(1769,582,o),
(1798,554,o),
(1798,508,cs),
(1798,494,o),
(1796,481,o),
(1792,469,c),
(1729,78,l),
(1715,30,o),
(1695,0,o),
(1647,0,cs),
(123,0,ls),
(76,0,o),
(49,40,o),
(49,84,cs),
(49,134,o),
(70,176,o),
(121,176,cs),
(406,176,l),
(406,1538,l),
(223,1538,ls),
(172,1538,o),
(152,1580,o),
(152,1630,cs),
(152,1674,o),
(178,1714,o),
(225,1714,cs),
(1606,1714,ls),
(1654,1714,o),
(1672,1683,o),
(1688,1636,c),
(1784,1319,ls),
(1788,1304,o),
(1790,1291,o),
(1790,1280,cs),
(1790,1236,o),
(1760,1206,o),
(1717,1206,cs),
(1667,1206,o),
(1631,1240,o),
(1614,1282,cs),
(1506,1538,l),
(639,1538,l),
(639,967,l),
(973,967,l),
(1024,1153,ls),
(1035,1190,o),
(1062,1221,o),
(1104,1221,cs),
(1149,1221,o),
(1174,1188,o),
(1174,1141,c),
(1159,899,l),
(1174,649,l)
);
}
);
width = 1894;
}
);
unicode = 69;
},
{
glyphname = F;
layers = (
{
layerId = m001;
shapes = (
{
closed = 1;
nodes = (
(123,0,ls),
(76,0,o),
(49,40,o),
(49,84,cs),
(49,134,o),
(70,176,o),
(121,176,cs),
(447,176,l),
(447,1538,l),
(203,1538,ls),
(152,1538,o),
(131,1580,o),
(131,1630,cs),
(131,1674,o),
(158,1714,o),
(205,1714,cs),
(1655,1714,ls),
(1703,1714,o),
(1721,1683,o),
(1737,1636,c),
(1813,1319,ls),
(1817,1304,o),
(1819,1291,o),
(1819,1280,cs),
(1819,1236,o),
(1788,1206,o),
(1745,1206,cs),
(1695,1206,o),
(1660,1240,o),
(1643,1282,c),
(1555,1538,l),
(680,1538,l),
(680,928,l),
(1020,928,l),
(1071,1114,ls),
(1082,1151,o),
(1109,1182,o),
(1151,1182,cs),
(1196,1182,o),
(1221,1149,o),
(1221,1102,c),
(1207,860,l),
(1221,610,l),
(1221,563,o),
(1196,530,o),
(1151,530,cs),
(1109,530,o),
(1082,561,o),
(1071,598,cs),
(1020,784,l),
(680,784,l),
(680,176,l),
(985,176,ls),
(1036,176,o),
(1057,134,o),
(1057,84,cs),
(1057,40,o),
(1030,0,o),
(983,0,cs)
);
}
);
width = 1795;
}
);
unicode = 70;
},
{
glyphname = G;
layers = (
{
layerId = m001;
shapes = (
{
closed = 1;
nodes = (
(1304,164,o),
(1594,252,o),
(1594,569,cs),
(1594,696,l),
(1442,696,ls),
(1395,696,o),
(1369,736,o),
(1369,780,cs),
(1369,830,o),
(1389,872,o),
(1440,872,cs),
(1856,872,ls),
(1907,872,o),
(1928,830,o),
(1928,780,cs),
(1928,736,o),
(1901,696,o),
(1854,696,cs),
(1770,696,l),
(1770,72,ls),
(1770,21,o),
(1728,0,o),
(1678,0,cs),
(1634,0,o),
(1594,27,o),
(1594,74,cs),
(1594,197,l),
(1478,38,o),
(1261,-25,o),
(990,-25,cs),
(461,-25,o),
(93,319,o),
(93,850,cs),
(93,1387,o),
(474,1739,o),
(1010,1739,cs),
(1252,1739,o),
(1419,1664,o),
(1559,1538,c),
(1559,1642,ls),
(1559,1693,o),
(1601,1714,o),
(1651,1714,cs),
(1695,1714,o),
(1735,1687,o),
(1735,1640,cs),
(1735,1266,ls),
(1735,1219,o),
(1695,1192,o),
(1651,1192,cs),
(1605,1192,o),
(1589,1236,o),
(1567,1270,c),
(1444,1443,o),
(1272,1550,o),
(1010,1550,cs),
(599,1550,o),
(355,1262,o),
(355,850,cs),
(355,444,o),
(588,164,o),
(990,164,cs)
);
}
);
width = 2007;
}
);
unicode = 71;
},
{
glyphname = H;
layers = (
{
layerId = m001;
shapes = (
{
closed = 1;
nodes = (
(49,134,o),
(70,176,o),
(121,176,cs),
(344,176,l),
(344,1538,l),
(142,1538,ls),
(91,1538,o),
(70,1580,o),
(70,1630,cs),
(70,1674,o),
(97,1714,o),
(144,1714,cs),
(779,1714,ls),
(826,1714,o),
(852,1674,o),
(852,1630,cs),
(852,1580,o),
(832,1538,o),
(781,1538,cs),
(578,1538,l),
(578,963,l),
(1510,963,l),
(1510,1538,l),
(1307,1538,ls),
(1256,1538,o),
(1235,1580,o),
(1235,1630,cs),
(1235,1674,o),
(1262,1714,o),
(1309,1714,cs),
(1923,1714,ls),
(1970,1714,o),
(1997,1674,o),
(1997,1630,cs),
(1997,1580,o),
(1976,1538,o),
(1925,1538,cs),
(1743,1538,l),
(1743,176,l),
(1925,176,ls),
(1976,176,o),
(1997,134,o),
(1997,84,cs),
(1997,40,o),
(1970,0,o),
(1923,0,cs),
(1309,0,ls),
(1262,0,o),
(1235,40,o),
(1235,84,cs),
(1235,134,o),
(1256,176,o),
(1307,176,cs),
(1510,176,l),
(1510,788,l),
(578,788,l),
(578,176,l),
(781,176,ls),
(832,176,o),
(852,134,o),
(852,84,cs),
(852,40,o),
(826,0,o),
(779,0,cs),
(123,0,ls),
(76,0,o),
(49,40,o),
(49,84,cs)
);
}
);
width = 2046;
}
);
unicode = 72;
},
{
glyphname = I;
layers = (
{
layerId = m001;
shapes = (
{
closed = 1;
nodes = (
(74,134,o),
(94,176,o),
(145,176,cs),
(389,176,l),
(389,1538,l),
(145,1538,ls),
(94,1538,o),
(74,1580,o),
(74,1630,cs),
(74,1674,o),
(100,1714,o),
(147,1714,cs),
(864,1714,ls),
(911,1714,o),
(938,1674,o),
(938,1630,cs),
(938,1580,o),
(917,1538,o),
(866,1538,cs),
(623,1538,l),
(623,176,l),
(866,176,ls),
(917,176,o),
(938,134,o),
(938,84,cs),
(938,40,o),
(911,0,o),
(864,0,cs),
(147,0,ls),
(100,0,o),
(74,40,o),
(74,84,cs)
);
}
);
width = 1008;
}
);
unicode = 73;
},
{
glyphname = J;
layers = (
{
layerId = m001;
shapes = (
{
closed = 1;
nodes = (
(965,24,o),
(745,-158,o),
(461,-158,cs),
(257,-158,o),
(85,-47,o),
(85,93,cs),
(85,226,ls),
(85,303,o),
(118,343,o),
(202,343,cs),
(266,343,o),
(323,311,o),
(323,249,cs),
(323,122,l),
(324,73,o),
(394,31,o),
(476,31,cs),
(592,31,o),
(732,123,o),
(732,417,cs),
(732,1538,l),
(410,1538,ls),
(359,1538,o),
(339,1580,o),
(339,1630,cs),
(339,1674,o),
(365,1714,o),
(412,1714,cs),
(1228,1714,ls),
(1275,1714,o),
(1301,1674,o),
(1301,1630,cs),
(1301,1580,o),
(1281,1538,o),
(1230,1538,cs),
(965,1538,l),
(965,443,ls)
);
}
);
width = 1333;
}
);
unicode = 74;
},
{
glyphname = K;
layers = (
{
layerId = m001;
shapes = (
{
closed = 1;
nodes = (
(49,134,o),
(70,176,o),
(121,176,cs),
(340,176,l),
(340,1538,l),
(121,1538,ls),
(70,1538,o),
(49,1580,o),
(49,1630,cs),
(49,1674,o),
(76,1714,o),
(123,1714,cs),
(774,1714,ls),
(821,1714,o),
(848,1674,o),
(848,1630,cs),
(848,1580,o),
(828,1538,o),
(777,1538,cs),
(574,1538,l),
(574,842,l),
(1366,1499,ls),
(1372,1505,o),
(1381,1517,o),
(1381,1530,cs),
(1381,1545,o),
(1370,1552,o),
(1348,1552,cs),
(1278,1552,ls),
(1230,1552,o),
(1207,1578,o),
(1207,1630,cs),
(1207,1674,o),
(1233,1714,o),
(1280,1714,cs),
(1809,1714,ls),
(1856,1714,o),
(1882,1674,o),
(1882,1630,cs),
(1882,1580,o),
(1862,1538,o),
(1811,1538,cs),
(1653,1538,l),
(1047,1016,l),
(1833,176,l),
(1975,176,ls),
(2026,176,o),
(2046,134,o),
(2046,84,cs),
(2046,40,o),
(2020,0,o),
(1973,0,cs),
(1362,0,ls),
(1315,0,o),
(1289,40,o),
(1289,84,cs),
(1289,134,o),
(1309,176,o),
(1360,176,cs),
(1559,176,l),
(897,911,l),
(574,662,l),
(574,176,l),
(858,176,ls),
(909,176,o),
(930,134,o),
(930,84,cs),
(930,40,o),
(903,0,o),
(856,0,cs),
(123,0,ls),
(76,0,o),
(49,40,o),
(49,84,cs)
);
}
);
width = 2045;
}
);
unicode = 75;
},
{
glyphname = L;
layers = (
{
layerId = m001;
shapes = (
{
closed = 1;
nodes = (
(951,1580,o),
(930,1538,o),
(879,1538,cs),
(656,1538,l),
(656,176,l),
(1360,176,ls),
(1474,176,o),
(1566,197,o),
(1575,303,c),
(1604,584,ls),
(1609,628,o),
(1639,647,o),
(1686,647,cs),
(1735,647,o),
(1778,620,o),
(1778,567,c),
(1733,68,ls),
(1729,30,o),
(1709,0,o),
(1672,0,cs),
(123,0,ls),
(76,0,o),
(49,40,o),
(49,84,cs),
(49,134,o),
(70,176,o),
(121,176,cs),
(422,176,l),
(422,1538,l),
(183,1538,ls),
(132,1538,o),
(111,1580,o),
(111,1630,cs),
(111,1674,o),
(138,1714,o),
(185,1714,cs),
(877,1714,ls),
(924,1714,o),
(951,1674,o),
(951,1630,cs)
);
}
);
width = 1851;
}
);
unicode = 76;
},
{
glyphname = M;
layers = (
{
layerId = m001;
shapes = (
{
closed = 1;
nodes = (
(1653,134,o),
(1674,176,o),
(1725,176,cs),
(1907,176,l),
(1907,1235,l),
(1303,102,l),
(1290,67,o),
(1255,37,o),
(1209,37,cs),
(1168,37,o),
(1133,63,o),
(1119,92,cs),
(553,1249,l),
(553,176,l),
(756,176,ls),
(807,176,o),
(828,134,o),
(828,84,cs),
(828,40,o),
(801,0,o),
(754,0,cs),
(123,0,ls),
(76,0,o),
(49,40,o),
(49,84,cs),
(49,134,o),
(70,176,o),
(121,176,cs),
(344,176,l),
(344,1538,l),
(142,1538,ls),
(91,1538,o),
(70,1580,o),
(70,1630,cs),
(70,1674,o),
(97,1714,o),
(144,1714,cs),
(480,1714,ls),
(516,1714,o),
(535,1688,o),
(547,1663,cs),
(1209,328,l),
(1915,1671,ls),
(1927,1694,o),
(1947,1714,o),
(1981,1714,cs),
(2300,1714,ls),
(2347,1714,o),
(2374,1674,o),
(2374,1630,cs),
(2374,1580,o),
(2353,1538,o),
(2302,1538,cs),
(2120,1538,l),
(2120,176,l),
(2323,176,ls),
(2374,176,o),
(2394,134,o),
(2394,84,cs),
(2394,40,o),
(2368,0,o),
(2321,0,cs),
(1727,0,ls),
(1680,0,o),
(1653,40,o),
(1653,84,cs)
);
}
);
width = 2443;
}
);
unicode = 77;
},
{
glyphname = N;
layers = (
{
layerId = m001;
shapes = (
{
closed = 1;
nodes = (
(49,1674,o),
(76,1714,o),
(123,1714,cs),
(586,1714,ls),
(618,1714,o),
(633,1704,o),
(645,1679,c),
(1524,426,l),
(1524,1538,l),
(1344,1538,ls),
(1293,1538,o),
(1272,1580,o),
(1272,1630,cs),
(1272,1674,o),
(1299,1714,o),
(1346,1714,cs),
(1928,1714,ls),
(1975,1714,o),
(2001,1674,o),
(2001,1630,cs),
(2001,1580,o),
(1981,1538,o),
(1930,1538,cs),
(1731,1538,l),
(1731,53,ls),
(1731,2,o),
(1690,-37,o),
(1641,-37,cs),
(1598,-37,o),
(1569,-13,o),
(1549,16,cs),
(531,1456,l),
(531,176,l),
(707,176,ls),
(758,176,o),
(779,134,o),
(779,84,cs),
(779,40,o),
(752,0,o),
(705,0,cs),
(123,0,ls),
(76,0,o),
(49,40,o),
(49,84,cs),
(49,134,o),
(70,176,o),
(121,176,cs),
(320,176,l),
(320,1538,l),
(121,1538,ls),
(70,1538,o),
(49,1580,o),
(49,1630,cs)
);
}
);
width = 2037;
}
);
unicode = 78;
},
{
glyphname = O;
layers = (
{
layerId = m001;
shapes = (
{
closed = 1;
nodes = (
(458,-25,o),
(93,320,o),
(93,850,cs),
(93,1382,o),
(458,1739,o),
(982,1739,cs),
(1512,1739,o),
(1879,1382,o),
(1879,850,cs),
(1879,320,o),
(1510,-25,o),
(982,-25,cs)
);
},
{
closed = 1;
nodes = (
(574,1550,o),
(343,1256,o),
(343,850,cs),
(343,444,o),
(580,164,o),
(990,164,cs),
(1391,164,o),
(1631,438,o),
(1631,848,cs),
(1631,1262,o),
(1385,1550,o),
(973,1550,cs)
);
}
);
width = 1972;
}
);
unicode = 79;
},
{
glyphname = P;
layers = (
{
layerId = m001;
shapes = (
{
closed = 1;
nodes = (
(1448,1538,o),
(1107,1538,o),
(826,1538,cs),
(619,1538,l),
(619,889,l),
(887,889,ls),
(1175,889,o),
(1448,903,o),
(1448,1223,cs)
);
},
{
closed = 1;
nodes = (
(1684,745,o),
(1262,725,o),
(834,725,cs),
(619,725,l),
(619,176,l),
(924,176,ls),
(975,176,o),
(996,134,o),
(996,84,cs),
(996,40,o),
(969,0,o),
(922,0,cs),
(123,0,ls),
(76,0,o),
(49,40,o),
(49,84,cs),
(49,134,o),
(70,176,o),
(121,176,cs),
(385,176,l),
(385,1538,l),
(142,1538,ls),
(91,1538,o),
(70,1580,o),
(70,1630,cs),
(70,1674,o),
(97,1714,o),
(144,1714,cs),
(797,1714,ls),
(1244,1714,o),
(1684,1688,o),
(1684,1208,cs)
);
}
);
width = 1768;
}
);
unicode = 80;
},
{
glyphname = Q;
layers = (
{
layerId = m001;
shapes = (
{
closed = 1;
nodes = (
(587,1550,o),
(355,1255,o),
(355,850,cs),
(355,444,o),
(588,164,o),
(990,164,cs),
(1400,164,o),
(1645,439,o),
(1645,850,cs),
(1645,1263,o),
(1400,1550,o),
(990,1550,cs)
);
},
{
closed = 1;
nodes = (
(1384,-161,l),
(1417,-178,o),
(1454,-183,o),
(1492,-183,cs),
(1552,-183,o),
(1623,-154,o),
(1705,-95,cs),
(1717,-87,o),
(1731,-83,o),
(1746,-83,cs),
(1802,-83,o),
(1855,-136,o),
(1855,-191,cs),
(1855,-314,o),
(1584,-384,o),
(1480,-384,cs),
(1213,-384,o),
(1093,-91,o),
(894,-21,c),
(417,18,o),
(93,352,o),
(93,850,cs),
(93,1382,o),
(460,1739,o),
(990,1739,cs),
(1520,1739,o),
(1887,1382,o),
(1887,850,cs),
(1887,377,o),
(1595,52,o),
(1156,-13,c)
);
}
);
width = 1980;
}
);
unicode = 81;
},
{
glyphname = R;
layers = (
{
layerId = m001;
shapes = (
{
closed = 1;
nodes = (
(1067,942,o),
(1338,947,o),
(1338,1239,cs),
(1338,1537,o),
(1022,1538,o),
(725,1538,cs),
(578,1538,l),
(578,942,l),
(762,942,ls)
);
},
{
closed = 1;
nodes = (
(1581,976,o),
(1361,861,o),
(1101,816,c),
(1268,774,o),
(1343,686,o),
(1403,540,cs),
(1553,177,l),
(1700,177,ls),
(1780,177,o),
(1808,153,o),
(1808,84,cs),
(1808,9,o),
(1764,0,o),
(1701,0,cs),
(1187,0,ls),
(1140,0,o),
(1113,40,o),
(1113,84,cs),
(1113,134,o),
(1134,177,o),
(1185,177,cs),
(1314,177,l),
(1202,460,ls),
(1142,611,o),
(1059,764,o),
(805,764,cs),
(578,764,l),
(578,177,l),
(842,177,ls),
(893,177,o),
(914,134,o),
(914,84,cs),
(914,40,o),
(887,0,o),
(840,0,cs),
(123,0,ls),
(76,0,o),
(49,40,o),
(49,84,cs),
(49,134,o),
(70,177,o),
(121,177,cs),
(344,177,l),
(344,1538,l),
(162,1538,ls),
(111,1538,o),
(90,1580,o),
(90,1630,cs),
(90,1674,o),
(117,1714,o),
(164,1714,cs),
(756,1714,ls),
(1191,1714,o),
(1581,1678,o),
(1581,1249,cs)
);
}
);
width = 1841;
}
);
unicode = 82;
},
{
glyphname = S;
layers = (
{
layerId = m001;
shapes = (
{
closed = 1;
nodes = (
(480,1581,o),
(406,1439,o),
(406,1287,cs),
(406,1157,o),
(496,1082,o),
(675,1038,cs),
(962,967,ls),
(1226,901,o),
(1407,775,o),
(1407,458,cs),
(1407,111,o),
(1086,-27,o),
(735,-27,cs),
(593,-27,o),
(439,7,o),
(311,95,c),
(306,49,o),
(285,-25,o),
(239,-25,cs),
(191,-25,o),
(160,-6,o),
(155,39,cs),
(98,535,l),
(98,588,o),
(130,614,o),
(194,614,cs),
(234,614,o),
(269,589,o),
(274,549,cs),
(290,410,l),
(303,286,o),
(503,150,o),
(710,150,cs),
(939,150,o),
(1202,208,o),
(1202,459,cs),
(1202,640,o),
(1077,689,o),
(927,732,cs),
(599,825,l),
(359,879,o),
(185,1001,o),
(185,1271,cs),
(185,1564,o),
(446,1739,o),
(769,1739,cs),
(909,1739,o),
(1067,1707,o),
(1164,1627,c),
(1164,1683,o),
(1203,1738,o),
(1258,1738,cs),
(1298,1738,o),
(1333,1712,o),
(1338,1672,c),
(1345,1275,l),
(1345,1217,o),
(1306,1193,o),
(1253,1193,cs),
(1206,1193,o),
(1174,1212,o),
(1169,1256,c),
(1165,1372,l),
(1147,1524,o),
(973,1581,o),
(802,1581,cs)
);
}
);
width = 1510;
}
);
unicode = 83;
},
{
glyphname = T;
layers = (
{
layerId = m001;
shapes = (
{
closed = 1;
nodes = (
(58,1184,o),
(34,1216,o),
(34,1264,c),
(49,1636,ls),
(51,1688,o),
(65,1714,o),
(110,1714,cs),
(1552,1714,ls),
(1595,1714,o),
(1611,1687,o),
(1613,1636,cs),
(1628,1264,l),
(1628,1216,o),
(1604,1184,o),
(1560,1184,cs),
(1513,1184,o),
(1483,1201,o),
(1478,1251,cs),
(1447,1538,l),
(937,1538,l),
(937,176,l),
(1202,176,ls),
(1253,176,o),
(1273,134,o),
(1273,84,cs),
(1273,40,o),
(1247,0,o),
(1200,0,cs),
(442,0,ls),
(395,0,o),
(368,40,o),
(368,84,cs),
(368,134,o),
(389,176,o),
(440,176,cs),
(704,176,l),
(704,1538,l),
(214,1538,l),
(184,1251,ls),
(179,1200,o),
(149,1184,o),
(102,1184,cs)
);
}
);
width = 1662;
}
);
unicode = 84;
},
{
glyphname = U;
layers = (
{
layerId = m001;
shapes = (
{
closed = 1;
nodes = (
(542,-25,o),
(262,207,o),
(262,604,cs),
(262,1538,l),
(111,1538,ls),
(60,1538,o),
(39,1580,o),
(39,1630,cs),
(39,1674,o),
(66,1714,o),
(113,1714,cs),
(697,1714,ls),
(744,1714,o),
(770,1674,o),
(770,1630,cs),
(770,1580,o),
(750,1538,o),
(699,1538,cs),
(496,1538,l),
(496,604,ls),
(496,318,o),
(656,154,o),
(944,154,cs),
(1206,154,o),
(1375,340,o),
(1375,602,cs),
(1375,1538,l),
(1184,1538,ls),
(1133,1538,o),
(1112,1580,o),
(1112,1630,cs),
(1112,1674,o),
(1139,1714,o),
(1186,1714,cs),
(1739,1714,ls),
(1786,1714,o),
(1813,1674,o),
(1813,1630,cs),
(1813,1580,o),
(1792,1538,o),
(1741,1538,cs),
(1567,1538,l),
(1567,602,ls),
(1567,230,o),
(1315,-25,o),
(944,-25,cs)
);
}
);
width = 1852;
}
);
unicode = 85;
},
{
glyphname = V;
layers = (
{
layerId = m001;
shapes = (
{
closed = 1;
nodes = (
(1843,1580,o),
(1823,1538,o),
(1772,1538,cs),
(1602,1538,l),
(1051,29,l),
(1028,-23,o),
(1010,-53,o),
(957,-53,cs),
(905,-53,o),
(882,-19,o),
(864,29,cs),
(305,1538,l),
(94,1538,ls),
(43,1538,o),
(23,1580,o),
(23,1630,cs),
(23,1674,o),
(49,1714,o),
(96,1714,cs),
(711,1714,ls),
(758,1714,o),
(785,1674,o),
(785,1630,cs),
(785,1580,o),
(764,1538,o),
(713,1538,cs),
(551,1538,l),
(985,332,l),
(1397,1538,l),
(1235,1538,ls),
(1184,1538,o),
(1163,1580,o),
(1163,1630,cs),
(1163,1674,o),
(1190,1714,o),
(1237,1714,cs),
(1770,1714,ls),
(1817,1714,o),
(1843,1674,o),
(1843,1630,cs)
);
}
);
width = 1866;
}
);
unicode = 86;
},
{
glyphname = W;
layers = (
{
layerId = m001;
shapes = (
{
closed = 1;
nodes = (
(1671,1672,o),
(1692,1714,o),
(1743,1714,cs),
(2240,1714,ls),
(2291,1714,o),
(2312,1672,o),
(2312,1622,cs),
(2312,1578,o),
(2285,1538,o),
(2238,1538,cs),
(2072,1538,l),
(1636,39,l),
(1622,3,o),
(1576,-27,o),
(1526,-27,cs),
(1475,-27,o),
(1434,-2,o),
(1427,47,c),
(1169,1135,l),
(872,39,l),
(859,2,o),
(808,-27,o),
(758,-27,cs),
(702,-27,o),
(663,-2,o),
(653,51,c),
(270,1538,l),
(106,1538,ls),
(59,1538,o),
(33,1578,o),
(33,1622,cs),
(33,1672,o),
(53,1714,o),
(104,1714,cs),
(602,1714,ls),
(653,1714,o),
(674,1672,o),
(674,1622,cs),
(674,1578,o),
(647,1538,o),
(600,1538,cs),
(506,1538,l),
(790,381,l),
(1114,1538,l),
(1022,1538,ls),
(975,1538,o),
(948,1578,o),
(948,1622,cs),
(948,1672,o),
(969,1714,o),
(1020,1714,cs),
(1374,1714,ls),
(1425,1714,o),
(1446,1672,o),
(1446,1622,cs),
(1446,1578,o),
(1419,1538,o),
(1372,1538,cs),
(1272,1538,l),
(1550,401,l),
(1866,1538,l),
(1745,1538,ls),
(1698,1538,o),
(1671,1578,o),
(1671,1622,cs)
);
}
);
width = 2345;
}
);
unicode = 87;
},
{
glyphname = X;
layers = (
{
layerId = m001;
shapes = (
{
closed = 1;
nodes = (
(1941,1580,o),
(1920,1538,o),
(1869,1538,cs),
(1703,1538,l),
(1150,895,l),
(1769,176,l),
(1890,176,ls),
(1941,176,o),
(1962,134,o),
(1962,84,cs),
(1962,40,o),
(1935,0,o),
(1888,0,cs),
(1212,0,ls),
(1165,0,o),
(1138,40,o),
(1138,84,cs),
(1138,134,o),
(1159,176,o),
(1210,176,cs),
(1488,176,l),
(1009,731,l),
(532,176,l),
(780,176,ls),
(831,176,o),
(851,134,o),
(851,84,cs),
(851,40,o),
(825,0,o),
(778,0,cs),
(122,0,ls),
(75,0,o),
(49,40,o),
(49,84,cs),
(49,134,o),
(69,176,o),
(120,176,cs),
(303,176,l),
(894,864,l),
(317,1538,l),
(182,1538,ls),
(131,1538,o),
(110,1580,o),
(110,1630,cs),
(110,1674,o),
(137,1714,o),
(184,1714,cs),
(778,1714,ls),
(825,1714,o),
(851,1674,o),
(851,1630,cs),
(851,1580,o),
(831,1538,o),
(780,1538,cs),
(598,1538,l),
(1036,1028,l),
(1474,1538,l),
(1292,1538,ls),
(1241,1538,o),
(1220,1580,o),
(1220,1630,cs),
(1220,1674,o),
(1247,1714,o),
(1294,1714,cs),
(1867,1714,ls),
(1914,1714,o),
(1941,1674,o),
(1941,1630,cs)
);
}
);
width = 2011;
}
);
unicode = 88;
},
{
glyphname = Y;
layers = (
{
layerId = m001;
shapes = (
{
closed = 1;
nodes = (
(1766,1580,o),
(1745,1538,o),
(1694,1538,cs),
(1555,1538,l),
(1058,723,l),
(1058,176,l),
(1281,176,ls),
(1332,176,o),
(1352,134,o),
(1352,84,cs),
(1352,40,o),
(1326,0,o),
(1279,0,cs),
(562,0,ls),
(515,0,o),
(488,40,o),
(488,84,cs),
(488,134,o),
(509,176,o),
(560,176,cs),
(824,176,l),
(824,739,l),
(349,1538,l),
(138,1538,ls),
(87,1538,o),
(66,1580,o),
(66,1630,cs),
(66,1674,o),
(93,1714,o),
(140,1714,cs),
(734,1714,ls),
(781,1714,o),
(808,1674,o),
(808,1630,cs),
(808,1580,o),
(787,1538,o),
(736,1538,cs),
(595,1538,l),
(980,891,l),
(1361,1538,l),
(1199,1538,ls),
(1148,1538,o),
(1127,1580,o),
(1127,1630,cs),
(1127,1674,o),
(1154,1714,o),
(1201,1714,cs),
(1692,1714,ls),
(1739,1714,o),
(1766,1674,o),
(1766,1630,cs)
);
}
);
width = 1832;
}
);
unicode = 89;
},
{
glyphname = Z;
layers = (
{
layerId = m001;
shapes = (
{
closed = 1;
nodes = (
(162,1634,l),
(163,1675,o),
(187,1714,o),
(265,1714,cs),
(1395,1714,ls),
(1442,1714,o),
(1469,1674,o),
(1469,1630,cs),
(1469,1603,o),
(1465,1579,o),
(1453,1565,c),
(390,176,l),
(1326,176,l),
(1402,547,l),
(1415,591,o),
(1454,623,o),
(1504,623,cs),
(1546,623,o),
(1578,594,o),
(1578,549,cs),
(1578,535,o),
(1576,522,o),
(1572,510,c),
(1529,78,l),
(1515,30,o),
(1494,0,o),
(1447,0,cs),
(167,0,ls),
(124,0,o),
(91,53,o),
(91,102,cs),
(91,137,o),
(106,175,o),
(136,213,cs),
(1154,1538,l),
(357,1538,l),
(318,1241,l),
(304,1202,o),
(278,1165,o),
(236,1165,cs),
(195,1165,o),
(163,1196,o),
(163,1239,cs)
);
}
);
width = 1658;
}
);
unicode = 90;
},
{
glyphname = AE;
layers = (
{
layerId = m001;
shapes = (
{
closed = 1;
nodes = (
(-77,121,o),
(-45,176,o),
(3,176,cs),
(140,176,l),
(1115,1649,l),
(1160,1713,o),
(1222,1714,o),
(1326,1714,cs),
(2368,1714,ls),
(2484,1714,o),
(2551,1367,o),
(2551,1276,cs),
(2551,1235,o),
(2529,1206,o),
(2485,1206,cs),
(2426,1206,o),
(2384,1234,o),
(2371,1282,cs),
(2303,1538,l),
(1394,1538,l),
(1498,967,l),
(1818,967,l),
(1836,1153,l),
(1841,1192,o),
(1864,1221,o),
(1904,1221,cs),
(1952,1221,o),
(1985,1186,o),
(1990,1141,cs),
(2016,899,l),
(2076,649,l),
(2076,635,ls),
(2076,591,o),
(2056,569,o),
(2016,569,cs),
(1972,569,o),
(1944,602,o),
(1928,637,cs),
(1844,823,l),
(1525,823,l),
(1643,176,l),
(2452,176,l),
(2516,506,l),
(2527,550,o),
(2554,582,o),
(2602,582,cs),
(2649,582,o),
(2683,551,o),
(2690,508,c),
(2690,488,ls),
(2690,482,o),
(2691,476,o),
(2694,469,c),
(2694,78,l),
(2690,27,o),
(2672,0,o),
(2627,0,cs),
(1156,0,ls),
(1111,0,o),
(1091,35,o),
(1091,78,cs),
(1091,127,o),
(1120,176,o),
(1172,176,cs),
(1398,176,l),
(1334,567,l),
(605,567,l),
(361,176,l),
(548,176,ls),
(597,176,o),
(630,142,o),
(630,96,cs),
(630,41,o),
(587,0,o),
(527,0,cs),
(-13,0,ls),
(-55,0,o),
(-77,34,o),
(-77,74,cs)
);
},
{
closed = 1;
nodes = (
(1310,721,l),
(1185,1499,l),
(699,721,l)
);
}
);
width = 2781;
}
);
unicode = 198;
},
{
glyphname = Eth;
layers = (
{
layerId = m001;
shapes = (
{
closed = 1;
nodes = (
(1872,301,o),
(1460,0,o),
(893,0,cs),
(135,0,ls),
(88,0,o),
(61,40,o),
(61,84,cs),
(61,134,o),
(82,176,o),
(133,176,cs),
(401,176,l),
(401,809,l),
(252,809,ls),
(197,809,o),
(170,849,o),
(170,888,cs),
(170,927,o),
(196,965,o),
(246,965,cs),
(401,965,l),
(401,1538,l),
(198,1538,ls),
(147,1538,o),
(127,1580,o),
(127,1630,cs),
(127,1674,o),
(154,1714,o),
(201,1714,cs),
(893,1714,ls),
(1472,1714,o),
(1872,1438,o),
(1872,866,cs)
);
},
{
closed = 1;
nodes = (
(1630,1297,o),
(1355,1538,o),
(921,1538,cs),
(635,1538,l),
(635,965,l),
(888,965,ls),
(936,965,o),
(960,927,o),
(960,888,cs),
(960,849,o),
(935,809,o),
(886,809,cs),
(635,809,l),
(635,176,l),
(682,173,o),
(727,172,o),
(772,172,cs),
(1280,172,o),
(1630,346,o),
(1630,866,cs)
);
}
);
width = 1878;
}
);
unicode = 208;
},
{
glyphname = Oslash;
layers = (
{
layerId = m001;
shapes = (
{
closed = 1;
nodes = (
(558,1550,o),
(327,1256,o),
(327,850,cs),
(327,594,o),
(422,387,o),
(595,270,c),
(1190,1515,l),
(1120,1538,o),
(1042,1550,o),
(957,1550,cs)
);
},
{
closed = 1;
nodes = (
(1375,164,o),
(1615,438,o),
(1615,848,cs),
(1615,1106,o),
(1519,1315,o),
(1348,1436,c),
(755,195,l),
(821,175,o),
(894,164,o),
(974,164,cs)
);
},
{
closed = 1;
nodes = (
(484,-370,o),
(467,-389,o),
(432,-389,cs),
(385,-389,o),
(327,-351,o),
(327,-303,cs),
(327,-292,o),
(330,-282,o),
(335,-272,cs),
(505,83,l),
(240,224,o),
(77,496,o),
(77,850,cs),
(77,1382,o),
(442,1739,o),
(966,1739,cs),
(1077,1739,o),
(1181,1723,o),
(1276,1694,c),
(1443,2042,l),
(1454,2068,o),
(1475,2081,o),
(1505,2081,cs),
(1551,2081,o),
(1607,2045,o),
(1607,1995,cs),
(1607,1985,o),
(1605,1977,o),
(1601,1967,cs),
(1438,1625,l),
(1701,1479,o),
(1863,1203,o),
(1863,850,cs),
(1863,320,o),
(1494,-25,o),
(966,-25,cs),
(860,-25,o),
(761,-11,o),
(669,16,c),
(499,-341,l)
);
}
);
width = 1940;
}
);
unicode = 216;
},
{
glyphname = Thorn;
layers = (
{
layerId = m001;
shapes = (
{
closed = 1;
nodes = (
(1545,471,o),
(1070,460,o),
(638,460,c),
(638,176,l),
(943,176,ls),
(994,176,o),
(1015,134,o),
(1015,84,cs),
(1015,40,o),
(988,0,o),
(941,0,cs),
(142,0,ls),
(95,0,o),
(68,40,o),
(68,84,cs),
(68,134,o),
(89,176,o),
(140,176,cs),
(404,176,l),
(404,1536,l),
(160,1536,ls),
(109,1536,o),
(88,1578,o),
(88,1628,cs),
(88,1672,o),
(115,1712,o),
(162,1712,cs),
(861,1712,ls),
(899,1712,o),
(921,1672,o),
(921,1628,cs),
(921,1578,o),
(900,1536,o),
(849,1536,cs),
(638,1536,l),
(638,1359,l),
(1098,1359,o),
(1545,1358,o),
(1545,907,cs)
);
},
{
closed = 1;
nodes = (
(1309,1175,o),
(1093,1191,o),
(638,1191,c),
(638,624,l),
(1105,624,o),
(1309,635,o),
(1309,917,cs)
);
}
);
width = 1518;
}
);
unicode = 222;
},
{
glyphname = Dcroat;
layers = (
{
layerId = m001;
shapes = (
{
closed = 1;
nodes = (
(1872,301,o),
(1460,0,o),
(893,0,cs),
(135,0,ls),
(88,0,o),
(61,40,o),
(61,84,cs),
(61,134,o),
(82,176,o),
(133,176,cs),
(401,176,l),
(401,809,l),
(252,809,ls),
(197,809,o),
(170,849,o),
(170,888,cs),
(170,927,o),
(196,965,o),
(246,965,cs),
(401,965,l),
(401,1538,l),
(198,1538,ls),
(147,1538,o),
(127,1580,o),
(127,1630,cs),
(127,1674,o),
(154,1714,o),
(201,1714,cs),
(893,1714,ls),
(1472,1714,o),
(1872,1438,o),
(1872,866,cs)
);
},
{
closed = 1;
nodes = (
(1630,1297,o),
(1355,1538,o),
(921,1538,cs),
(635,1538,l),
(635,965,l),
(888,965,ls),
(936,965,o),
(960,927,o),
(960,888,cs),
(960,849,o),
(935,809,o),
(886,809,cs),
(635,809,l),
(635,176,l),
(682,173,o),
(727,172,o),
(772,172,cs),
(1280,172,o),
(1630,346,o),
(1630,866,cs)
);
}
);
width = 1878;
}
);
unicode = 272;
},
{
glyphname = Hbar;
layers = (
{
layerId = m001;
shapes = (
{
closed = 1;
nodes = (
(565,1170,l),
(565,963,l),
(1497,963,l),
(1497,1170,l)
);
},
{
closed = 1;
nodes = (
(36,134,o),
(57,176,o),
(108,176,cs),
(331,176,l),
(331,1170,l),
(187,1170,ls),
(131.003,1170,o),
(104,1210,o),
(104,1249,cs),
(104,1287,o),
(130.003,1325,o),
(181,1325,cs),
(331,1325,l),
(331,1538,l),
(129,1538,ls),
(78,1538,o),
(57,1580,o),
(57,1630,cs),
(57,1674,o),
(84,1714,o),
(131,1714,cs),
(766,1714,ls),
(813,1714,o),
(839,1674,o),
(839,1630,cs),
(839,1580,o),
(819,1538,o),
(768,1538,cs),
(565,1538,l),
(565,1325,l),
(1497,1325,l),
(1497,1538,l),
(1294,1538,ls),
(1243,1538,o),
(1222,1580,o),
(1222,1630,cs),
(1222,1674,o),
(1249,1714,o),
(1296,1714,cs),
(1910,1714,ls),
(1957,1714,o),
(1984,1674,o),
(1984,1630,cs),
(1984,1580,o),
(1963,1538,o),
(1912,1538,cs),
(1730,1538,l),
(1730,1325,l),
(1871.5,1325,ls),
(1919.5,1325,o),
(1943.5,1287,o),
(1943.5,1249,cs),
(1943.5,1210,o),
(1918.5,1170,o),
(1869.5,1170,cs),
(1730,1170,l),
(1730,176,l),
(1912,176,ls),
(1963,176,o),
(1984,134,o),
(1984,84,cs),
(1984,40,o),
(1957,0,o),
(1910,0,cs),
(1296,0,ls),
(1249,0,o),
(1222,40,o),
(1222,84,cs),
(1222,134,o),
(1243,176,o),
(1294,176,cs),
(1497,176,l),
(1497,788,l),
(565,788,l),
(565,176,l),
(768,176,ls),
(819,176,o),
(839,134,o),
(839,84,cs),
(839,40,o),
(813,0,o),
(766,0,cs),
(110,0,ls),
(63,0,o),
(36,40,o),
(36,84,cs)
);
}
);
width = 2020;
}
);
unicode = 294;
},
{
glyphname = Lslash;
layers = (
{
layerId = m001;
shapes = (
{
closed = 1;
nodes = (
(970,1580,o),
(949,1538,o),
(898,1538,cs),
(675,1538,l),
(675,1149,l),
(937,1250,l),
(958,1256,o),
(976,1259,o),
(992,1259,cs),
(1042,1259,o),
(1060,1228,o),
(1060,1195,cs),
(1060,1160,o),
(1040,1122,o),
(1016,1115,c),
(675,984,l),
(675,176,l),
(1379,176,ls),
(1493,176,o),
(1585,197,o),
(1594,303,c),
(1623,584,ls),
(1628,628,o),
(1658,647,o),
(1705,647,cs),
(1754,647,o),
(1797,620,o),
(1797,567,c),
(1752,68,ls),
(1748,30,o),
(1728,0,o),
(1691,0,cs),
(142,0,ls),
(95,0,o),
(68,40,o),
(68,84,cs),
(68,134,o),
(89,176,o),
(140,176,cs),
(441,176,l),
(441,893,l),
(310,843,l),
(286,836,o),
(266,833,o),
(249,833,cs),
(197,833,o),
(178,864,o),
(178,897,cs),
(178,931,o),
(197,967,o),
(223,975,c),
(441,1059,l),
(441,1538,l),
(202,1538,ls),
(151,1538,o),
(130,1580,o),
(130,1630,cs),
(130,1674,o),
(157,1714,o),
(204,1714,cs),
(896,1714,ls),
(943,1714,o),
(970,1674,o),
(970,1630,cs)
);
}
);
width = 1870;
}
);
unicode = 321;
},
{
glyphname = Eng;
layers = (
{
layerId = m001;
shapes = (
{
closed = 1;
nodes = (
(68,1674,o),
(95,1714,o),
(142,1714,cs),
(605,1714,ls),
(637,1714,o),
(652,1704,o),
(664,1679,c),
(1543,426,l),
(1543,1538,l),
(1363,1538,ls),
(1312,1538,o),
(1291,1580,o),
(1291,1630,cs),
(1291,1674,o),
(1318,1714,o),
(1365,1714,cs),
(1947,1714,ls),
(1994,1714,o),
(2020,1674,o),
(2020,1630,cs),
(2020,1580,o),
(2000,1538,o),
(1949,1538,cs),
(1750,1538,l),
(1750,-52,ls),
(1750,-425,o),
(1555,-587,o),
(1302,-587,cs),
(1121,-587,o),
(967,-489,o),
(967,-364,cs),
(967,-245,ls),
(967,-176,o),
(997,-141,o),
(1071,-141,cs),
(1128,-141,o),
(1179,-170,o),
(1179,-225,cs),
(1179,-338,l),
(1180,-381,o),
(1242,-419,o),
(1315,-419,cs),
(1418,-419,o),
(1543,-336,o),
(1543,-75,cs),
(1543,51,l),
(550,1456,l),
(550,176,l),
(726,176,ls),
(777,176,o),
(798,134,o),
(798,84,cs),
(798,40,o),
(771,0,o),
(724,0,cs),
(142,0,ls),
(95,0,o),
(68,40,o),
(68,84,cs),
(68,134,o),
(89,176,o),
(140,176,cs),
(339,176,l),
(339,1538,l),
(140,1538,ls),
(89,1538,o),
(68,1580,o),
(68,1630,cs)
);
}
);
width = 2083;
}
);
unicode = 330;
},
{
glyphname = OE;
layers = (
{
layerId = m001;
shapes = (
{
closed = 1;
nodes = (
(434,-25,o),
(74,320,o),
(74,850,cs),
(74,1382,o),
(434,1739,o),
(950,1739,cs),
(1222,1739,o),
(1485,1609,o),
(1589,1387,c),
(1589,1714,l),
(2786,1714,ls),
(2834,1714,o),
(2852,1683,o),
(2868,1636,c),
(2964,1319,ls),
(2968,1304,o),
(2970,1291,o),
(2970,1280,cs),
(2970,1236,o),
(2940,1206,o),
(2897,1206,cs),
(2847,1206,o),
(2811,1240,o),
(2794,1282,cs),
(2686,1538,l),
(1822,1538,l),
(1822,967,l),
(2156,967,l),
(2207,1153,ls),
(2218,1190,o),
(2245,1221,o),
(2287,1221,cs),
(2332,1221,o),
(2357,1188,o),
(2357,1141,c),
(2342,899,l),
(2357,649,l),
(2357,602,o),
(2332,569,o),
(2287,569,cs),
(2245,569,o),
(2218,600,o),
(2207,637,cs),
(2156,823,l),
(1822,823,l),
(1822,176,l),
(2686,176,l),
(2802,506,l),
(2821,548,o),
(2853,582,o),
(2905,582,cs),
(2949,582,o),
(2978,554,o),
(2978,508,cs),
(2978,494,o),
(2976,481,o),
(2972,469,c),
(2909,78,l),
(2895,30,o),
(2875,0,o),
(2827,0,cs),
(1589,0,l),
(1589,311,l),
(1505,108,o),
(1221,-25,o),
(950,-25,cs)
);
},
{
closed = 1;
nodes = (
(550,1550,o),
(324,1256,o),
(324,850,cs),
(324,444,o),
(556,164,o),
(958,164,cs),
(1353,164,o),
(1589,438,o),
(1589,848,cs),
(1589,1262,o),
(1347,1550,o),
(941,1550,cs)
);
}
);
width = 3047;
}
);
unicode = 338;
},
{
glyphname = a;
layers = (
{
layerId = m001;
shapes = (
{
closed = 1;
nodes = (
(1370,61,o),
(1181,-25,o),
(1090,-25,cs),
(980,-25,o),
(914,27,o),
(890,137,c),
(792,24,o),
(626,-28,o),
(447,-28,cs),
(242,-28,o),
(89,107,o),
(89,307,cs),
(89,666,o),
(528,688,o),
(863,717,c),
(863,879,ls),
(863,984,o),
(755,1018,o),
(652,1018,cs),
(464,1018,o),
(399,979,o),
(271,897,cs),
(259,890,o),
(248,886,o),
(236,886,cs),
(190,886,o),
(148,938,o),
(148,985,cs),
(148,1146,o),
(457,1188,o),
(623,1188,cs),
(962,1188,o),
(1062,1058,o),
(1062,723,cs),
(1062,219,ls),
(1062,178,o),
(1075,147,o),
(1106,147,cs),
(1166,147,o),
(1251,255,o),
(1299,255,cs),
(1329,255,o),
(1370,205,o),
(1370,168,cs)
);
},
{
closed = 1;
nodes = (
(651,544,o),
(304,538,o),
(304,313,cs),
(304,199,o),
(401,145,o),
(517,145,cs),
(657,145,o),
(771,203,o),
(863,276,c),
(863,567,l)
);
}
);
width = 1355;
}
);
unicode = 97;
},
{
glyphname = b;
layers = (
{
layerId = m001;
shapes = (
{
closed = 1;
nodes = (
(1103,814,o),
(989,1018,o),
(763,1018,cs),
(601,1018,o),
(488,965,o),
(407,881,c),
(407,324,l),
(478,221,o),
(590,145,o),
(753,145,cs),
(986,145,o),
(1103,347,o),
(1103,582,cs)
);
},
{
closed = 1;
nodes = (
(1324,227,o),
(1117,-25,o),
(767,-25,cs),
(602,-25,o),
(470,55,o),
(386,150,c),
(386,68,o),
(367,-8,o),
(290,-8,cs),
(222,-8,o),
(202,51,o),
(202,117,cs),
(202,1524,l),
(-34,1462,l),
(-40,1462,o),
(-38,1460,o),
(-44,1460,cs),
(-86,1460,o),
(-124,1505,o),
(-124,1546,cs),
(-124,1603,o),
(-90,1613,o),
(-46,1626,cs),
(339,1737,ls),
(342,1738,o),
(346,1739,o),
(353,1739,cs),
(381,1739,o),
(407,1720,o),
(407,1690,cs),
(407,1035,l),
(502,1127,o),
(606,1188,o),
(771,1188,cs),
(1112,1188,o),
(1324,929,o),
(1324,582,cs)
);
}
);
width = 1454;
}
);
unicode = 98;
},
{
glyphname = c;
layers = (
{
layerId = m001;
shapes = (
{
closed = 1;
nodes = (
(953,1188,o),
(1180,1128,o),
(1180,878,cs),
(1180,799,o),
(1151,738,o),
(1083,738,cs),
(983,738,o),
(973,886,o),
(947,993,c),
(882,1010,o),
(818,1018,o),
(757,1018,cs),
(499,1018,o),
(304,860,o),
(304,596,cs),
(304,310,o),
(503,174,o),
(722,174,cs),
(836,174,o),
(955,217,o),
(1050,302,cs),
(1069,318,o),
(1090,328,o),
(1113,328,cs),
(1168,328,o),
(1209,299,o),
(1209,250,cs),
(1209,78,o),
(909,-25,o),
(734,-25,cs),
(350,-25,o),
(82,207,o),
(82,596,cs),
(82,977,o),
(389,1188,o),
(750,1188,cs)
);
}
);
width = 1282;
}
);
unicode = 99;
},
{
glyphname = d;
layers = (
{
layerId = m001;
shapes = (
{
closed = 1;
nodes = (
(333,349,o),
(451,145,o),
(683,145,cs),
(842,145,o),
(958,224,o),
(1029,324,c),
(1029,881,l),
(945,967,o),
(829,1018,o),
(673,1018,cs),
(447,1018,o),
(333,808,o),
(333,582,cs)
);
},
{
closed = 1;
nodes = (
(111,924,o),
(323,1188,o),
(664,1188,cs),
(823,1188,o),
(933,1132,o),
(1029,1055,c),
(1029,1524,l),
(793,1462,l),
(787,1462,o),
(789,1460,o),
(783,1460,cs),
(741,1460,o),
(703,1505,o),
(703,1546,cs),
(703,1603,o),
(737,1613,o),
(781,1626,cs),
(1166,1737,ls),
(1169,1738,o),
(1174,1739,o),
(1181,1739,cs),
(1209,1739,o),
(1234,1720,o),
(1234,1690,cs),
(1234,176,l),
(1379,197,ls),
(1386,198,o),
(1395,199,o),
(1406,199,cs),
(1459,199,o),
(1494,172,o),
(1494,125,cs),
(1494,16,o),
(1341,22,o),
(1254,12,c),
(1202,4,o),
(1129,-10,o),
(1086,-10,cs),
(1039,-10,o),
(1029,32,o),
(1029,78,cs),
(1029,150,l),
(953,58,o),
(826,-25,o),
(669,-25,cs),
(316,-25,o),
(111,231,o),
(111,582,cs)
);
}
);
width = 1505;
}
);
unicode = 100;
},
{
glyphname = e;
layers = (
{
layerId = m001;
shapes = (
{
closed = 1;
nodes = (
(283,297,o),
(467,158,o),
(707,158,cs),
(877,158,o),
(957,232,o),
(1045,314,c),
(1065,331,o),
(1088,340,o),
(1111,340,cs),
(1165,340,o),
(1207,305,o),
(1207,250,cs),
(1207,79,o),
(883,-25,o),
(699,-25,cs),
(332,-25,o),
(70,207,o),
(70,575,cs),
(70,939,o),
(301,1188,o),
(675,1188,cs),
(943,1188,o),
(1205,985,o),
(1205,692,cs),
(1205,592,o),
(1136,590,o),
(1041,580,c),
(283,559,l)
);
},
{
closed = 1;
nodes = (
(954,947,o),
(815,1018,o),
(675,1018,cs),
(439,1018,o),
(296,893,o),
(279,700,c),
(880,713,l),
(917,715,o),
(954,725,o),
(954,756,cs)
);
}
);
width = 1304;
}
);
unicode = 101;
},
{
glyphname = f;
layers = (
{
layerId = m001;
shapes = (
{
closed = 1;
nodes = (
(877,1411,o),
(835,1435,o),
(835,1487,cs),
(835,1556,l),
(622,1537,o),
(562,1449,o),
(562,1231,cs),
(562,1218,o),
(563,1205,o),
(563,1191,cs),
(565,1122,l),
(784,1122,ls),
(835,1122,o),
(856,1080,o),
(856,1030,cs),
(856,986,o),
(829,946,o),
(782,946,cs),
(563,946,l),
(565,176,l),
(817,176,ls),
(868,176,o),
(889,134,o),
(889,84,cs),
(889,40,o),
(862,0,o),
(815,0,cs),
(145,0,ls),
(89,0,o),
(63,35,o),
(63,86,cs),
(63,135,o),
(87,176,o),
(139,176,cs),
(360,176,l),
(360,946,l),
(182,946,ls),
(126,946,o),
(100,981,o),
(100,1032,cs),
(100,1081,o),
(124,1122,o),
(176,1122,cs),
(360,1122,l),
(360,1227,ls),
(360,1580,o),
(569,1739,o),
(928,1739,cs),
(972,1739,o),
(1012,1712,o),
(1012,1665,cs),
(1012,1493,ls),
(1012,1437,o),
(977,1411,o),
(926,1411,cs)
);
}
);
width = 1042;
}
);
unicode = 102;
},
{
glyphname = g;
layers = (
{
layerId = m001;
shapes = (
{
closed = 1;
nodes = (
(96,1039,o),
(325,1188,o),
(596,1188,cs),
(750,1188,o),
(876,1145,o),
(964,1075,c),
(1100,1208,ls),
(1160,1268,o),
(1229,1276,o),
(1282,1276,cs),
(1346,1276,o),
(1407,1255,o),
(1407,1188,cs),
(1407,1141,o),
(1357,1092,o),
(1221,1092,cs),
(1220,1092,l),
(1048,983,l),
(1081,917,o),
(1118,829,o),
(1118,737,cs),
(1118,476,o),
(884,347,o),
(596,347,cs),
(570,347,o),
(537,349,o),
(503,349,cs),
(416,349,o),
(323,337,o),
(323,250,cs),
(323,182,o),
(424,173,o),
(516,173,cs),
(550,173,o),
(582,174,o),
(608,174,cs),
(932,174,o),
(1209,147,o),
(1209,-184,cs),
(1209,-486,o),
(901,-504,o),
(592,-504,cs),
(358,-504,o),
(100,-419,o),
(100,-186,cs),
(100,-39,o),
(161,40,o),
(266,88,c),
(207,117,o),
(139,171,o),
(139,262,cs),
(139,375,o),
(204,424,o),
(299,448,c),
(180,527,o),
(96,605,o),
(96,776,cs)
);
},
{
closed = 1;
nodes = (
(322,-12,o),
(268,-66,o),
(268,-150,cs),
(268,-288,o),
(425,-336,o),
(588,-336,cs),
(799,-336,o),
(1014,-331,o),
(1014,-164,cs),
(1014,-16,o),
(858,1,o),
(700,1,cs),
(658,1,o),
(626,0,o),
(596,0,cs),
(535,0,o),
(481,4,o),
(364,30,c)
);
},
{
closed = 1;
nodes = (
(427,1051,o),
(303,947,o),
(303,752,cs),
(303,574,o),
(428,487,o),
(602,487,cs),
(779,487,o),
(899,556,o),
(899,757,cs),
(899,945,o),
(799,1051,o),
(610,1051,cs)
);
}
);
width = 1371;
}
);
unicode = 103;
},
{
glyphname = h;
layers = (
{
layerId = m001;
shapes = (
{
closed = 1;
nodes = (
(688,1018,o),
(567,909,o),
(499,799,c),
(499,176,l),
(663,176,ls),
(715,176,o),
(724,136,o),
(724,86,cs),
(724,46,o),
(703,0,o),
(661,0,cs),
(172,0,ls),
(115,0,o),
(96,32,o),
(96,84,cs),
(96,134,o),
(113,176,o),
(165,176,cs),
(294,176,l),
(294,1524,l),
(59,1462,l),
(53,1462,o),
(55,1460,o),
(49,1460,cs),
(7,1460,o),
(-31,1505,o),
(-31,1546,cs),
(-31,1603,o),
(3,1613,o),
(47,1626,cs),
(432,1737,ls),
(435,1738,o),
(439,1739,o),
(446,1739,cs),
(474,1739,o),
(499,1720,o),
(499,1690,cs),
(499,1004,l),
(577,1097,o),
(713,1188,o),
(878,1188,cs),
(1128,1188,o),
(1286,1032,o),
(1286,780,cs),
(1286,176,l),
(1449,176,ls),
(1501,176,o),
(1511,136,o),
(1511,86,cs),
(1511,46,o),
(1489,0,o),
(1447,0,cs),
(958,0,ls),
(901,0,o),
(882,32,o),
(882,84,cs),
(882,134,o),
(900,176,o),
(952,176,cs),
(1083,176,l),
(1083,762,ls),
(1083,922,o),
(1003,1018,o),
(841,1018,cs)
);
}
);
width = 1544;
}
);
unicode = 104;
},
{
glyphname = i;
layers = (
{
layerId = m001;
shapes = (
{
closed = 1;
nodes = (
(326,1427,o),
(258,1495,o),
(258,1579,cs),
(258,1663,o),
(326,1731,o),
(410,1731,cs),
(494,1731,o),
(561,1663,o),
(561,1579,cs),
(561,1495,o),
(494,1427,o),
(410,1427,cs)
);
},
{
closed = 1;
nodes = (
(102,132,o),
(126,173,o),
(178,173,cs),
(315,173,l),
(315,983,l),
(172,944,ls),
(169,943,o),
(165,942,o),
(158,942,cs),
(118,942,o),
(76,981,o),
(76,1022,cs),
(76,1065,o),
(95,1096,o),
(133,1106,cs),
(453,1186,ls),
(457,1187,o),
(462,1188,o),
(469,1188,cs),
(499,1188,o),
(520,1171,o),
(520,1141,cs),
(520,173,l),
(674,173,ls),
(725,173,o),
(746,131,o),
(746,81,cs),
(746,37,o),
(719,0,o),
(672,0,cs),
(184,0,ls),
(128,0,o),
(102,32,o),
(102,83,cs)
);
}
);
width = 788;
}
);
unicode = 105;
},
{
glyphname = j;
layers = (
{
layerId = m001;
shapes = (
{
closed = 1;
nodes = (
(397,-323,o),
(445,-126,o),
(445,115,cs),
(445,983,l),
(301,944,ls),
(298,943,o),
(294,942,o),
(287,942,cs),
(247,942,o),
(205,981,o),
(205,1022,cs),
(205,1065,o),
(224,1096,o),
(262,1106,cs),
(582,1186,ls),
(586,1187,o),
(591,1188,o),
(598,1188,cs),
(628,1188,o),
(650,1174,o),
(650,1143,cs),
(650,115,ls),
(650,-191,o),
(562,-496,o),
(203,-496,cs),
(48,-496,o),
(-75,-436,o),
(-75,-243,cs),
(-75,-164,o),
(-57,-120,o),
(23,-120,cs),
(79,-120,o),
(113,-157,o),
(113,-220,c),
(131,-283,o),
(89,-323,o),
(214,-323,cs)
);
},
{
closed = 1;
nodes = (
(346,1655,o),
(397,1735,o),
(473,1735,cs),
(560,1735,o),
(633,1680,o),
(633,1593,cs),
(633,1507,o),
(575,1450,o),
(490,1450,cs),
(414,1450,o),
(346,1503,o),
(346,1579,cs)
);
}
);
width = 804;
}
);
unicode = 106;
},
{
glyphname = k;
layers = (
{
layerId = m001;
shapes = (
{
closed = 1;
nodes = (
(477,1739,o),
(502,1720,o),
(502,1690,cs),
(502,620,l),
(657,725,o),
(834,847,o),
(985,946,c),
(879,946,ls),
(827,946,o),
(803,986,o),
(803,1036,cs),
(803,1087,o),
(829,1122,o),
(885,1122,cs),
(1348,1122,ls),
(1395,1122,o),
(1422,1112,o),
(1422,1068,cs),
(1422,1018,o),
(1401,946,o),
(1350,946,cs),
(1239,946,ls),
(1186,946,o),
(1149,909,o),
(1114,883,cs),
(824,664,l),
(1114,291,l),
(1186,191,o),
(1238,188,o),
(1366,188,cs),
(1381,188,ls),
(1470,188,o),
(1497,173,o),
(1497,96,cs),
(1497,17,o),
(1448,0,o),
(1358,0,cs),
(922,0,ls),
(871,0,o),
(846,40,o),
(846,90,cs),
(846,141,o),
(871,176,o),
(928,176,cs),
(987,176,l),
(686,579,l),
(502,467,l),
(502,176,l),
(654,176,ls),
(705,176,o),
(725,134,o),
(725,84,cs),
(725,40,o),
(699,0,o),
(652,0,cs),
(148,0,ls),
(92,0,o),
(66,35,o),
(66,86,cs),
(66,135,o),
(90,176,o),
(142,176,cs),
(297,176,l),
(297,1524,l),
(62,1462,l),
(56,1462,o),
(57,1460,o),
(51,1460,cs),
(9,1460,o),
(-28,1505,o),
(-28,1546,cs),
(-28,1603,o),
(5,1613,o),
(49,1626,cs),
(434,1737,ls),
(437,1738,o),
(442,1739,o),
(449,1739,cs)
);
}
);
width = 1498;
}
);
unicode = 107;
},
{
glyphname = l;
layers = (
{
layerId = m001;
shapes = (
{
closed = 1;
nodes = (
(545,1735,o),
(570,1716,o),
(570,1686,cs),
(570,176,l),
(814,176,ls),
(865,176,o),
(886,134,o),
(886,84,cs),
(886,40,o),
(859,0,o),
(812,0,cs),
(144,0,ls),
(88,0,o),
(62,35,o),
(62,86,cs),
(62,135,o),
(86,176,o),
(138,176,cs),
(365,176,l),
(365,1520,l),
(130,1458,l),
(124,1458,o),
(126,1456,o),
(120,1456,cs),
(78,1456,o),
(40,1501,o),
(40,1542,cs),
(40,1599,o),
(74,1609,o),
(118,1622,cs),
(503,1733,ls),
(506,1734,o),
(510,1735,o),
(517,1735,cs)
);
}
);
width = 914;
}
);
unicode = 108;
},
{
glyphname = m;
layers = (
{
layerId = m001;
shapes = (
{
closed = 1;
nodes = (
(2112,1188,o),
(2293,1029,o),
(2293,780,cs),
(2293,176,l),
(2439,176,ls),
(2490,176,o),
(2510,134,o),
(2510,84,cs),
(2510,40,o),
(2484,0,o),
(2437,0,cs),
(1949,0,ls),
(1893,0,o),
(1867,35,o),
(1867,86,cs),
(1867,135,o),
(1891,176,o),
(1943,176,cs),
(2091,176,l),
(2091,762,ls),
(2091,922,o),
(2011,1018,o),
(1849,1018,cs),
(1633,1018,o),
(1489,885,o),
(1407,733,c),
(1407,176,l),
(1572,176,ls),
(1623,176,o),
(1644,134,o),
(1644,84,cs),
(1644,40,o),
(1617,0,o),
(1570,0,cs),
(1042,0,ls),
(986,0,o),
(960,35,o),
(960,86,cs),
(960,135,o),
(984,176,o),
(1036,176,cs),
(1204,176,l),
(1204,762,ls),
(1204,922,o),
(1124,1018,o),
(962,1018,cs),
(736,1018,o),
(582,897,o),
(505,743,c),
(505,176,l),
(690,176,ls),
(741,176,o),
(761,134,o),
(761,84,cs),
(761,40,o),
(735,0,o),
(688,0,cs),
(159,0,ls),
(103,0,o),
(77,35,o),
(77,86,cs),
(77,135,o),
(101,176,o),
(153,176,cs),
(301,176,l),
(301,979,l),
(157,944,ls),
(154,943,o),
(150,942,o),
(143,942,cs),
(103,942,o),
(61,981,o),
(61,1022,cs),
(61,1067,o),
(80,1094,o),
(118,1106,c),
(397,1186,l),
(403,1186,o),
(401,1188,o),
(407,1188,cs),
(413,1188,ls),
(441,1188,o),
(464,1170,o),
(464,1141,c),
(485,952,l),
(566,1088,o),
(763,1188,o),
(979,1188,cs),
(1181,1188,o),
(1324,1084,o),
(1380,934,c),
(1473,1068,o),
(1640,1188,o),
(1865,1188,cs)
);
}
);
width = 2547;
}
);
unicode = 109;
},
{
glyphname = n;
layers = (
{
layerId = m001;
shapes = (
{
closed = 1;
nodes = (
(701,1018,o),
(505,886,o),
(505,707,cs),
(505,176,l),
(651,176,ls),
(702,176,o),
(722,134,o),
(722,84,cs),
(722,40,o),
(696,0,o),
(649,0,cs),
(182,0,ls),
(126,0,o),
(100,35,o),
(100,86,cs),
(100,135,o),
(124,176,o),
(176,176,cs),
(300,176,l),
(300,979,l),
(157,944,ls),
(154,943,o),
(150,942,o),
(143,942,cs),
(103,942,o),
(61,981,o),
(61,1022,cs),
(61,1067,o),
(80,1094,o),
(118,1106,c),
(397,1186,l),
(403,1186,o),
(401,1188,o),
(407,1188,cs),
(413,1188,ls),
(441,1188,o),
(464,1170,o),
(464,1141,c),
(485,952,l),
(553,1075,o),
(729,1188,o),
(917,1188,cs),
(1167,1188,o),
(1324,1032,o),
(1324,780,cs),
(1324,176,l),
(1449,176,ls),
(1500,176,o),
(1521,134,o),
(1521,84,cs),
(1521,40,o),
(1494,0,o),
(1447,0,cs),
(960,0,ls),
(904,0,o),
(878,35,o),
(878,86,cs),
(878,135,o),
(902,176,o),
(954,176,cs),
(1122,176,l),
(1122,762,ls),
(1122,922,o),
(1042,1018,o),
(880,1018,cs)
);
}
);
width = 1558;
}
);
unicode = 110;
},
{
glyphname = o;
layers = (
{
layerId = m001;
shapes = (
{
closed = 1;
nodes = (
(448,1018,o),
(303,836,o),
(303,582,cs),
(303,326,o),
(448,145,o),
(702,145,cs),
(950,145,o),
(1089,332,o),
(1089,582,cs),
(1089,833,o),
(950,1018,o),
(702,1018,cs)
);
},
{
closed = 1;
nodes = (
(331,-25,o),
(81,211,o),
(81,582,cs),
(81,955,o),
(332,1188,o),
(702,1188,cs),
(1067,1188,o),
(1310,948,o),
(1310,582,cs),
(1310,216,o),
(1066,-25,o),
(702,-25,cs)
);
}
);
width = 1391;
}
);
unicode = 111;
},
{
glyphname = p;
layers = (
{
layerId = m001;
shapes = (
{
closed = 1;
nodes = (
(1186,819,o),
(1068,1018,o),
(836,1018,cs),
(659,1018,o),
(533,945,o),
(453,840,c),
(453,283,l),
(538,198,o),
(662,145,o),
(830,145,cs),
(1064,145,o),
(1186,346,o),
(1186,582,cs)
);
},
{
closed = 1;
nodes = (
(1407,225,o),
(1182,-25,o),
(830,-25,cs),
(665,-25,o),
(548,29,o),
(453,109,c),
(453,-399,l),
(655,-399,ls),
(706,-399,o),
(727,-442,o),
(727,-492,cs),
(727,-536,o),
(700,-575,o),
(653,-575,cs),
(129,-575,ls),
(73,-575,o),
(47,-540,o),
(47,-489,cs),
(47,-440,o),
(71,-399,o),
(123,-399,cs),
(248,-399,l),
(248,979,l),
(105,944,ls),
(102,943,o),
(97,942,o),
(90,942,cs),
(50,942,o),
(8,981,o),
(8,1022,cs),
(8,1067,o),
(28,1094,o),
(66,1106,c),
(344,1186,l),
(350,1186,o),
(348,1188,o),
(354,1188,cs),
(361,1188,ls),
(389,1188,o),
(412,1170,o),
(412,1141,c),
(432,952,l),
(496,1089,o),
(654,1188,o),
(850,1188,cs),
(1201,1188,o),
(1407,935,o),
(1407,582,cs)
);
}
);
width = 1516;
}
);
unicode = 112;
},
{
glyphname = q;
layers = (
{
layerId = m001;
shapes = (
{
closed = 1;
nodes = (
(1044,1086,o),
(1058,1133,o),
(1143,1133,cs),
(1190,1133,o),
(1212,1081,o),
(1212,1028,cs),
(1212,-399,l),
(1337,-399,ls),
(1389,-399,o),
(1413,-439,o),
(1413,-489,cs),
(1413,-540,o),
(1387,-575,o),
(1331,-575,cs),
(807,-575,ls),
(760,-575,o),
(733,-536,o),
(733,-492,cs),
(733,-442,o),
(754,-399,o),
(805,-399,cs),
(1007,-399,l),
(1007,109,l),
(924,31,o),
(822,-25,o),
(672,-25,cs),
(326,-25,o),
(114,234,o),
(114,582,cs),
(114,930,o),
(309,1188,o),
(651,1188,cs),
(815,1188,o),
(951,1101,o),
(1034,1006,c)
);
},
{
closed = 1;
nodes = (
(336,352,o),
(448,145,o),
(672,145,cs),
(826,145,o),
(932,200,o),
(1007,283,c),
(1007,840,l),
(936,943,o),
(828,1018,o),
(665,1018,cs),
(441,1018,o),
(336,809,o),
(336,582,cs)
);
}
);
width = 1413;
}
);
unicode = 113;
},
{
glyphname = r;
layers = (
{
layerId = m001;
shapes = (
{
closed = 1;
nodes = (
(734,1006,o),
(603,925,o),
(538,827,c),
(538,176,l),
(806,176,ls),
(857,176,o),
(878,134,o),
(878,84,cs),
(878,40,o),
(851,0,o),
(804,0,cs),
(143,0,ls),
(87,0,o),
(61,35,o),
(61,86,cs),
(61,135,o),
(85,176,o),
(137,176,cs),
(333,176,l),
(333,979,l),
(190,944,ls),
(187,943,o),
(183,942,o),
(176,942,cs),
(136,942,o),
(94,981,o),
(94,1022,cs),
(94,1067,o),
(113,1094,o),
(151,1106,c),
(430,1186,l),
(436,1186,o),
(434,1188,o),
(440,1188,cs),
(446,1188,ls),
(474,1188,o),
(497,1170,o),
(497,1141,c),
(518,952,l),
(610,1093,o),
(753,1188,o),
(987,1188,cs),
(1031,1188,o),
(1071,1161,o),
(1071,1114,cs),
(1071,901,ls),
(1071,845,o),
(1036,819,o),
(985,819,cs),
(936,819,o),
(895,843,o),
(895,895,cs),
(895,1006,l)
);
}
);
width = 1142;
}
);
unicode = 114;
},
{
glyphname = s;
layers = (
{
layerId = m001;
shapes = (
{
closed = 1;
nodes = (
(165,1120,o),
(387,1188,o),
(598,1188,cs),
(735,1188,o),
(888,1126,o),
(937,1037,c),
(938,1122,ls),
(938,1163,o),
(972,1190,o),
(1013,1190,cs),
(1072,1190,o),
(1101,1163,o),
(1101,1112,cs),
(1097,823,l),
(1092,778,o),
(1061,754,o),
(1015,754,cs),
(971,754,o),
(963,782,o),
(950,831,c),
(905,972,o),
(739,1048,o),
(596,1048,cs),
(473,1048,o),
(366,1001,o),
(366,903,cs),
(366,818,o),
(417,778,o),
(540,747,c),
(796,663,ls),
(976,603,o),
(1148,537,o),
(1148,311,cs),
(1148,88,o),
(991,-27,o),
(716,-27,cs),
(572,-27,o),
(372,21,o),
(296,105,c),
(296,16,o),
(260,0,o),
(215,0,cs),
(164,0,o),
(126,20,o),
(126,74,cs),
(126,412,l),
(128,453,o),
(163,475,o),
(202,475,cs),
(261,475,o),
(278,447,o),
(290,395,cs),
(331,213,o),
(490,123,o),
(705,123,cs),
(835,123,o),
(941,168,o),
(941,281,cs),
(941,394,o),
(896,432,o),
(759,474,cs),
(487,559,ls),
(317,613,o),
(165,687,o),
(165,861,cs)
);
}
);
width = 1233;
}
);
unicode = 115;
},
{
glyphname = t;
layers = (
{
layerId = m001;
shapes = (
{
closed = 1;
nodes = (
(703,134,o),
(707,242,o),
(783,242,cs),
(825,242,o),
(855,208,o),
(855,166,cs),
(855,47,o),
(675,-27,o),
(540,-27,cs),
(383,-27,o),
(247,100,o),
(247,248,cs),
(247,956,l),
(97,956,ls),
(41,956,o),
(15,991,o),
(15,1042,cs),
(15,1091,o),
(39,1133,o),
(91,1133,cs),
(247,1133,l),
(247,1255,o),
(250,1528,o),
(365,1528,cs),
(398,1528,o),
(421,1520,o),
(445,1503,c),
(445,1483,ls),
(445,1465,o),
(447,1442,o),
(447,1424,cs),
(447,1133,l),
(709,1133,ls),
(760,1133,o),
(781,1090,o),
(781,1040,cs),
(781,996,o),
(754,956,o),
(707,956,cs),
(447,956,l),
(447,279,ls),
(447,174,o),
(500,134,o),
(574,134,cs)
);
}
);
width = 892;
}
);
unicode = 116;
},
{
glyphname = u;
layers = (
{
layerId = m001;
shapes = (
{
closed = 1;
nodes = (
(836,145,o),
(987,236,o),
(1043,354,c),
(1043,979,l),
(900,944,ls),
(897,943,o),
(892,942,o),
(885,942,cs),
(845,942,o),
(803,981,o),
(803,1022,cs),
(803,1065,o),
(823,1096,o),
(861,1106,cs),
(1180,1186,ls),
(1184,1187,o),
(1190,1188,o),
(1197,1188,cs),
(1228,1188,o),
(1248,1171,o),
(1248,1139,cs),
(1248,190,l),
(1399,190,ls),
(1444,190,o),
(1469,154,o),
(1469,109,cs),
(1469,66,o),
(1450,35,o),
(1412,25,c),
(1139,-4,l),
(1100,-4,o),
(1078,18,o),
(1068,84,cs),
(1053,182,l),
(975,67,o),
(801,-25,o),
(627,-25,cs),
(389,-25,o),
(250,141,o),
(250,383,cs),
(250,979,l),
(107,944,ls),
(104,943,o),
(100,942,o),
(93,942,cs),
(53,942,o),
(11,981,o),
(11,1022,cs),
(11,1065,o),
(30,1096,o),
(68,1106,cs),
(388,1186,ls),
(392,1187,o),
(397,1188,o),
(404,1188,cs),
(435,1188,o),
(455,1171,o),
(455,1139,cs),
(455,401,ls),
(455,254,o),
(522,145,o),
(664,145,cs)
);
}
);
width = 1484;
}
);
unicode = 117;
},
{
glyphname = v;
layers = (
{
layerId = m001;
shapes = (
{
closed = 1;
nodes = (
(620,999,o),
(600,956,o),
(549,956,cs),
(434,956,l),
(753,272,l),
(1046,956,l),
(950,956,ls),
(899,956,o),
(878,999,o),
(878,1049,cs),
(878,1093,o),
(905,1133,o),
(952,1133,cs),
(1349,1133,ls),
(1406,1133,o),
(1431,1098,o),
(1431,1047,cs),
(1431,998,o),
(1407,956,o),
(1355,956,cs),
(1224,956,l),
(848,117,l),
(818,61,o),
(791,0,o),
(727,0,cs),
(669,0,o),
(641,62,o),
(610,125,cs),
(196,956,l),
(78,956,ls),
(27,956,o),
(2,997,o),
(2,1047,cs),
(2,1098,o),
(28,1133,o),
(84,1133,cs),
(547,1133,ls),
(594,1133,o),
(620,1093,o),
(620,1049,cs)
);
}
);
width = 1433;
}
);
unicode = 118;
},
{
glyphname = w;
layers = (
{
layerId = m001;
shapes = (
{
closed = 1;
nodes = (
(1297,999,o),
(1276,956,o),
(1225,956,cs),
(1063,956,l),
(1368,299,l),
(1667,956,l),
(1567,956,ls),
(1516,956,o),
(1495,999,o),
(1495,1049,cs),
(1495,1093,o),
(1522,1133,o),
(1569,1133,cs),
(1915,1133,ls),
(1971,1133,o),
(1997,1098,o),
(1997,1047,cs),
(1997,998,o),
(1973,956,o),
(1921,956,cs),
(1819,956,l),
(1446,117,ls),
(1423,66,o),
(1397,-2,o),
(1348,-2,cs),
(1302,-2,o),
(1265,79,o),
(1243,125,cs),
(1008,608,l),
(789,117,ls),
(756,42,o),
(720,4,o),
(682,4,cs),
(645,4,o),
(607,44,o),
(567,125,cs),
(160,956,l),
(76,956,ls),
(24,956,o),
(0,997,o),
(0,1047,cs),
(0,1098,o),
(26,1133,o),
(82,1133,cs),
(463,1133,ls),
(510,1133,o),
(537,1093,o),
(537,1049,cs),
(537,999,o),
(516,956,o),
(465,956,cs),
(385,956,l),
(711,299,l),
(926,774,l),
(838,956,l),
(774,956,ls),
(722,956,o),
(699,997,o),
(699,1047,cs),
(699,1098,o),
(724,1133,o),
(780,1133,cs),
(1223,1133,ls),
(1270,1133,o),
(1297,1093,o),
(1297,1049,cs)
);
}
);
width = 1997;
}
);
unicode = 119;
},
{
glyphname = x;
layers = (
{
layerId = m001;
shapes = (
{
closed = 1;
nodes = (
(872,135,o),
(895,176,o),
(947,176,cs),
(1064,176,l),
(767,473,l),
(450,176,l),
(528,176,ls),
(579,176,o),
(599,134,o),
(599,84,cs),
(599,40,o),
(573,0,o),
(526,0,cs),
(120,0,ls),
(64,0,o),
(38,35,o),
(38,86,cs),
(38,135,o),
(62,176,o),
(114,176,cs),
(249,176,l),
(667,575,l),
(292,956,l),
(141,956,ls),
(85,956,o),
(59,992,o),
(59,1043,cs),
(59,1092,o),
(82,1133,o),
(134,1133,cs),
(569,1133,ls),
(620,1133,o),
(640,1091,o),
(640,1041,cs),
(640,997,o),
(614,956,o),
(567,956,cs),
(530,956,l),
(796,698,l),
(1064,956,l),
(1015,956,ls),
(959,956,o),
(933,992,o),
(933,1043,cs),
(933,1092,o),
(957,1133,o),
(1009,1133,cs),
(1443,1133,ls),
(1494,1133,o),
(1515,1091,o),
(1515,1041,cs),
(1515,997,o),
(1488,956,o),
(1441,956,cs),
(1281,956,l),
(900,598,l),
(1339,176,l),
(1443,176,ls),
(1494,176,o),
(1515,134,o),
(1515,84,cs),
(1515,40,o),
(1488,0,o),
(1441,0,cs),
(954,0,ls),
(898,0,o),
(872,35,o),
(872,86,cs)
);
}
);
width = 1553;
}
);
unicode = 120;
},
{
glyphname = y;
layers = (
{
layerId = m001;
shapes = (
{
closed = 1;
nodes = (
(606,999,o),
(585,956,o),
(534,956,cs),
(414,956,l),
(762,209,l),
(1038,956,l),
(922,956,ls),
(871,956,o),
(850,999,o),
(850,1049,cs),
(850,1093,o),
(877,1133,o),
(924,1133,cs),
(1327,1133,ls),
(1384,1133,o),
(1409,1098,o),
(1409,1047,cs),
(1409,998,o),
(1385,956,o),
(1333,956,cs),
(1216,956,l),
(801,-121,l),
(729,-291,o),
(628,-590,o),
(375,-590,cs),
(294,-590,o),
(248,-538,o),
(248,-484,cs),
(248,-434,o),
(277,-370,o),
(363,-368,c),
(475,-368,o),
(558,-273,o),
(602,-166,c),
(666,-6,l),
(659,-6,o),
(622,72,o),
(616,84,cs),
(188,956,l),
(67,956,ls),
(15,956,o),
(-8,997,o),
(-8,1047,cs),
(-8,1098,o),
(18,1133,o),
(74,1133,cs),
(532,1133,ls),
(579,1133,o),
(606,1093,o),
(606,1049,cs)
);
}
);
width = 1392;
}
);
unicode = 121;
},
{
glyphname = z;
layers = (
{
layerId = m001;
shapes = (
{
closed = 1;
nodes = (
(1165,1130,o),
(1184,1112,o),
(1184,1086,cs),
(1184,1041,o),
(1125,976,o),
(1104,954,cs),
(361,176,l),
(1049,176,l),
(1079,467,l),
(1081,508,o),
(1116,530,o),
(1155,530,cs),
(1210,530,o),
(1244,507,o),
(1244,461,cs),
(1244,458,o),
(1243,455,o),
(1243,451,cs),
(1202,68,ls),
(1198,32,o),
(1162,0,o),
(1127,0,cs),
(164,0,ls),
(108,0,o),
(82,35,o),
(82,86,cs),
(82,118,o),
(91,143,o),
(107,160,cs),
(846,954,l),
(299,954,l),
(287,762,l),
(282,717,o),
(251,692,o),
(205,692,cs),
(151,692,o),
(125,717,o),
(125,769,cs),
(125,780,l),
(144,1063,ls),
(146,1098,o),
(176,1130,o),
(211,1130,cs),
(1106,1130,ls)
);
}
);
width = 1301;
}
);
unicode = 122;
},
{
glyphname = ordfeminine;
layers = (
{
layerId = m001;
shapes = (
{
closed = 1;
nodes = (
(1122,30,o),
(1006,-23,o),
(949,-23,cs),
(882,-23,o),
(841,10,o),
(826,77,c),
(766,7,o),
(664,-25,o),
(553,-25,cs),
(427,-25,o),
(332,59,o),
(332,183,cs),
(332,404,o),
(603,417,o),
(810,435,c),
(810,535,ls),
(810,600,o),
(743,621,o),
(679,621,cs),
(564,621,o),
(523,597,o),
(445,547,cs),
(437,542,o),
(430,539,o),
(423,539,cs),
(395,539,o),
(369,572,o),
(369,601,cs),
(369,700,o),
(559,726,o),
(662,726,cs),
(871,726,o),
(933,646,o),
(933,439,cs),
(933,128,ls),
(933,102,o),
(941,84,o),
(960,84,cs),
(996,84,o),
(1049,150,o),
(1079,150,cs),
(1097,150,o),
(1122,119,o),
(1122,96,cs)
);
},
{
closed = 1;
nodes = (
(679,329,o),
(464,324,o),
(464,186,cs),
(464,116,o),
(525,83,o),
(596,83,cs),
(682,83,o),
(753,118,o),
(810,163,c),
(810,342,l)
);
}
);
width = 1366;
}
);
unicode = 170;
},
{
glyphname = ordmasculine;
layers = (
{
layerId = m001;
shapes = (
{
closed = 1;
nodes = (
(491,661,o),
(395,541,o),
(395,373,cs),
(395,203,o),
(491,83,o),
(659,83,cs),
(824,83,o),
(916,207,o),
(916,373,cs),
(916,539,o),
(824,661,o),
(659,661,cs)
);
},
{
closed = 1;
nodes = (
(414,-30,o),
(248,127,o),
(248,373,cs),
(248,620,o),
(414,774,o),
(659,774,cs),
(901,774,o),
(1062,615,o),
(1062,373,cs),
(1062,130,o),
(901,-30,o),
(659,-30,cs)
);
}
);
width = 1363;
}
);
unicode = 186;
},
{
glyphname = germandbls;
layers = (
{
layerId = m001;
shapes = (
{
closed = 1;
nodes = (
(1323,819,o),
(1082,866,o),
(814,866,cs),
(767,866,o),
(743,899,o),
(743,931,cs),
(743,963,o),
(766,995,o),
(814,995,cs),
(962,995,o),
(1132,1083,o),
(1132,1290,cs),
(1132,1500,o),
(1007,1576,o),
(859,1576,cs),
(718,1576,o),
(567,1491,o),
(567,1045,cs),
(567,176,l),
(701,176,ls),
(752,176,o),
(773,134,o),
(773,84,cs),
(773,40,o),
(746,0,o),
(699,0,cs),
(143,0,ls),
(96,0,o),
(69,40,o),
(69,84,cs),
(69,134,o),
(90,176,o),
(141,176,cs),
(333,176,l),
(333,988,ls),
(333,1578,o),
(602,1739,o),
(852,1739,cs),
(1102,1739,o),
(1337,1613,o),
(1337,1290,cs),
(1337,1109,o),
(1227,994,o),
(1099,956,c),
(1348,925,o),
(1557,778,o),
(1557,468,cs),
(1557,184,o),
(1289,0,o),
(1041,0,cs),
(984,0,o),
(952,47,o),
(952,92,cs),
(952,135,o),
(980,176,o),
(1041,176,cs),
(1189,176,o),
(1323,283,o),
(1323,469,cs)
);
}
);
width = 1708;
}
);
unicode = 223;
},
{
glyphname = ae;
layers = (
{
layerId = m001;
shapes = (
{
closed = 1;
nodes = (
(1111,1104,o),
(1251,1188,o),
(1454,1188,cs),
(1701,1188,o),
(1915,996,o),
(1915,728,cs),
(1915,637,o),
(1842,636,o),
(1752,627,c),
(1109,580,l),
(1114,338,o),
(1256,174,o),
(1477,174,cs),
(1620,174,o),
(1692,243,o),
(1762,314,cs),
(1780,331,o),
(1799,340,o),
(1821,340,cs),
(1875,340,o),
(1918,305,o),
(1918,250,cs),
(1918,85,o),
(1650,-25,o),
(1477,-25,cs),
(1268,-25,o),
(1073,86,o),
(997,269,c),
(924,54,o),
(712,-25,o),
(506,-25,cs),
(273,-25,o),
(88,88,o),
(88,307,cs),
(88,661,o),
(550,682,o),
(902,711,c),
(902,915,o),
(861,1018,o),
(651,1018,cs),
(449,1018,o),
(428,897,o),
(246,897,cs),
(190,897,o),
(148,926,o),
(148,985,cs),
(148,1146,o),
(457,1188,o),
(623,1188,cs),
(850,1188,o),
(968,1123,o),
(1029,967,c)
);
},
{
closed = 1;
nodes = (
(673,552,o),
(303,546,o),
(303,313,cs),
(303,199,o),
(400,145,o),
(516,145,cs),
(882,145,o),
(900,432,o),
(900,540,cs),
(900,568,l),
(900,576,l)
);
},
{
closed = 1;
nodes = (
(1246,1018,o),
(1105,915,o),
(1105,731,cs),
(1105,721,o),
(1105,715,o),
(1109,707,c),
(1615,747,l),
(1653,752,o),
(1689,758,o),
(1689,790,cs),
(1689,949,o),
(1566,1018,o),
(1409,1018,cs)
);
}
);
width = 1990;
}
);
unicode = 230;
},
{
glyphname = eth;
layers = (
{
layerId = m001;
shapes = (
{
closed = 1;
nodes = (
(914,149,o),
(1053,326,o),
(1053,575,cs),
(1053,832,o),
(913,1005,o),
(676,1005,cs),
(429,1005,o),
(283,834,o),
(283,575,cs),
(283,327,o),
(420,149,o),
(668,149,cs)
);
},
{
closed = 1;
nodes = (
(634,1885,o),
(749,1760,o),
(814,1704,c),
(967,1827,ls),
(990,1845,o),
(1012,1852,o),
(1031,1852,cs),
(1077,1852,o),
(1111,1812,o),
(1111,1770,cs),
(1111,1746,o),
(1100,1721,o),
(1073,1702,cs),
(924,1599,l),
(1150,1364,o),
(1297,1065,o),
(1297,690,cs),
(1297,262,o),
(1098,-22,o),
(668,-22,cs),
(304,-22,o),
(67,214,o),
(67,580,cs),
(67,945,o),
(304,1188,o),
(666,1188,cs),
(803,1188,o),
(912,1122,o),
(997,1044,c),
(962,1214,o),
(870,1359,o),
(756,1483,c),
(585,1365,ls),
(574,1358,o),
(563,1354,o),
(552,1354,cs),
(521,1354,o),
(492,1381,o),
(492,1413,cs),
(492,1431,o),
(501,1452,o),
(524,1470,cs),
(660,1580,l),
(599,1636,o),
(448,1730,o),
(448,1822,cs),
(448,1863,o),
(483,1885,o),
(526,1885,cs)
);
}
);
width = 1378;
}
);
unicode = 240;
},
{
glyphname = oslash;
layers = (
{
layerId = m001;
shapes = (
{
closed = 1;
nodes = (
(437,1018,o),
(292,836,o),
(292,582,cs),
(292,423,o),
(348,293,o),
(451,218,c),
(824,998,l),
(784,1011,o),
(740,1018,o),
(691,1018,cs)
);
},
{
closed = 1;
nodes = (
(939,145,o),
(1078,332,o),
(1078,582,cs),
(1078,738,o),
(1024,869,o),
(924,945,c),
(552,166,l),
(594,152,o),
(640,145,o),
(691,145,cs)
);
},
{
closed = 1;
nodes = (
(377,-200,o),
(366,-212,o),
(343,-212,cs),
(313,-212,o),
(276,-187,o),
(276,-156,cs),
(276,-149,o),
(278,-143,o),
(281,-137,cs),
(369,48,l),
(183,144,o),
(70,333,o),
(70,582,cs),
(70,955,o),
(321,1188,o),
(691,1188,cs),
(767,1188,o),
(837,1178,o),
(901,1158,c),
(990,1344,l),
(997,1361,o),
(1011,1369,o),
(1030,1369,cs),
(1060,1369,o),
(1095,1346,o),
(1095,1314,cs),
(1095,1308,o),
(1094,1302,o),
(1091,1296,cs),
(1005,1115,l),
(1189,1018,o),
(1299,829,o),
(1299,582,cs),
(1299,216,o),
(1055,-25,o),
(691,-25,cs),
(613,-25,o),
(541,-15,o),
(475,5,c),
(386,-181,ls)
);
}
);
width = 1363;
}
);
unicode = 248;
},
{
glyphname = thorn;
layers = (
{
layerId = m001;
shapes = (
{
closed = 1;
nodes = (
(1186,819,o),
(1068,1018,o),
(836,1018,cs),
(659,1018,o),
(533,945,o),
(453,840,c),
(453,283,l),
(538,198,o),
(662,145,o),
(830,145,cs),
(1064,145,o),
(1186,346,o),
(1186,582,cs)
);
},
{
closed = 1;
nodes = (
(1407,225,o),
(1182,-25,o),
(830,-25,cs),
(665,-25,o),
(548,29,o),
(453,109,c),
(453,-399,l),
(655,-399,ls),
(706,-399,o),
(727,-442,o),
(727,-492,cs),
(727,-536,o),
(700,-575,o),
(653,-575,cs),
(129,-575,ls),
(73,-575,o),
(47,-540,o),
(47,-489,cs),
(47,-440,o),
(71,-399,o),
(123,-399,cs),
(248,-399,l),
(248,1530,l),
(105,1495,ls),
(102,1494,o),
(97,1493,o),
(90,1493,cs),
(50,1493,o),
(8,1532,o),
(8,1573,cs),
(8,1618,o),
(28,1645,o),
(66,1657,c),
(362,1734,ls),
(373,1736,o),
(383,1738,o),
(392,1738,cs),
(452,1738,o),
(452,1679,o),
(453,1590,c),
(453,990,l),
(526,1107,o),
(672,1188,o),
(850,1188,cs),
(1201,1188,o),
(1407,935,o),
(1407,582,cs)
);
}
);
width = 1474;
}
);
unicode = 254;
},
{
glyphname = dcroat;
layers = (
{
layerId = m001;
shapes = (
{
closed = 1;
nodes = (
(311,349,o),
(429,145,o),
(661,145,cs),
(820,145,o),
(936,224,o),
(1007,324,c),
(1007,881,l),
(923,967,o),
(807,1018,o),
(651,1018,cs),
(425,1018,o),
(311,808,o),
(311,582,cs)
);
},
{
closed = 1;
nodes = (
(1392,1438,o),
(1416,1400,o),
(1416,1362,cs),
(1416,1323,o),
(1391,1283,o),
(1342,1283,cs),
(1212,1283,l),
(1212,176,l),
(1357,197,ls),
(1364,198,o),
(1373,199,o),
(1384,199,cs),
(1437,199,o),
(1472,172,o),
(1472,125,cs),
(1472,16,o),
(1319,22,o),
(1232,12,c),
(1180,4,o),
(1107,-10,o),
(1064,-10,cs),
(1017,-10,o),
(1007,32,o),
(1007,78,cs),
(1007,150,l),
(931,58,o),
(804,-25,o),
(647,-25,cs),
(294,-25,o),
(89,231,o),
(89,582,cs),
(89,924,o),
(301,1188,o),
(642,1188,cs),
(801,1188,o),
(911,1132,o),
(1007,1055,c),
(1007,1283,l),
(708,1283,ls),
(652,1283,o),
(625,1323,o),
(625,1362,cs),
(625,1400,o),
(651,1438,o),
(702,1438,cs),
(1007,1438,l),
(1007,1560,l),
(795,1560,ls),
(739,1560,o),
(712,1600,o),
(712,1639,cs),
(712,1677,o),
(738,1715,o),
(789,1715,cs),
(1141,1715,ls),
(1189,1715,o),
(1213,1677,o),
(1213,1639,cs),
(1213,1635,o),
(1212,1630,o),
(1212,1626,cs),
(1212,1438,l),
(1344,1438,ls)
);
}
);
width = 1516;
}
);
unicode = 273;
},
{
glyphname = hbar;
layers = (
{
layerId = m001;
shapes = (
{
closed = 1;
nodes = (
(823,1438,ls),
(871,1438,o),
(895,1400,o),
(895,1362,cs),
(895,1323,o),
(870,1283,o),
(821,1283,cs),
(506,1283,l),
(506,1004,l),
(584,1097,o),
(721,1188,o),
(886,1188,cs),
(1136,1188,o),
(1294,1032,o),
(1294,780,cs),
(1294,176,l),
(1457,176,ls),
(1509,176,o),
(1519,136,o),
(1519,86,cs),
(1519,46,o),
(1497,0,o),
(1455,0,cs),
(966,0,ls),
(909,0,o),
(890,32,o),
(890,84,cs),
(890,134,o),
(908,176,o),
(960,176,cs),
(1091,176,l),
(1091,762,ls),
(1091,922,o),
(1011,1018,o),
(849,1018,cs),
(696,1018,o),
(575,909,o),
(507,799,c),
(507,176,l),
(671,176,ls),
(723,176,o),
(732,136,o),
(732,86,cs),
(732,46,o),
(711,0,o),
(669,0,cs),
(180,0,ls),
(123,0,o),
(104,32,o),
(104,84,cs),
(104,134,o),
(121,176,o),
(173,176,cs),
(302,176,l),
(302,1283,l),
(187,1283,ls),
(131,1283,o),
(104,1323,o),
(104,1362,cs),
(104,1400,o),
(130,1438,o),
(181,1438,cs),
(302,1438,l),
(302,1559,l),
(187,1559,ls),
(131,1559,o),
(104,1599,o),
(104,1638,cs),
(104,1676,o),
(130,1714,o),
(181,1714,cs),
(435,1714,ls),
(483,1714,o),
(507,1676,o),
(507,1638,cs),
(507,1634,o),
(506,1631,o),
(506,1627,cs),
(506,1438,l)
);
}
);
width = 1567;
}
);
unicode = 295;
},
{
glyphname = dotlessi;
layers = (
{
layerId = m001;
shapes = (
{
closed = 1;
nodes = (
(60,135,o),
(84,176,o),
(136,176,cs),
(273,176,l),
(273,928,l),
(129,889,ls),
(126,888,o),
(122,887,o),
(115,887,cs),
(75,887,o),
(33,926,o),
(33,967,cs),
(33,1010,o),
(53,1041,o),
(91,1051,cs),
(410,1130,ls),
(414,1131,o),
(419,1133,o),
(426,1133,cs),
(456,1133,o),
(478,1115,o),
(478,1085,cs),
(478,176,l),
(631,176,ls),
(682,176,o),
(703,134,o),
(703,84,cs),
(703,40,o),
(676,0,o),
(629,0,cs),
(142,0,ls),
(86,0,o),
(60,35,o),
(60,86,cs)
);
}
);
width = 732;
}
);
unicode = 305;
},
{
glyphname = ij;
layers = (
{
layerId = m001;
shapes = (
{
closed = 1;
nodes = (
(1037,1655,o),
(1088,1735,o),
(1164,1735,cs),
(1251,1735,o),
(1324,1680,o),
(1324,1593,cs),
(1324,1507,o),
(1266,1450,o),
(1181,1450,cs),
(1105,1450,o),
(1037,1503,o),
(1037,1579,cs)
);
},
{
closed = 1;
nodes = (
(709,-496,o),
(618,-452,o),
(618,-263,cs),
(618,-254,ls),
(618,-169,o),
(634,-121,o),
(714,-121,cs),
(770,-121,o),
(804,-162,o),
(804,-231,cs),
(804,-313,l),
(857,-313,ls),
(1128,-313,o),
(1136,-143,o),
(1136,115,cs),
(1136,967,l),
(523,967,l),
(523,173,l),
(677,173,ls),
(728,173,o),
(749,131,o),
(749,81,cs),
(749,37,o),
(722,0,o),
(675,0,cs),
(187,0,ls),
(131,0,o),
(105,32,o),
(105,83,cs),
(105,132,o),
(129,173,o),
(181,173,cs),
(318,173,l),
(318,970,l),
(165,970,l),
(164,970,ls),
(122,970,o),
(79,995,o),
(79,1047,cs),
(79,1090,o),
(106,1131,o),
(166,1131,cs),
(1273,1131,ls),
(1312,1131,o),
(1341,1125,o),
(1341,1086,cs),
(1341,115,ls),
(1341,-191,o),
(1253,-496,o),
(894,-496,cs)
);
},
{
closed = 1;
nodes = (
(329,1427,o),
(261,1495,o),
(261,1579,cs),
(261,1663,o),
(329,1731,o),
(413,1731,cs),
(497,1731,o),
(564,1663,o),
(564,1579,cs),
(564,1495,o),
(497,1427,o),
(413,1427,cs)
);
}
);
width = 1469;
}
);
unicode = 307;
},
{
glyphname = kgreenlandic;
layers = (
{
layerId = m001;
shapes = (
{
closed = 1;
nodes = (
(520,619,l),
(983,957,l),
(885,957,ls),
(833,957,o),
(809,997,o),
(809,1047,cs),
(809,1098,o),
(835,1133,o),
(891,1133,cs),
(1366,1133,ls),
(1413,1133,o),
(1440,1094,o),
(1440,1050,cs),
(1440,1000,o),
(1419,957,o),
(1368,957,cs),
(1270,957,ls),
(1217,957,o),
(1180,920,o),
(1145,894,cs),
(845,677,l),
(1132,291,ls),
(1206,192,o),
(1256,188,o),
(1384,188,cs),
(1399,188,ls),
(1488,188,o),
(1515,173,o),
(1515,96,cs),
(1515,17,o),
(1466,0,o),
(1376,0,cs),
(940,0,ls),
(889,0,o),
(864,40,o),
(864,90,cs),
(864,141,o),
(889,176,o),
(946,176,cs),
(1005,176,l),
(704,584,l),
(520,452,l),
(520,176,l),
(672,176,ls),
(723,176,o),
(743,134,o),
(743,84,cs),
(743,40,o),
(717,0,o),
(670,0,cs),
(166,0,ls),
(110,0,o),
(84,35,o),
(84,86,cs),
(84,135,o),
(108,176,o),
(160,176,cs),
(315,176,l),
(315,940,l),
(80,940,ls),
(20,940,o),
(-7,985,o),
(-7,1032,cs),
(-7,1081,o),
(23,1131,o),
(77,1131,cs),
(452,1131,ls),
(489,1131,o),
(520,1120,o),
(520,1082,cs)
);
}
);
width = 1550;
}
);
unicode = 312;
},
{
glyphname = lslash;
layers = (
{
layerId = m001;
shapes = (
{
closed = 1;
nodes = (
(555,1735,o),
(580,1716,o),
(580,1686,cs),
(580,1175,l),
(757,1250,l),
(778,1256,o),
(796,1259,o),
(812,1259,cs),
(862,1259,o),
(880,1228,o),
(880,1195,cs),
(880,1160,o),
(860,1122,o),
(836,1115,c),
(580,1006,l),
(580,176,l),
(824,176,ls),
(875,176,o),
(896,134,o),
(896,84,cs),
(896,40,o),
(869,0,o),
(822,0,cs),
(154,0,ls),
(98,0,o),
(72,35,o),
(72,86,cs),
(72,135,o),
(96,176,o),
(148,176,cs),
(375,176,l),
(375,919,l),
(220,853,l),
(196,846,o),
(176,843,o),
(159,843,cs),
(107,843,o),
(88,874,o),
(88,907,cs),
(88,941,o),
(107,977,o),
(133,985,c),
(375,1088,l),
(375,1520,l),
(140,1458,l),
(134,1458,o),
(136,1456,o),
(130,1456,cs),
(88,1456,o),
(50,1501,o),
(50,1542,cs),
(50,1599,o),
(84,1609,o),
(128,1622,cs),
(513,1733,ls),
(516,1734,o),
(520,1735,o),
(527,1735,cs)
);
}
);
width = 946;
}
);
unicode = 322;
},
{
glyphname = eng;
layers = (
{
layerId = m001;
shapes = (
{
closed = 1;
nodes = (
(1111,762,ls),
(1111,922,o),
(1031,1018,o),
(869,1018,cs),
(690,1018,o),
(494,886,o),
(494,707,cs),
(494,176,l),
(640,176,ls),
(691,176,o),
(711,134,o),
(711,84,cs),
(711,40,o),
(685,0,o),
(638,0,cs),
(171,0,ls),
(115,0,o),
(89,35,o),
(89,86,cs),
(89,135,o),
(113,176,o),
(165,176,cs),
(289,176,l),
(289,979,l),
(146,944,ls),
(143,943,o),
(139,942,o),
(132,942,cs),
(92,942,o),
(50,981,o),
(50,1022,cs),
(50,1067,o),
(69,1094,o),
(107,1106,c),
(386,1186,l),
(392,1186,o),
(390,1188,o),
(396,1188,cs),
(402,1188,ls),
(430,1188,o),
(453,1170,o),
(453,1141,c),
(474,952,l),
(542,1075,o),
(718,1188,o),
(906,1188,cs),
(1156,1188,o),
(1313,1032,o),
(1313,780,cs),
(1313,118,ls),
(1313,-182,o),
(1227,-481,o),
(875,-481,cs),
(724,-481,o),
(602,-429,o),
(602,-263,cs),
(602,-186,o),
(620,-142,o),
(698,-142,cs),
(753,-142,o),
(787,-178,o),
(787,-240,c),
(805,-284,o),
(763,-312,o),
(886,-312,cs),
(1064,-312,o),
(1111,-119,o),
(1111,118,cs)
);
}
);
width = 1415;
}
);
unicode = 331;
},
{
glyphname = oe;
layers = (
{
layerId = m001;
shapes = (
{
closed = 1;
nodes = (
(1939,947,o),
(1800,1018,o),
(1660,1018,cs),
(1436,1018,o),
(1300,893,o),
(1284,700,c),
(1865,713,l),
(1902,715,o),
(1939,725,o),
(1939,756,cs)
);
},
{
closed = 1;
nodes = (
(1288,297,o),
(1463,158,o),
(1692,158,cs),
(1862,158,o),
(1942,232,o),
(2030,314,c),
(2050,331,o),
(2073,340,o),
(2096,340,cs),
(2150,340,o),
(2192,305,o),
(2192,250,cs),
(2192,79,o),
(1868,-25,o),
(1684,-25,cs),
(1460,-25,o),
(1277,68,o),
(1173,230,c),
(1075,70,o),
(904,-25,o),
(688,-25,cs),
(317,-25,o),
(67,211,o),
(67,582,cs),
(67,955,o),
(318,1188,o),
(688,1188,cs),
(903,1188,o),
(1074,1094,o),
(1172,935,c),
(1269,1093,o),
(1438,1188,o),
(1660,1188,cs),
(1928,1188,o),
(2190,985,o),
(2190,692,cs),
(2190,592,o),
(2121,590,o),
(2026,580,c),
(1288,559,l)
);
},
{
closed = 1;
nodes = (
(434,1018,o),
(289,836,o),
(289,582,cs),
(289,326,o),
(434,145,o),
(688,145,cs),
(936,145,o),
(1075,332,o),
(1075,582,cs),
(1075,833,o),
(936,1018,o),
(688,1018,cs)
);
}
);
width = 2264;
}
);
unicode = 339;
},
{
glyphname = florin;
layers = (
{
layerId = m001;
shapes = (
{
closed = 1;
nodes = (
(182,946,ls),
(126,946,o),
(100,981,o),
(100,1032,cs),
(100,1081,o),
(124,1122,o),
(176,1122,cs),
(360,1122,l),
(360,1227,ls),
(360,1580,o),
(569,1739,o),
(928,1739,cs),
(972,1739,o),
(1012,1712,o),
(1012,1665,cs),
(1012,1493,ls),
(1012,1437,o),
(977,1411,o),
(926,1411,cs),
(877,1411,o),
(835,1435,o),
(835,1487,cs),
(835,1556,l),
(622,1537,o),
(562,1449,o),
(562,1231,cs),
(562,1218,o),
(563,1205,o),
(563,1191,cs),
(565,1122,l),
(784,1122,ls),
(835,1122,o),
(856,1080,o),
(856,1030,cs),
(856,986,o),
(829,946,o),
(782,946,cs),
(563,946,l),
(565,71,ls),
(565,-282,o),
(404,-441,o),
(117,-441,cs),
(73,-441,o),
(33,-414,o),
(33,-367,cs),
(33,-195,ls),
(33,-139,o),
(68,-113,o),
(119,-113,cs),
(168,-113,o),
(210,-137,o),
(210,-189,cs),
(210,-258,l),
(327,-239,o),
(363,-151,o),
(363,67,cs),
(363,80,o),
(362,93,o),
(360,946,c)
);
}
);
width = 1042;
}
);
unicode = 402;
},
{
glyphname = uni0237;
layers = (
{
layerId = m001;
shapes = (
{
closed = 1;
nodes = (
(217,-496,o),
(128,-452,o),
(128,-263,cs),
(128,-240,o),
(124,-221,o),
(124,-203,cs),
(124,-124,o),
(142,-80,o),
(222,-80,cs),
(278,-80,o),
(312,-117,o),
(312,-180,cs),
(312,-313,l),
(365,-313,ls),
(636,-313,o),
(644,-143,o),
(644,115,cs),
(644,983,l),
(500,944,ls),
(497,943,o),
(493,942,o),
(486,942,cs),
(446,942,o),
(404,981,o),
(404,1022,cs),
(404,1065,o),
(423,1096,o),
(461,1106,cs),
(781,1186,ls),
(785,1187,o),
(790,1188,o),
(797,1188,cs),
(827,1188,o),
(849,1174,o),
(849,1143,cs),
(849,115,ls),
(849,-191,o),
(761,-496,o),
(402,-496,cs)
);
}
);
width = 977;
}
);
unicode = 567;
},
{
glyphname = uniFB01;
layers = (
{
layerId = m001;
shapes = (
{
closed = 1;
nodes = (
(1130,135,o),
(1154,176,o),
(1206,176,cs),
(1343,176,l),
(1343,946,l),
(563,946,l),
(565,176,l),
(817,176,ls),
(868,176,o),
(889,134,o),
(889,84,cs),
(889,40,o),
(862,0,o),
(815,0,cs),
(145,0,ls),
(89,0,o),
(63,35,o),
(63,86,cs),
(63,135,o),
(87,176,o),
(139,176,cs),
(360,176,l),
(360,946,l),
(182,946,ls),
(126,946,o),
(100,981,o),
(100,1032,cs),
(100,1081,o),
(124,1122,o),
(176,1122,cs),
(360,1122,l),
(360,1227,ls),
(360,1580,o),
(569,1739,o),
(928,1739,cs),
(972,1739,o),
(1012,1712,o),
(1012,1665,cs),
(1012,1493,ls),
(1012,1437,o),
(977,1411,o),
(926,1411,cs),
(877,1411,o),
(835,1435,o),
(835,1487,cs),
(835,1556,l),
(663,1541,o),
(561,1475,o),
(561,1284,c),
(565,1122,l),
(1497,1122,ls),
(1528,1122,o),
(1548,1105,o),
(1548,1075,cs),
(1548,176,l),
(1702,176,ls),
(1753,176,o),
(1773,134,o),
(1773,84,cs),
(1773,40,o),
(1747,0,o),
(1700,0,cs),
(1212,0,ls),
(1156,0,o),
(1130,35,o),
(1130,86,cs)
);
},
{
closed = 1;
nodes = (
(1354,1427,o),
(1286,1495,o),
(1286,1579,cs),
(1286,1663,o),
(1354,1731,o),
(1438,1731,cs),
(1522,1731,o),
(1589,1663,o),
(1589,1579,cs),
(1589,1495,o),
(1522,1427,o),
(1438,1427,cs)
);
}
);
width = 1822;
}
);
unicode = 64257;
},
{
glyphname = uniFB02;
layers = (
{
layerId = m001;
shapes = (
{
closed = 1;
nodes = (
(1583,1739,o),
(1607,1720,o),
(1607,1690,cs),
(1607,176,l),
(1851,176,ls),
(1902,176,o),
(1923,134,o),
(1923,84,cs),
(1923,40,o),
(1896,0,o),
(1849,0,cs),
(1182,0,ls),
(1126,0,o),
(1100,35,o),
(1100,86,cs),
(1100,135,o),
(1123,176,o),
(1175,176,cs),
(1403,176,l),
(1403,1556,l),
(815,1556,ls),
(607,1556,o),
(565,1432,o),
(565,1191,cs),
(565,1122,l),
(835,1122,ls),
(886,1122,o),
(907,1080,o),
(907,1030,cs),
(907,986,o),
(880,946,o),
(833,946,cs),
(563,946,l),
(563,176,l),
(817,176,ls),
(868,176,o),
(889,134,o),
(889,84,cs),
(889,40,o),
(862,0,o),
(815,0,cs),
(145,0,ls),
(89,0,o),
(63,35,o),
(63,86,cs),
(63,135,o),
(87,176,o),
(139,176,cs),
(360,176,l),
(360,946,l),
(182,946,ls),
(126,946,o),
(100,981,o),
(100,1032,cs),
(100,1081,o),
(124,1122,o),
(176,1122,cs),
(360,1122,l),
(360,1227,ls),
(360,1580,o),
(569,1739,o),
(928,1739,cs),
(1554,1739,ls)
);
}
);
width = 1972;
}
);
unicode = 64258;
},
{
glyphname = mu;
layers = (
{
layerId = m001;
shapes = (
{
closed = 1;
nodes = (
(343,-502,o),
(289,-454,o),
(289,-375,cs),
(289,979,l),
(146,944,ls),
(143,943,o),
(139,942,o),
(132,942,cs),
(92,942,o),
(50,981,o),
(50,1022,cs),
(50,1065,o),
(69,1096,o),
(107,1106,cs),
(427,1186,ls),
(431,1187,o),
(436,1188,o),
(443,1188,cs),
(474,1188,o),
(494,1171,o),
(494,1139,cs),
(494,401,ls),
(494,254,o),
(561,145,o),
(703,145,cs),
(875,145,o),
(1026,236,o),
(1082,354,c),
(1082,979,l),
(939,944,ls),
(936,943,o),
(931,942,o),
(924,942,cs),
(884,942,o),
(842,981,o),
(842,1022,cs),
(842,1065,o),
(862,1096,o),
(900,1106,cs),
(1219,1186,ls),
(1223,1187,o),
(1229,1188,o),
(1236,1188,cs),
(1267,1188,o),
(1287,1171,o),
(1287,1139,cs),
(1287,190,l),
(1438,190,ls),
(1483,190,o),
(1508,154,o),
(1508,109,cs),
(1508,66,o),
(1489,35,o),
(1451,25,c),
(1178,-4,l),
(1139,-4,o),
(1117,18,o),
(1107,84,cs),
(1092,182,l),
(1014,67,o),
(840,-25,o),
(666,-25,cs),
(584,-25,o),
(494,25,o),
(447,100,c),
(463,-44,o),
(486,-227,o),
(486,-371,cs),
(486,-463,o),
(442,-502,o),
(395,-502,cs)
);
}
);
width = 1555;
}
);
unicode = 956;
},
{
glyphname = circumflex;
layers = (
{
layerId = m001;
shapes = (
{
closed = 1;
nodes = (
(315,1932,o),
(334,1926,o),
(342,1915,cs),
(612,1501,l),
(619,1493,o),
(622,1484,o),
(622,1476,cs),
(622,1452,o),
(595,1433,o),
(568,1433,cs),
(556,1433,o),
(542,1435,o),
(534,1446,cs),
(296,1752,l),
(58,1446,ls),
(50,1435,o),
(36,1433,o),
(24,1433,cs),
(-3,1433,o),
(-30,1452,o),
(-30,1476,cs),
(-30,1484,o),
(-27,1493,o),
(-20,1501,c),
(250,1915,ls),
(258,1926,o),
(277,1932,o),
(296,1932,cs)
);
}
);
width = 654;
}
);
unicode = 710;
},
{
glyphname = caron;
layers = (
{
layerId = m001;
shapes = (
{
closed = 1;
nodes = (
(277,1433,o),
(258,1439,o),
(250,1450,cs),
(-20,1864,l),
(-27,1872,o),
(-30,1881,o),
(-30,1889,cs),
(-30,1913,o),
(-3,1932,o),
(24,1932,cs),
(36,1932,o),
(50,1930,o),
(58,1919,cs),
(296,1613,l),
(534,1919,ls),
(542,1930,o),
(556,1932,o),
(568,1932,cs),
(595,1932,o),
(622,1913,o),
(622,1889,cs),
(622,1881,o),
(619,1872,o),
(612,1864,c),
(342,1450,ls),
(334,1439,o),
(315,1433,o),
(296,1433,cs)
);
}
);
width = 654;
}
);
unicode = 711;
},
{
glyphname = uni0307;
layers = (
{
layerId = m001;
shapes = (
{
closed = 1;
nodes = (
(300,129,o),
(240,50,o),
(151,50,cs),
(54,50,o),
(1,129,o),
(1,206,cs),
(1,279,o),
(49,351,o),
(153,351,cs),
(245,351,o),
(300,280,o),
(300,206,cs)
);
}
);
width = 322;
}
);
unicode = 775;
},
{
glyphname = uni030F;
layers = (
{
layerId = m001;
shapes = (
{
closed = 1;
nodes = (
(426,1870,o),
(384,1827,o),
(384,1786,cs),
(384,1768,o),
(392,1753,o),
(410,1741,cs),
(568,1642,o),
(745,1527,o),
(908,1434,cs),
(915,1430,o),
(922,1427,o),
(927,1427,cs),
(953,1427,o),
(976,1454,o),
(976,1479,cs),
(976,1493,o),
(970,1502,o),
(959,1509,cs),
(809,1609,o),
(645,1738,o),
(509,1855,cs),
(498,1865,o),
(484,1870,o),
(468,1870,cs)
);
},
{
closed = 1;
nodes = (
(51,1870,o),
(9,1827,o),
(9,1786,cs),
(9,1768,o),
(18,1753,o),
(36,1741,cs),
(194,1642,o),
(370,1527,o),
(533,1434,cs),
(540,1430,o),
(547,1427,o),
(552,1427,cs),
(578,1427,o),
(601,1454,o),
(601,1479,cs),
(601,1493,o),
(595,1502,o),
(584,1509,cs),
(434,1609,o),
(270,1738,o),
(134,1855,cs),
(123,1865,o),
(109,1870,o),
(93,1870,cs)
);
}
);
width = 862;
}
);
unicode = 783;
},
{
glyphname = uni0311;
layers = (
{
layerId = m001;
shapes = (
{
closed = 1;
nodes = (
(27,1382,o),
(0,1399,o),
(0,1423,cs),
(0,1635,o),
(148,1745,o),
(296,1745,cs),
(444,1745,o),
(592,1634,o),
(592,1423,cs),
(592,1399,o),
(565,1382,o),
(539,1382,cs),
(521,1382,o),
(503,1390,o),
(496,1410,cs),
(450,1531,o),
(377,1583,o),
(296,1583,cs),
(215,1583,o),
(142,1531,o),
(96,1410,cs),
(89,1390,o),
(71,1382,o),
(53,1382,cs)
);
}
);
width = 654;
}
);
unicode = 785;
},
{
glyphname = uni0326;
layers = (
{
layerId = m001;
shapes = (
{
closed = 1;
nodes = (
(40,-676.8,o),
(20,-648.8,o),
(20,-613.8,cs),
(20,-485.8,o),
(304,-562.8,o),
(304,-374.8,c),
(274,-384.8,o),
(246,-388.8,o),
(220,-388.8,cs),
(117,-388.8,o),
(58,-315.8,o),
(58,-251.8,cs),
(58,-137.8,o),
(136,-68.8,o),
(279,-68.8,cs),
(404,-68.8,o),
(467,-170.8,o),
(467,-292.8,cs),
(467,-509.8,o),
(320,-676.8,o),
(81,-676.8,cs)
);
}
);
width = 501;
}
);
unicode = 806;
},
{
glyphname = zero;
layers = (
{
layerId = m001;
shapes = (
{
closed = 1;
nodes = (
(120,1290,o),
(270,1739,o),
(711,1739,cs),
(1152,1739,o),
(1302,1289,o),
(1302,856,cs),
(1302,422,o),
(1152,-25,o),
(711,-25,cs),
(270,-25,o),
(120,422,o),
(120,856,cs)
);
},
{
closed = 1;
nodes = (
(335,554,o),
(407,141,o),
(711,141,cs),
(1013,141,o),
(1087,561,o),
(1087,856,cs),
(1087,1153,o),
(1009,1569,o),
(711,1569,cs),
(414,1569,o),
(335,1146,o),
(335,856,cs)
);
}
);
width = 1422;
}
);
unicode = 48;
},
{
glyphname = one;
layers = (
{
layerId = m001;
shapes = (
{
closed = 1;
nodes = (
(159,131,o),
(182,170,o),
(232,170,cs),
(471,170,l),
(471,1527,l),
(307,1514,l),
(254,1514,o),
(225,1551,o),
(225,1602,cs),
(225,1647,o),
(249,1684,o),
(290,1687,cs),
(620,1716,l),
(666,1716,o),
(686,1706,o),
(686,1651,cs),
(686,170,l),
(860,170,ls),
(909,170,o),
(931,130,o),
(931,81,cs),
(931,40,o),
(903,0,o),
(858,0,cs),
(237,0,ls),
(182,0,o),
(159,35,o),
(159,84,cs)
);
}
);
width = 1089;
}
);
unicode = 49;
},
{
glyphname = two;
layers = (
{
layerId = m001;
shapes = (
{
closed = 1;
nodes = (
(1131,845,o),
(494,655,o),
(342,225,c),
(981,225,l),
(1068,422,l),
(1083,463,o),
(1116,496,o),
(1165,496,cs),
(1206,496,o),
(1237,469,o),
(1237,424,cs),
(1237,411,o),
(1234,400,o),
(1232,388,cs),
(1169,109,l),
(1157,63,o),
(1136,35,o),
(1090,35,cs),
(155,35,l),
(146,174,l),
(146,246,o),
(164,319,o),
(200,393,cs),
(328,660,o),
(898,1046,o),
(898,1294,cs),
(898,1449,o),
(746,1514,o),
(599,1514,cs),
(459,1514,o),
(385,1468,o),
(310,1412,cs),
(293,1400,o),
(274,1393,o),
(253,1393,cs),
(202,1393,o),
(161,1426,o),
(161,1479,cs),
(161,1500,o),
(173,1525,o),
(199,1551,cs),
(285,1639,o),
(453,1701,o),
(630,1704,c),
(644,1704,ls),
(937,1704,o),
(1131,1542,o),
(1131,1288,cs)
);
}
);
width = 1297;
}
);
unicode = 50;
},
{
glyphname = three;
layers = (
{
layerId = m001;
shapes = (
{
closed = 1;
nodes = (
(976,738,o),
(874,855,o),
(704,855,cs),
(659,855,o),
(623,843,o),
(578,843,cs),
(528,843,o),
(493,876,o),
(493,931,cs),
(493,948,o),
(504,964,o),
(525,981,cs),
(640,1075,o),
(911,1149,o),
(911,1348,cs),
(911,1455,o),
(821,1533,o),
(710,1533,cs),
(571,1533,o),
(473,1463,o),
(386,1407,cs),
(371,1397,o),
(353,1391,o),
(334,1391,cs),
(294,1391,o),
(262,1419,o),
(262,1459,cs),
(262,1600,o),
(562,1707,o),
(713,1707,cs),
(932,1707,o),
(1106,1587,o),
(1106,1374,cs),
(1106,1147,o),
(943,1078,o),
(796,993,c),
(776,981,l),
(1036,964,o),
(1204,830,o),
(1204,561,cs),
(1204,237,o),
(950,9,o),
(617,9,cs),
(465,9,o),
(174,56,o),
(174,197,cs),
(174,242,o),
(208,270,o),
(254,270,cs),
(273,270,o),
(293,267,o),
(312,257,cs),
(391,218,o),
(495,186,o),
(613,186,cs),
(832,186,o),
(976,353,o),
(976,569,cs)
);
}
);
width = 1335;
}
);
unicode = 51;
},
{
glyphname = four;
layers = (
{
layerId = m001;
shapes = (
{
closed = 1;
nodes = (
(319,713,l),
(850,713,l),
(850,1376,l)
);
},
{
closed = 1;
nodes = (
(1351,76,o),
(1326,34,o),
(1281,34,cs),
(578,34,ls),
(533,34,o),
(508,76,o),
(508,117,cs),
(508,166,o),
(528,204,o),
(577,204,cs),
(850,204,l),
(850,562,l),
(157,562,ls),
(117,562,o),
(94,598,o),
(94,634,cs),
(94,662,o),
(102,686,o),
(115,699,c),
(388,1039,o),
(664,1373,o),
(941,1708,cs),
(951,1721,o),
(997,1730,o),
(1014,1730,cs),
(1055,1730,o),
(1051,1688,o),
(1051,1647,cs),
(1051,713,l),
(1347,713,ls),
(1392,713,o),
(1408,679,o),
(1408,634,cs),
(1408,598,o),
(1384,562,o),
(1344,562,cs),
(1051,562,l),
(1051,204,l),
(1283,204,ls),
(1332,204,o),
(1351,166,o),
(1351,117,cs)
);
}
);
width = 1484;
}
);
unicode = 52;
},
{
glyphname = five;
layers = (
{
layerId = m001;
shapes = (
{
closed = 1;
nodes = (
(1042,1660,o),
(1011,1516,o),
(930,1516,cs),
(441,1516,ls),
(392,1516,o),
(373,1447,o),
(371,1416,cs),
(345,949,l),
(401,1019,o),
(526,1071,o),
(643,1071,cs),
(957,1071,o),
(1155,893,o),
(1155,580,cs),
(1155,183,o),
(823,-78,o),
(426,-78,cs),
(285,-78,o),
(88,-50,o),
(88,90,cs),
(88,152,o),
(125,205,o),
(188,205,cs),
(325,205,o),
(399,117,o),
(539,117,cs),
(754,117,o),
(938,269,o),
(938,535,cs),
(938,709,o),
(855,848,o),
(605,848,cs),
(414,848,o),
(348,729,o),
(242,729,cs),
(220,729,o),
(197,734,o),
(170,746,c),
(229,1626,l),
(229,1713,o),
(332,1714,o),
(428,1714,cs),
(872,1712,l),
(897,1769,o),
(942,1801,o),
(977,1801,cs),
(1013,1801,o),
(1042,1784,o),
(1042,1746,cs)
);
}
);
width = 1264;
}
);
unicode = 53;
},
{
glyphname = six;
layers = (
{
layerId = m001;
shapes = (
{
closed = 1;
nodes = (
(1280,188,o),
(1056,-25,o),
(725,-25,cs),
(334,-25,o),
(153,234,o),
(153,623,cs),
(153,1180,o),
(436,1536,o),
(741,1817,c),
(761,1837,o),
(793,1860,o),
(833,1860,cs),
(898,1860,o),
(936,1835,o),
(936,1769,cs),
(936,1738,o),
(924,1712,o),
(899,1692,cs),
(673,1502,o),
(487,1247,o),
(387,924,c),
(472,1013,o),
(594,1085,o),
(754,1085,cs),
(1083,1085,o),
(1280,853,o),
(1280,522,cs)
);
},
{
closed = 1;
nodes = (
(950,127,o),
(1075,291,o),
(1075,518,cs),
(1075,747,o),
(954,909,o),
(729,909,cs),
(504,909,o),
(375,745,o),
(375,518,cs),
(375,288,o),
(500,127,o),
(725,127,cs)
);
}
);
width = 1353;
}
);
unicode = 54;
},
{
glyphname = seven;
layers = (
{
layerId = m001;
shapes = (
{
closed = 1;
nodes = (
(508,749,o),
(801,1095,o),
(1022,1518,c),
(324,1518,l),
(289,1343,l),
(272,1301,o),
(237,1268,o),
(187,1268,cs),
(138,1268,o),
(92,1292,o),
(92,1341,cs),
(92,1355,o),
(94,1368,o),
(98,1380,c),
(150,1635,l),
(164,1683,o),
(184,1713,o),
(232,1713,cs),
(1180,1712,ls),
(1220,1712,o),
(1266,1683,o),
(1266,1637,cs),
(1266,1629,o),
(1265,1621,o),
(1262,1612,cs),
(1103,1101,o),
(750,801,o),
(750,121,cs),
(750,32,o),
(710,-25,o),
(631,-25,cs),
(549,-25,o),
(508,35,o),
(508,123,cs)
);
}
);
width = 1365;
}
);
unicode = 55;
},
{
glyphname = eight;
layers = (
{
layerId = m001;
shapes = (
{
closed = 1;
nodes = (
(895,1737,o),
(1145,1600,o),
(1145,1337,cs),
(1145,1107,o),
(983,978,o),
(829,901,c),
(1019,800,o),
(1216,703,o),
(1216,418,cs),
(1216,110,o),
(968,-25,o),
(661,-25,cs),
(337,-25,o),
(100,119,o),
(100,442,cs),
(100,677,o),
(251,805,o),
(407,883,c),
(247,981,o),
(137,1084,o),
(137,1313,cs),
(137,1578,o),
(355,1737,o),
(627,1737,cs)
);
},
{
closed = 1;
nodes = (
(859,145,o),
(1012,236,o),
(1012,418,cs),
(1012,673,o),
(715,713,o),
(549,805,c),
(412,727,o),
(301,616,o),
(301,430,cs),
(301,231,o),
(469,145,o),
(668,145,cs)
);
},
{
closed = 1;
nodes = (
(471,1581,o),
(336,1492,o),
(336,1327,cs),
(336,1126,o),
(547,1039,o),
(688,973,c),
(830,1042,o),
(940,1146,o),
(940,1325,cs),
(940,1499,o),
(809,1581,o),
(639,1581,cs)
);
}
);
width = 1316;
}
);
unicode = 56;
},
{
glyphname = nine;
layers = (
{
layerId = m001;
shapes = (
{
closed = 1;
nodes = (
(124,1525,o),
(340,1739,o),
(671,1739,cs),
(1062,1739,o),
(1242,1481,o),
(1242,1092,cs),
(1242,536,o),
(950,193,o),
(655,-102,cs),
(635,-122,o),
(602,-145,o),
(562,-145,cs),
(497,-145,o),
(458,-108,o),
(458,-43,cs),
(458,57,o),
(585,132,o),
(646,195,cs),
(788,343,o),
(947,524,o),
(988,770,c),
(902,710,o),
(791,659,o),
(651,659,cs),
(333,659,o),
(124,872,o),
(124,1192,cs)
);
},
{
closed = 1;
nodes = (
(446,1587,o),
(321,1424,o),
(321,1196,cs),
(321,972,o),
(451,825,o),
(671,825,cs),
(891,825,o),
(1021,974,o),
(1021,1196,cs),
(1021,1425,o),
(895,1587,o),
(671,1587,cs)
);
}
);
width = 1367;
}
);
unicode = 57;
},
{
glyphname = uni00B2;
layers = (
{
layerId = m001;
shapes = (
{
closed = 1;
nodes = (
(1013,1106,o),
(517,955,o),
(471,684,c),
(920,684,l),
(982,826,l),
(993,856,o),
(1017,879,o),
(1052,879,cs),
(1082,879,o),
(1104,859,o),
(1104,827,cs),
(1104,818,o),
(1101,810,o),
(1100,801,c),
(1055,601,l),
(1046,568,o),
(1031,547,o),
(998,547,cs),
(325,547,l),
(319,647,l),
(319,699,o),
(331,752,o),
(357,805,cs),
(455,1009,o),
(847,1294,o),
(847,1486,cs),
(847,1580,o),
(740,1612,o),
(645,1612,cs),
(544,1612,o),
(491,1579,o),
(437,1539,cs),
(425,1530,o),
(411,1525,o),
(396,1525,cs),
(359,1525,o),
(329,1549,o),
(329,1587,cs),
(329,1602,o),
(338,1620,o),
(357,1639,cs),
(419,1702,o),
(534,1749,o),
(661,1749,cs),
(842,1749,o),
(1013,1674,o),
(1013,1493,cs)
);
}
);
width = 1353;
}
);
unicode = 178;
},
{
glyphname = uni00B3;
layers = (
{
layerId = m001;
shapes = (
{
closed = 1;
nodes = (
(743,1048,o),
(670,1132,o),
(548,1132,cs),
(516,1132,o),
(489,1123,o),
(457,1123,cs),
(421,1123,o),
(396,1146,o),
(396,1186,cs),
(396,1198,o),
(404,1210,o),
(419,1222,cs),
(502,1290,o),
(697,1344,o),
(697,1487,cs),
(697,1564,o),
(632,1620,o),
(552,1620,cs),
(452,1620,o),
(382,1569,o),
(319,1529,cs),
(308,1522,o),
(295,1518,o),
(281,1518,cs),
(252,1518,o),
(229,1538,o),
(229,1567,cs),
(229,1669,o),
(445,1745,o),
(554,1745,cs),
(712,1745,o),
(837,1658,o),
(837,1505,cs),
(837,1342,o),
(720,1292,o),
(614,1231,c),
(599,1222,l),
(786,1210,o),
(908,1114,o),
(908,920,cs),
(908,687,o),
(725,523,o),
(485,523,cs),
(376,523,o),
(166,556,o),
(166,658,cs),
(166,690,o),
(191,711,o),
(224,711,cs),
(238,711,o),
(251,708,o),
(265,701,cs),
(322,673,o),
(397,650,o),
(482,650,cs),
(640,650,o),
(743,770,o),
(743,926,cs)
);
}
);
width = 1111;
}
);
unicode = 179;
},
{
glyphname = uni00B9;
layers = (
{
layerId = m001;
shapes = (
{
closed = 1;
nodes = (
(384,989,l),
(790,989,l),
(790,1485,l)
);
},
{
closed = 1;
nodes = (
(1127,530,o),
(1108,500,o),
(1076,500,cs),
(594,500,ls),
(562,500,o),
(543,530,o),
(543,560,cs),
(543,595,o),
(558,622,o),
(593,622,cs),
(790,622,l),
(790,880,l),
(267,880,ls),
(238,880,o),
(222,906,o),
(222,932,cs),
(222,952,o),
(228,970,o),
(237,979,c),
(434,1224,o),
(632,1464,o),
(831,1705,cs),
(838,1714,o),
(849,1721,o),
(861,1721,cs),
(891,1721,o),
(923,1691,o),
(923,1661,cs),
(923,989,l),
(1124,989,ls),
(1156,989,o),
(1168,964,o),
(1168,932,cs),
(1168,906,o),
(1151,880,o),
(1122,880,cs),
(923,880,l),
(923,622,l),
(1078,622,ls),
(1113,622,o),
(1127,595,o),
(1127,560,cs)
);
}
);
width = 1272;
}
);
unicode = 185;
},
{
glyphname = onequarter;
layers = (
{
layerId = m001;
shapes = (
{
closed = 1;
nodes = (
(1378,491,l),
(1784,491,l),
(1784,987,l)
);
},
{
closed = 1;
nodes = (
(2121,32,o),
(2102,2,o),
(2070,2,cs),
(1588,2,ls),
(1556,2,o),
(1537,32,o),
(1537,62,cs),
(1537,97,o),
(1552,124,o),
(1587,124,cs),
(1784,124,l),
(1784,382,l),
(1261,382,ls),
(1232,382,o),
(1216,408,o),
(1216,434,cs),
(1216,454,o),
(1222,472,o),
(1231,481,c),
(1428,726,o),
(1626,966,o),
(1825,1207,cs),
(1832,1216,o),
(1843,1223,o),
(1855,1223,cs),
(1885,1223,o),
(1917,1193,o),
(1917,1163,cs),
(1917,491,l),
(2118,491,ls),
(2150,491,o),
(2162,466,o),
(2162,434,cs),
(2162,408,o),
(2145,382,o),
(2116,382,cs),
(1917,382,l),
(1917,124,l),
(2072,124,ls),
(2107,124,o),
(2121,97,o),
(2121,62,cs)
);
},
{
closed = 1;
nodes = (
(75,575,o),
(92,603,o),
(128,603,cs),
(300,603,l),
(300,1580,l),
(182,1570,l),
(144,1570,o),
(123,1597,o),
(123,1634,cs),
(123,1666,o),
(140,1693,o),
(170,1695,cs),
(407,1716,l),
(440,1716,o),
(455,1709,o),
(455,1669,cs),
(455,603,l),
(580,603,ls),
(615,603,o),
(631,574,o),
(631,539,cs),
(631,509,o),
(611,480,o),
(579,480,cs),
(132,480,ls),
(92,480,o),
(75,506,o),
(75,541,cs)
);
},
{
closed = 1;
nodes = (
(532,-93,o),
(491,-58,o),
(491,-15,cs),
(491,-6,o),
(493,1,o),
(499,9,cs),
(1575,1757,ls),
(1585,1774,o),
(1602,1783,o),
(1627,1783,cs),
(1661,1783,o),
(1701,1750,o),
(1701,1705,cs),
(1701,1697,o),
(1698,1692,o),
(1694,1684,cs),
(625,-61,l),
(612,-80,o),
(597,-93,o),
(567,-93,cs)
);
}
);
width = 2236;
}
);
unicode = 188;
},
{
glyphname = onehalf;
layers = (
{
layerId = m001;
shapes = (
{
closed = 1;
nodes = (
(74,575,o),
(91,603,o),
(127,603,cs),
(299,603,l),
(299,1580,l),
(181,1570,l),
(143,1570,o),
(122,1597,o),
(122,1634,cs),
(122,1666,o),
(139,1693,o),
(169,1695,cs),
(406,1716,l),
(439,1716,o),
(454,1709,o),
(454,1669,cs),
(454,603,l),
(579,603,ls),
(614,603,o),
(630,574,o),
(630,539,cs),
(630,509,o),
(610,480,o),
(578,480,cs),
(131,480,ls),
(91,480,o),
(74,506,o),
(74,541,cs)
);
},
{
closed = 1;
nodes = (
(531,-93,o),
(490,-58,o),
(490,-15,cs),
(490,-6,o),
(492,1,o),
(498,9,cs),
(1574,1757,ls),
(1584,1774,o),
(1601,1783,o),
(1626,1783,cs),
(1660,1783,o),
(1700,1750,o),
(1700,1705,cs),
(1700,1697,o),
(1697,1692,o),
(1693,1684,cs),
(624,-61,l),
(611,-80,o),
(596,-93,o),
(566,-93,cs)
);
},
{
closed = 1;
nodes = (
(2175,561,o),
(1679,410,o),
(1633,139,c),
(2082,139,l),
(2144,281,l),
(2155,311,o),
(2179,334,o),
(2214,334,cs),
(2244,334,o),
(2266,314,o),
(2266,282,cs),
(2266,273,o),
(2263,265,o),
(2262,256,c),
(2217,56,l),
(2208,23,o),
(2193,2,o),
(2160,2,cs),
(1487,2,l),
(1481,102,l),
(1481,154,o),
(1493,207,o),
(1519,260,cs),
(1617,464,o),
(2009,749,o),
(2009,941,cs),
(2009,1035,o),
(1902,1067,o),
(1807,1067,cs),
(1706,1067,o),
(1653,1034,o),
(1599,994,cs),
(1587,985,o),
(1573,980,o),
(1558,980,cs),
(1521,980,o),
(1491,1004,o),
(1491,1042,cs),
(1491,1057,o),
(1500,1075,o),
(1519,1094,cs),
(1581,1157,o),
(1696,1204,o),
(1823,1204,cs),
(2004,1204,o),
(2175,1129,o),
(2175,948,cs)
);
}
);
width = 2342;
}
);
unicode = 189;
},
{
glyphname = threequarters;
layers = (
{
layerId = m001;
shapes = (
{
closed = 1;
nodes = (
(1458,491,l),
(1864,491,l),
(1864,987,l)
);
},
{
closed = 1;
nodes = (
(2201,32,o),
(2182,2,o),
(2150,2,cs),
(1668,2,ls),
(1636,2,o),
(1617,32,o),
(1617,62,cs),
(1617,97,o),
(1632,124,o),
(1667,124,cs),
(1864,124,l),
(1864,382,l),
(1341,382,ls),
(1312,382,o),
(1296,408,o),
(1296,434,cs),
(1296,454,o),
(1302,472,o),
(1311,481,c),
(1508,726,o),
(1706,966,o),
(1905,1207,cs),
(1912,1216,o),
(1923,1223,o),
(1935,1223,cs),
(1965,1223,o),
(1997,1193,o),
(1997,1163,cs),
(1997,491,l),
(2198,491,ls),
(2230,491,o),
(2242,466,o),
(2242,434,cs),
(2242,408,o),
(2225,382,o),
(2196,382,cs),
(1997,382,l),
(1997,124,l),
(2152,124,ls),
(2187,124,o),
(2201,97,o),
(2201,62,cs)
);
},
{
closed = 1;
nodes = (
(612,-93,o),
(571,-58,o),
(571,-15,cs),
(571,-6,o),
(573,1,o),
(579,9,cs),
(1655,1757,ls),
(1665,1774,o),
(1682,1783,o),
(1707,1783,cs),
(1741,1783,o),
(1781,1750,o),
(1781,1705,cs),
(1781,1697,o),
(1778,1692,o),
(1774,1684,cs),
(705,-61,l),
(692,-80,o),
(677,-93,o),
(647,-93,cs)
);
},
{
closed = 1;
nodes = (
(653,1041,o),
(580,1125,o),
(458,1125,cs),
(426,1125,o),
(399,1116,o),
(367,1116,cs),
(331,1116,o),
(306,1139,o),
(306,1179,cs),
(306,1191,o),
(314,1203,o),
(329,1215,cs),
(412,1283,o),
(607,1337,o),
(607,1480,cs),
(607,1557,o),
(542,1613,o),
(462,1613,cs),
(362,1613,o),
(292,1562,o),
(229,1522,cs),
(218,1515,o),
(205,1511,o),
(191,1511,cs),
(162,1511,o),
(139,1531,o),
(139,1560,cs),
(139,1662,o),
(355,1738,o),
(464,1738,cs),
(622,1738,o),
(747,1651,o),
(747,1498,cs),
(747,1335,o),
(630,1285,o),
(524,1224,c),
(509,1215,l),
(696,1203,o),
(818,1107,o),
(818,913,cs),
(818,680,o),
(635,516,o),
(395,516,cs),
(286,516,o),
(76,549,o),
(76,651,cs),
(76,683,o),
(101,704,o),
(134,704,cs),
(148,704,o),
(161,701,o),
(175,694,cs),
(232,666,o),
(307,643,o),
(392,643,cs),
(550,643,o),
(653,763,o),
(653,919,cs)
);
}
);
width = 2316;
}
);
unicode = 190;
},
{
glyphname = underscore;
layers = (
{
layerId = m001;
shapes = (
{
closed = 1;
nodes = (
(1130,213,o),
(1178,165,o),
(1178,107,cs),
(1178,48,o),
(1130,1,o),
(1072,1,cs),
(165,1,ls),
(106,1,o),
(59,48,o),
(59,107,cs),
(59,165,o),
(106,213,o),
(165,213,cs),
(1072,213,ls)
);
}
);
width = 1237;
}
);
unicode = 95;
},
{
glyphname = hyphen;
layers = (
{
layerId = m001;
shapes = (
{
closed = 1;
nodes = (
(194,770,o),
(240,817,o),
(296,817,cs),
(1038,817,ls),
(1094,817,o),
(1140,770,o),
(1140,715,cs),
(1140,658,o),
(1095,612,o),
(1038,612,cs),
(296,612,ls),
(239,612,o),
(194,658,o),
(194,715,cs)
);
}
);
width = 1333;
}
);
unicode = 45;
},
{
glyphname = endash;
layers = (
{
layerId = m001;
shapes = (
{
closed = 1;
nodes = (
(1130,781,o),
(1178,733,o),
(1178,675,cs),
(1178,616,o),
(1130,569,o),
(1072,569,cs),
(165,569,ls),
(106,569,o),
(59,616,o),
(59,675,cs),
(59,733,o),
(106,781,o),
(165,781,cs),
(1072,781,ls)
);
}
);
width = 1237;
}
);
unicode = 8211;
},
{
glyphname = emdash;
layers = (
{
layerId = m001;
shapes = (
{
closed = 1;
nodes = (
(1398,781,o),
(1446,733,o),
(1446,675,cs),
(1446,616,o),
(1398,569,o),
(1340,569,cs),
(105,569,ls),
(46,569,o),
(-1,616,o),
(-1,675,cs),
(-1,733,o),
(46,781,o),
(105,781,cs),
(1340,781,ls)
);
}
);
width = 1449;
}
);
unicode = 8212;
},
{
glyphname = parenleft;
layers = (
{
layerId = m001;
shapes = (
{
closed = 1;
nodes = (
(715,-486,o),
(665,-526,o),
(611,-526,cs),
(588,-526,o),
(558,-511,o),
(523,-480,cs),
(250,-239,o),
(82,271,o),
(82,776,cs),
(82,1239,o),
(224,1627,o),
(413,1902,cs),
(459,1969,o),
(533,2079,o),
(611,2079,cs),
(665,2079,o),
(715,2039,o),
(715,1985,cs),
(715,1962,o),
(705,1938,o),
(686,1915,cs),
(466,1660,o),
(305,1243,o),
(305,776,cs),
(305,308,o),
(467,-107,o),
(686,-362,cs),
(705,-385,o),
(715,-409,o),
(715,-432,cs)
);
}
);
width = 789;
}
);
unicode = 40;
},
{
glyphname = bracketleft;
layers = (
{
layerId = m001;
shapes = (
{
closed = 1;
nodes = (
(220,-518,o),
(173,-476,o),
(173,-420,c),
(213,778,l),
(173,1976,l),
(173,2030,o),
(221,2075,o),
(275,2075,cs),
(675,2075,ls),
(729,2075,o),
(777,2026,o),
(777,1972,cs),
(777,1916,o),
(730,1870,o),
(675,1870,cs),
(394,1870,l),
(394,-313,l),
(675,-313,ls),
(730,-313,o),
(777,-360,o),
(777,-416,cs),
(777,-470,o),
(729,-518,o),
(675,-518,cs),
(275,-518,ls)
);
}
);
width = 908;
}
);
unicode = 91;
},
{
glyphname = braceleft;
layers = (
{
layerId = m001;
shapes = (
{
closed = 1;
nodes = (
(569,860,o),
(544,749,o),
(386,720,c),
(544,690,o),
(569,579,o),
(569,490,cs),
(569,301,o),
(482,78,o),
(482,-95,cs),
(482,-238,o),
(556,-341,o),
(844,-341,cs),
(899,-341,o),
(946,-387,o),
(946,-443,cs),
(946,-497,o),
(898,-546,o),
(844,-546,cs),
(372,-546,o),
(260,-361,o),
(260,-134,cs),
(260,76,o),
(352,321,o),
(352,491,cs),
(352,564,o),
(315,617,o),
(171,617,cs),
(116,617,o),
(69,663,o),
(69,719,cs),
(69,720,ls),
(69,776,o),
(116,822,o),
(171,822,cs),
(315,822,o),
(352,875,o),
(352,948,cs),
(352,1118,o),
(260,1363,o),
(260,1573,cs),
(260,1800,o),
(372,1985,o),
(844,1985,cs),
(898,1985,o),
(946,1936,o),
(946,1882,cs),
(946,1826,o),
(899,1780,o),
(844,1780,cs),
(556,1780,o),
(482,1677,o),
(482,1534,cs),
(482,1361,o),
(569,1138,o),
(569,949,cs)
);
}
);
width = 1027;
}
);
unicode = 123;
},
{
glyphname = quotesinglbase;
layers = (
{
layerId = m001;
shapes = (
{
closed = 1;
nodes = (
(40,-288,o),
(20,-260,o),
(20,-225,cs),
(20,-97,o),
(304,-174,o),
(304,14,c),
(274,4,o),
(246,0,o),
(220,0,cs),
(117,0,o),
(58,73,o),
(58,137,cs),
(58,251,o),
(136,320,o),
(279,320,cs),
(404,320,o),
(467,218,o),
(467,96,cs),
(467,-121,o),
(320,-288,o),
(81,-288,cs)
);
}
);
width = 501;
}
);
unicode = 8218;
},
{
glyphname = quotedblbase;
layers = (
{
layerId = m001;
shapes = (
{
closed = 1;
nodes = (
(1020,-129,o),
(897,-263,o),
(746,-339,cs),
(730,-348,o),
(713,-352,o),
(699,-352,cs),
(656,-352,o),
(624,-319,o),
(624,-284,cs),
(624,-266,o),
(633,-247,o),
(655,-232,cs),
(732,-181,o),
(833,-115,o),
(833,-1,c),
(725,-1,o),
(645,47,o),
(645,149,cs),
(645,252,o),
(727,304,o),
(815,304,cs),
(925,304,o),
(1020,230,o),
(1020,82,cs)
);
},
{
closed = 1;
nodes = (
(463,304,o),
(558,230,o),
(558,82,cs),
(558,-129,o),
(435,-263,o),
(284,-339,cs),
(268,-348,o),
(251,-352,o),
(237,-352,cs),
(194,-352,o),
(162,-319,o),
(162,-284,cs),
(162,-266,o),
(171,-247,o),
(193,-232,cs),
(270,-181,o),
(371,-115,o),
(371,-1,c),
(263,-1,o),
(183,47,o),
(183,149,cs),
(183,252,o),
(265,304,o),
(353,304,cs)
);
}
);
width = 1151;
}
);
unicode = 8222;
},
{
glyphname = parenright;
layers = (
{
layerId = m001;
shapes = (
{
closed = 1;
nodes = (
(76,2039,o),
(127,2079,o),
(181,2079,cs),
(203,2079,o),
(232,2064,o),
(267,2033,cs),
(542,1795,o),
(709,1280,o),
(709,776,cs),
(709,313,o),
(567,-74,o),
(378,-349,cs),
(332,-415,o),
(258,-526,o),
(181,-526,cs),
(127,-526,o),
(76,-486,o),
(76,-432,cs),
(76,-409,o),
(86,-385,o),
(105,-362,cs),
(325,-107,o),
(486,309,o),
(486,776,cs),
(486,1244,o),
(324,1660,o),
(105,1915,cs),
(86,1938,o),
(76,1962,o),
(76,1985,cs)
);
}
);
width = 789;
}
);
unicode = 41;
},
{
glyphname = bracketright;
layers = (
{
layerId = m001;
shapes = (
{
closed = 1;
nodes = (
(235,-518,ls),
(181,-518,o),
(133,-470,o),
(133,-416,cs),
(133,-360,o),
(180,-313,o),
(235,-313,cs),
(516,-313,l),
(516,1870,l),
(235,1870,ls),
(180,1870,o),
(133,1916,o),
(133,1972,cs),
(133,2026,o),
(181,2075,o),
(235,2075,cs),
(635,2075,ls),
(689,2075,o),
(737,2030,o),
(737,1976,c),
(697,778,l),
(737,-420,l),
(737,-476,o),
(690,-518,o),
(635,-518,cs)
);
}
);
width = 878;
}
);
unicode = 93;
},
{
glyphname = braceright;
layers = (
{
layerId = m001;
shapes = (
{
closed = 1;
nodes = (
(459,1138,o),
(546,1361,o),
(546,1534,cs),
(546,1677,o),
(472,1780,o),
(184,1780,cs),
(129,1780,o),
(82,1826,o),
(82,1882,cs),
(82,1936,o),
(130,1985,o),
(184,1985,cs),
(656,1985,o),
(768,1800,o),
(768,1573,cs),
(768,1363,o),
(676,1118,o),
(676,948,cs),
(676,875,o),
(713,822,o),
(857,822,cs),
(912,822,o),
(959,776,o),
(959,720,cs),
(959,719,ls),
(959,663,o),
(912,617,o),
(857,617,cs),
(713,617,o),
(676,564,o),
(676,491,cs),
(676,321,o),
(768,76,o),
(768,-134,cs),
(768,-361,o),
(656,-546,o),
(184,-546,cs),
(130,-546,o),
(82,-497,o),
(82,-443,cs),
(82,-387,o),
(129,-341,o),
(184,-341,cs),
(472,-341,o),
(546,-238,o),
(546,-95,cs),
(546,78,o),
(459,301,o),
(459,490,cs),
(459,579,o),
(484,690,o),
(642,720,c),
(484,749,o),
(459,860,o),
(459,949,cs)
);
}
);
width = 1026;
}
);
unicode = 125;
},
{
glyphname = guillemotleft;
layers = (
{
layerId = m001;
shapes = (
{
closed = 1;
nodes = (
(143,676,l),
(105,700,o),
(77,723,o),
(77,755,cs),
(77,788,o),
(104,812,o),
(143,837,c),
(693,1240,l),
(720,1253,o),
(745,1259,o),
(766,1259,cs),
(821,1259,o),
(854,1221,o),
(854,1175,cs),
(854,1137,o),
(831,1094,o),
(780,1064,c),
(371,751,l),
(782,440,l),
(838,406,o),
(864,361,o),
(864,324,cs),
(864,285,o),
(835,254,o),
(784,254,cs),
(762,254,o),
(736,260,o),
(706,273,c)
);
},
{
closed = 1;
nodes = (
(773,676,l),
(735,700,o),
(707,723,o),
(707,755,cs),
(707,788,o),
(734,812,o),
(773,837,c),
(1323,1240,l),
(1350,1253,o),
(1375,1259,o),
(1396,1259,cs),
(1451,1259,o),
(1484,1221,o),
(1484,1175,cs),
(1484,1137,o),
(1461,1094,o),
(1410,1064,c),
(1001,751,l),
(1412,440,l),
(1468,406,o),
(1494,361,o),
(1494,324,cs),
(1494,285,o),
(1465,254,o),
(1414,254,cs),
(1392,254,o),
(1366,260,o),
(1336,273,c)
);
}
);
width = 1573;
}
);
unicode = 171;
},
{
glyphname = quoteleft;
layers = (
{
layerId = m001;
shapes = (
{
closed = 1;
nodes = (
(240,1057,o),
(145,1131,o),
(145,1279,cs),
(145,1490,o),
(268,1624,o),
(419,1700,cs),
(435,1709,o),
(452,1713,o),
(466,1713,cs),
(509,1713,o),
(541,1680,o),
(541,1645,cs),
(541,1627,o),
(532,1608,o),
(510,1593,cs),
(433,1542,o),
(332,1476,o),
(332,1362,c),
(440,1362,o),
(520,1314,o),
(520,1212,cs),
(520,1109,o),
(438,1057,o),
(350,1057,cs)
);
}
);
width = 714;
}
);
unicode = 8216;
},
{
glyphname = quotedblleft;
layers = (
{
layerId = m001;
shapes = (
{
closed = 1;
nodes = (
(655,1490,o),
(778,1624,o),
(929,1700,cs),
(945,1709,o),
(962,1713,o),
(976,1713,cs),
(1019,1713,o),
(1051,1680,o),
(1051,1645,cs),
(1051,1627,o),
(1042,1608,o),
(1020,1593,cs),
(943,1542,o),
(842,1476,o),
(842,1362,c),
(950,1362,o),
(1030,1314,o),
(1030,1212,cs),
(1030,1109,o),
(948,1057,o),
(860,1057,cs),
(750,1057,o),
(655,1131,o),
(655,1279,cs)
);
},
{
closed = 1;
nodes = (
(240,1057,o),
(145,1131,o),
(145,1279,cs),
(145,1490,o),
(268,1624,o),
(419,1700,cs),
(435,1709,o),
(452,1713,o),
(466,1713,cs),
(509,1713,o),
(541,1680,o),
(541,1645,cs),
(541,1627,o),
(532,1608,o),
(510,1593,cs),
(433,1542,o),
(332,1476,o),
(332,1362,c),
(440,1362,o),
(520,1314,o),
(520,1212,cs),
(520,1109,o),
(438,1057,o),
(350,1057,cs)
);
}
);
width = 1190;
}
);
unicode = 8220;
},
{
glyphname = guilsinglleft;
layers = (
{
layerId = m001;
shapes = (
{
closed = 1;
nodes = (
(133,696,l),
(91,714,o),
(67,743,o),
(67,775,cs),
(67,808,o),
(91,837,o),
(133,857,cs),
(993,1260,ls),
(1008,1267,o),
(1024,1268,o),
(1036,1268,cs),
(1095,1268,o),
(1133,1220,o),
(1133,1171,cs),
(1133,1132,o),
(1108,1097,o),
(1060,1076,cs),
(393,770,l),
(1060,464,ls),
(1108,441,o),
(1135,412,o),
(1135,376,cs),
(1135,329,o),
(1102,285,o),
(1050,285,cs),
(1037,285,o),
(1022,286,o),
(1006,293,cs)
);
}
);
width = 1206;
}
);
unicode = 8249;
},
{
glyphname = guillemotright;
layers = (
{
layerId = m001;
shapes = (
{
closed = 1;
nodes = (
(838,260,o),
(812,254,o),
(790,254,cs),
(739,254,o),
(711,285,o),
(711,324,cs),
(711,361,o),
(736,406,o),
(792,440,c),
(1204,751,l),
(794,1064,l),
(743,1094,o),
(720,1137,o),
(720,1175,cs),
(720,1221,o),
(753,1259,o),
(808,1259,cs),
(830,1259,o),
(854,1253,o),
(882,1240,c),
(1432,837,l),
(1471,812,o),
(1498,788,o),
(1498,755,cs),
(1498,723,o),
(1470,700,o),
(1432,676,c),
(868,273,l)
);
},
{
closed = 1;
nodes = (
(208,260,o),
(182,254,o),
(160,254,cs),
(109,254,o),
(81,285,o),
(81,324,cs),
(81,361,o),
(106,406,o),
(162,440,c),
(574,751,l),
(164,1064,l),
(113,1094,o),
(90,1137,o),
(90,1175,cs),
(90,1221,o),
(123,1259,o),
(178,1259,cs),
(200,1259,o),
(224,1253,o),
(252,1240,c),
(802,837,l),
(841,812,o),
(868,788,o),
(868,755,cs),
(868,723,o),
(840,700,o),
(802,676,c),
(238,273,l)
);
}
);
width = 1572;
}
);
unicode = 187;
},
{
glyphname = quoteright;
layers = (
{
layerId = m001;
shapes = (
{
closed = 1;
nodes = (
(463,1714,o),
(558,1640,o),
(558,1492,cs),
(558,1281,o),
(435,1147,o),
(284,1071,cs),
(268,1062,o),
(251,1058,o),
(237,1058,cs),
(194,1058,o),
(162,1091,o),
(162,1126,cs),
(162,1144,o),
(171,1163,o),
(193,1178,cs),
(270,1229,o),
(371,1295,o),
(371,1409,c),
(263,1409,o),
(183,1457,o),
(183,1559,cs),
(183,1662,o),
(265,1714,o),
(353,1714,cs)
);
}
);
width = 714;
}
);
unicode = 8217;
},
{
glyphname = quotedblright;
layers = (
{
layerId = m001;
shapes = (
{
closed = 1;
nodes = (
(1020,1281,o),
(897,1147,o),
(746,1071,cs),
(730,1062,o),
(713,1058,o),
(699,1058,cs),
(656,1058,o),
(624,1091,o),
(624,1126,cs),
(624,1144,o),
(633,1163,o),
(655,1178,cs),
(732,1229,o),
(833,1295,o),
(833,1409,c),
(725,1409,o),
(645,1457,o),
(645,1559,cs),
(645,1662,o),
(727,1714,o),
(815,1714,cs),
(925,1714,o),
(1020,1640,o),
(1020,1492,cs)
);
},
{
closed = 1;
nodes = (
(463,1714,o),
(558,1640,o),
(558,1492,cs),
(558,1281,o),
(435,1147,o),
(284,1071,cs),
(268,1062,o),
(251,1058,o),
(237,1058,cs),
(194,1058,o),
(162,1091,o),
(162,1126,cs),
(162,1144,o),
(171,1163,o),
(193,1178,cs),
(270,1229,o),
(371,1295,o),
(371,1409,c),
(263,1409,o),
(183,1457,o),
(183,1559,cs),
(183,1662,o),
(265,1714,o),
(353,1714,cs)
);
}
);
width = 1151;
}
);
unicode = 8221;
},
{
glyphname = guilsinglright;
layers = (
{
layerId = m001;
shapes = (
{
closed = 1;
nodes = (
(186,286,o),
(170,285,o),
(157,285,cs),
(105,285,o),
(72,329,o),
(72,376,cs),
(72,412,o),
(99,441,o),
(147,464,cs),
(815,770,l),
(147,1076,ls),
(100,1097,o),
(75,1132,o),
(75,1171,cs),
(75,1220,o),
(112,1268,o),
(171,1268,cs),
(184,1268,o),
(199,1267,o),
(215,1260,cs),
(1075,857,ls),
(1117,837,o),
(1140,808,o),
(1140,775,cs),
(1140,743,o),
(1116,714,o),
(1075,696,cs),
(201,293,ls)
);
}
);
width = 1207;
}
);
unicode = 8250;
},
{
glyphname = exclam;
layers = (
{
layerId = m001;
shapes = (
{
closed = 1;
nodes = (
(502,1249,o),
(428,917,o),
(428,557,cs),
(428,523,o),
(400,496,o),
(367,496,cs),
(333,496,o),
(305,523,o),
(305,557,cs),
(305,920,o),
(231,1249,o),
(231,1591,cs),
(231,1685,o),
(288,1739,o),
(367,1739,cs),
(448,1739,o),
(502,1685,o),
(502,1587,cs)
);
},
{
closed = 1;
nodes = (
(265,-25,o),
(188,52,o),
(188,152,cs),
(188,252,o),
(265,328,o),
(365,328,cs),
(465,328,o),
(541,252,o),
(541,152,cs),
(541,52,o),
(465,-25,o),
(365,-25,cs)
);
}
);
width = 728;
}
);
unicode = 33;
},
{
glyphname = quotedbl;
layers = (
{
layerId = m001;
shapes = (
{
closed = 1;
nodes = (
(685,1338,o),
(650,1319,o),
(625,1319,cs),
(599,1319,o),
(563,1338,o),
(559,1377,cs),
(505,1924,l),
(505,1924,o),
(504,1935,o),
(504,1941,cs),
(504,2020,o),
(562,2058,o),
(620,2058,cs),
(681,2058,o),
(742,2017,o),
(742,1938,cs),
(742,1932,o),
(741,1927,o),
(741,1922,cs),
(689,1377,ls)
);
},
{
closed = 1;
nodes = (
(359,1338,o),
(324,1319,o),
(299,1319,cs),
(273,1319,o),
(237,1338,o),
(233,1377,cs),
(179,1924,ls),
(178,1929,o),
(178,1935,o),
(178,1941,cs),
(178,2020,o),
(236,2058,o),
(294,2058,cs),
(355,2058,o),
(416,2017,o),
(416,1938,cs),
(416,1932,o),
(416,1927,o),
(415,1922,cs),
(363,1377,ls)
);
}
);
width = 879;
}
);
unicode = 34;
},
{
glyphname = numbersign;
layers = (
{
layerId = m001;
shapes = (
{
closed = 1;
nodes = (
(1081,965,l),
(666,965,l),
(607,732,l),
(1022,732,l)
);
},
{
closed = 1;
nodes = (
(847,1989,o),
(901,1962,o),
(901,1910,cs),
(901,1905,o),
(900,1901,o),
(899,1896,cs),
(708,1133,l),
(1123,1133,l),
(1326,1935,l),
(1333,1968,o),
(1358,1988,o),
(1400,1988,cs),
(1443,1988,o),
(1498,1961,o),
(1498,1910,cs),
(1498,1905,o),
(1498,1900,o),
(1496,1894,cs),
(1304,1133,l),
(1561,1133,ls),
(1607,1133,o),
(1645,1095,o),
(1645,1049,cs),
(1645,1002,o),
(1608,965,o),
(1562,965,cs),
(1262,965,l),
(1203,732,l),
(1499,732,ls),
(1545,732,o),
(1583,694,o),
(1583,648,cs),
(1583,601,o),
(1546,564,o),
(1500,564,cs),
(1161,564,l),
(936,-327,ls),
(926,-364,o),
(908,-390,o),
(860,-390,cs),
(815,-390,o),
(759,-363,o),
(759,-313,cs),
(759,-307,o),
(760,-300,o),
(762,-294,cs),
(979,564,l),
(565,564,l),
(344,-320,ls),
(334,-357,o),
(316,-383,o),
(268,-383,cs),
(223,-383,o),
(167,-357,o),
(167,-306,cs),
(167,-300,o),
(168,-294,o),
(170,-287,cs),
(384,564,l),
(168,564,ls),
(122,564,o),
(84,601,o),
(84,648,cs),
(84,694,o),
(122,732,o),
(168,732,cs),
(426,732,l),
(485,965,l),
(230,965,ls),
(184,965,o),
(146,1002,o),
(146,1049,cs),
(146,1095,o),
(184,1133,o),
(230,1133,cs),
(527,1133,l),
(729,1936,l),
(735,1969,o),
(761,1989,o),
(802,1989,cs)
);
}
);
width = 1727;
}
);
unicode = 35;
},
{
glyphname = percent;
layers = (
{
layerId = m001;
shapes = (
{
closed = 1;
nodes = (
(79,1420,o),
(255,1726,o),
(517,1726,cs),
(601,1726,ls),
(1029,1726,o),
(1300,1771,o),
(1492,2009,c),
(1507,2040,o),
(1532,2056,o),
(1566,2056,cs),
(1614,2056,o),
(1652,2018,o),
(1652,1972,cs),
(1652,1962,o),
(1649,1951,o),
(1644,1937,c),
(534,-420,l),
(518,-451,o),
(492,-467,o),
(458,-467,cs),
(411,-467,o),
(374,-428,o),
(374,-383,cs),
(374,-371,o),
(376,-358,o),
(380,-346,c),
(1336,1681,l),
(1161,1611,o),
(945,1577,o),
(702,1577,c),
(743,1529,o),
(769,1460,o),
(769,1378,cs),
(769,1109,o),
(591,813,o),
(331,813,cs),
(156,813,o),
(79,981,o),
(79,1157,cs)
);
},
{
closed = 1;
nodes = (
(1350,-49,o),
(1273,119,o),
(1273,295,cs),
(1273,558,o),
(1449,864,o),
(1711,864,cs),
(1886,864,o),
(1963,693,o),
(1963,516,cs),
(1963,247,o),
(1785,-49,o),
(1525,-49,cs)
);
},
{
closed = 1;
nodes = (
(1713,127,o),
(1805,334,o),
(1805,492,cs),
(1805,589,o),
(1764,688,o),
(1674,688,cs),
(1520,688,o),
(1431,475,o),
(1431,319,cs),
(1431,221,o),
(1472,127,o),
(1562,127,cs)
);
},
{
closed = 1;
nodes = (
(519,989,o),
(611,1196,o),
(611,1354,cs),
(611,1451,o),
(570,1550,o),
(480,1550,cs),
(326,1550,o),
(237,1338,o),
(237,1182,cs),
(237,1084,o),
(278,989,o),
(368,989,cs)
);
}
);
width = 2042;
}
);
unicode = 37;
},
{
glyphname = ampersand;
layers = (
{
layerId = m001;
shapes = (
{
closed = 1;
nodes = (
(319,1057,o),
(216,1207,o),
(216,1370,cs),
(216,1589,o),
(350,1741,o),
(562,1741,cs),
(787,1741,o),
(927,1586,o),
(927,1366,cs),
(927,1128,o),
(792,1014,o),
(645,912,c),
(683,864,o),
(722,820,o),
(757,780,c),
(861,653,o),
(980,531,o),
(1112,423,c),
(1180,532,o),
(1221,664,o),
(1229,797,c),
(1093,797,ls),
(1046,797,o),
(1019,837,o),
(1019,881,cs),
(1019,931,o),
(1040,973,o),
(1091,973,cs),
(1566,973,ls),
(1617,973,o),
(1637,931,o),
(1637,881,cs),
(1637,837,o),
(1611,797,o),
(1564,797,cs),
(1403,797,l),
(1394,609,o),
(1330,448,o),
(1243,323,c),
(1334,259,o),
(1430,202,o),
(1531,154,cs),
(1588,126,o),
(1652,125,o),
(1652,43,cs),
(1652,-20,o),
(1595,-53,o),
(1535,-53,cs),
(1510,-53,o),
(1490,-49,o),
(1472,-39,c),
(1347,22,o),
(1226,93,o),
(1112,173,c),
(993,64,o),
(829,-27,o),
(630,-27,cs),
(304,-27,o),
(87,191,o),
(87,510,cs),
(87,733,o),
(238,836,o),
(395,932,c)
);
},
{
closed = 1;
nodes = (
(403,737,o),
(314,662,o),
(314,528,cs),
(314,298,o),
(446,156,o),
(669,156,cs),
(790,156,o),
(895,200,o),
(981,271,c),
(789,423,o),
(620,601,o),
(482,798,c)
);
},
{
closed = 1;
nodes = (
(660,1110,o),
(740,1202,o),
(740,1356,cs),
(740,1463,o),
(681,1573,o),
(577,1573,cs),
(478,1573,o),
(433,1479,o),
(433,1382,cs),
(433,1257,o),
(486,1139,o),
(555,1034,c)
);
}
);
width = 1737;
}
);
unicode = 38;
},
{
glyphname = quotesingle;
layers = (
{
layerId = m001;
shapes = (
{
closed = 1;
nodes = (
(359,1338,o),
(324,1319,o),
(299,1319,cs),
(273,1319,o),
(237,1338,o),
(233,1377,cs),
(179,1924,ls),
(178,1929,o),
(178,1935,o),
(178,1941,cs),
(178,2020,o),
(236,2058,o),
(294,2058,cs),
(355,2058,o),
(416,2017,o),
(416,1938,cs),
(416,1932,o),
(416,1927,o),
(415,1922,cs),
(363,1377,ls)
);
}
);
width = 633;
}
);
unicode = 39;
},
{
glyphname = asterisk;
layers = (
{
layerId = m001;
shapes = (
{
closed = 1;
nodes = (
(1462,1104,o),
(1492,1042,o),
(1492,983,cs),
(1492,924,o),
(1462,862,o),
(1402,862,c),
(1040,905,l),
(993,909,o),
(966,939,o),
(966,983,cs),
(966,1027,o),
(993,1057,o),
(1040,1061,c),
(1402,1104,l)
);
},
{
closed = 1;
nodes = (
(187,862,o),
(157,924,o),
(157,983,cs),
(157,1042,o),
(187,1104,o),
(247,1104,c),
(609,1061,l),
(656,1057,o),
(683,1027,o),
(683,983,cs),
(683,939,o),
(656,909,o),
(609,905,c),
(247,862,l)
);
},
{
closed = 1;
nodes = (
(1226,435,o),
(1146,381,o),
(1078,381,cs),
(1043,381,o),
(1017,396,o),
(1005,422,cs),
(863,758,ls),
(858,770,o),
(855,783,o),
(855,797,cs),
(855,840,o),
(892,870,o),
(933,870,cs),
(965,870,o),
(982,857,o),
(999,834,cs),
(1216,541,l),
(1223,527,o),
(1226,515,o),
(1226,504,cs)
);
},
{
closed = 1;
nodes = (
(423,1532,o),
(501,1585,o),
(571,1585,cs),
(605,1585,o),
(629,1571,o),
(644,1544,c),
(786,1208,ls),
(791,1196,o),
(794,1183,o),
(794,1169,cs),
(794,1137,o),
(775,1119,o),
(755,1106,c),
(734,1098,ls),
(727,1095,o),
(721,1094,o),
(714,1094,cs),
(691,1094,o),
(669,1107,o),
(650,1133,cs),
(433,1425,l),
(426,1439,o),
(423,1451,o),
(423,1462,cs)
);
},
{
closed = 1;
nodes = (
(498,381,o),
(421,434,o),
(421,504,cs),
(421,515,o),
(424,527,o),
(431,541,c),
(648,834,ls),
(665,857,o),
(680,870,o),
(712,870,cs),
(754,870,o),
(792,840,o),
(792,797,cs),
(792,783,o),
(789,770,o),
(784,758,cs),
(642,422,l),
(627,395,o),
(603,381,o),
(569,381,cs)
);
},
{
closed = 1;
nodes = (
(1145,1585,o),
(1224,1529,o),
(1224,1462,cs),
(1224,1451,o),
(1221,1439,o),
(1214,1425,c),
(997,1133,ls),
(978,1107,o),
(956,1094,o),
(931,1094,cs),
(890,1094,o),
(853,1127,o),
(853,1169,cs),
(853,1183,o),
(856,1196,o),
(861,1208,cs),
(1003,1544,ls),
(1015,1570,o),
(1041,1585,o),
(1076,1585,cs)
);
}
);
width = 1649;
}
);
unicode = 42;
},
{
glyphname = comma;
layers = (
{
layerId = m001;
shapes = (
{
closed = 1;
nodes = (
(463,280,o),
(558,206,o),
(558,58,cs),
(558,-153,o),
(435,-287,o),
(284,-363,cs),
(268,-372,o),
(251,-376,o),
(237,-376,cs),
(194,-376,o),
(162,-343,o),
(162,-308,cs),
(162,-290,o),
(171,-271,o),
(193,-256,cs),
(270,-205,o),
(371,-139,o),
(371,-25,c),
(263,-25,o),
(183,23,o),
(183,125,cs),
(183,228,o),
(265,280,o),
(353,280,cs)
);
}
);
width = 714;
}
);
unicode = 44;
},
{
glyphname = period;
layers = (
{
layerId = m001;
shapes = (
{
closed = 1;
nodes = (
(281,-127,o),
(192,-37,o),
(192,84,cs),
(192,206,o),
(282,295,o),
(403,295,cs),
(525,295,o),
(614,205,o),
(614,84,cs),
(614,-38,o),
(524,-127,o),
(403,-127,cs)
);
}
);
width = 806;
}
);
unicode = 46;
},
{
glyphname = slash;
layers = (
{
layerId = m001;
shapes = (
{
closed = 1;
nodes = (
(123,-314,o),
(65,-276,o),
(65,-228,cs),
(65,-217,o),
(68,-207,o),
(73,-197,cs),
(1059,1851,l),
(1070,1877,o),
(1091,1890,o),
(1121,1890,cs),
(1167,1890,o),
(1223,1854,o),
(1223,1804,cs),
(1223,1794,o),
(1222,1786,o),
(1217,1776,cs),
(237,-266,ls),
(222,-295,o),
(205,-314,o),
(170,-314,cs)
);
}
);
width = 1288;
}
);
unicode = 47;
},
{
glyphname = colon;
layers = (
{
layerId = m001;
shapes = (
{
closed = 1;
nodes = (
(237,-70,o),
(147,21,o),
(147,145,cs),
(147,269,o),
(239,360,o),
(362,360,cs),
(485,360,o),
(577,267,o),
(577,145,cs),
(577,21,o),
(485,-70,o),
(362,-70,cs)
);
},
{
closed = 1;
nodes = (
(237,760,o),
(147,851,o),
(147,975,cs),
(147,1099,o),
(239,1190,o),
(362,1190,cs),
(485,1190,o),
(577,1097,o),
(577,975,cs),
(577,851,o),
(485,760,o),
(362,760,cs)
);
}
);
width = 725;
}
);
unicode = 58;
},
{
glyphname = semicolon;
layers = (
{
layerId = m001;
shapes = (
{
closed = 1;
nodes = (
(446,367,o),
(541,292,o),
(541,145,cs),
(541,-67,o),
(418,-200,o),
(267,-276,cs),
(251,-285,o),
(235,-289,o),
(220,-289,cs),
(177,-289,o),
(145,-256,o),
(145,-222,cs),
(145,-203,o),
(155,-184,o),
(176,-169,cs),
(253,-118,o),
(354,-52,o),
(354,62,c),
(246,62,o),
(166,109,o),
(166,212,cs),
(166,315,o),
(249,367,o),
(336,367,cs)
);
},
{
closed = 1;
nodes = (
(230,760,o),
(140,851,o),
(140,975,cs),
(140,1099,o),
(232,1190,o),
(355,1190,cs),
(478,1190,o),
(570,1097,o),
(570,975,cs),
(570,851,o),
(478,760,o),
(355,760,cs)
);
}
);
width = 705;
}
);
unicode = 59;
},
{
glyphname = question;
layers = (
{
layerId = m001;
shapes = (
{
closed = 1;
nodes = (
(745,52,o),
(655,-24,o),
(547,-24,cs),
(452,-24,o),
(401,64,o),
(401,158,cs),
(401,258,o),
(475,343,o),
(575,343,cs),
(671,343,o),
(745,255,o),
(745,160,cs)
);
},
{
closed = 1;
nodes = (
(471,479,o),
(465,561,o),
(465,663,cs),
(465,676,ls),
(465,988,o),
(897,957,o),
(897,1279,cs),
(897,1443,o),
(801,1582,o),
(626,1582,cs),
(570,1582,o),
(507,1568,o),
(436,1536,c),
(425,1380,o),
(427,1236,o),
(268,1236,cs),
(185,1236,o),
(129,1307,o),
(129,1389,cs),
(129,1626,o),
(381,1739,o),
(618,1739,cs),
(910,1739,o),
(1145,1551,o),
(1145,1250,cs),
(1145,898,o),
(679,889,o),
(679,640,cs),
(679,548,o),
(657,479,o),
(584,479,cs)
);
}
);
width = 1296;
}
);
unicode = 63;
},
{
glyphname = at;
layers = (
{
layerId = m001;
shapes = (
{
closed = 1;
nodes = (
(1489,1266,o),
(1527,1360,o),
(1602,1360,cs),
(1632,1360,o),
(1651,1366,o),
(1674,1366,cs),
(1681,1366,o),
(1684,1363,o),
(1684,1356,cs),
(1684,1309,o),
(1664,1270,o),
(1649,1208,cs),
(1504,580,ls),
(1499,562,o),
(1496,542,o),
(1496,520,cs),
(1496,426,o),
(1557,377,o),
(1659,377,cs),
(1950,377,o),
(2059,717,o),
(2059,1016,cs),
(2059,1467,o),
(1722,1737,o),
(1258,1737,cs),
(666,1737,o),
(224,1262,o),
(224,672,cs),
(224,154,o),
(630,-176,o),
(1147,-176,cs),
(1540,-176,o),
(1736,-22,o),
(1965,125,c),
(1975,133,o),
(1986,137,o),
(2001,137,cs),
(2032,137,o),
(2065,109,o),
(2065,78,cs),
(2065,67,o),
(2061,55,o),
(2051,41,cs),
(1873,-186,o),
(1514,-326,o),
(1117,-326,cs),
(792,-326,o),
(530,-205,o),
(352,-44,cs),
(176,115,o),
(35,355,o),
(35,674,cs),
(35,909,o),
(105,1109,o),
(197,1269,cs),
(385,1598,o),
(724,1896,o),
(1231,1896,cs),
(1556,1896,o),
(1808,1772,o),
(1974,1609,cs),
(2113,1472,o),
(2235,1267,o),
(2235,1022,cs),
(2235,606,o),
(2052,238,o),
(1639,238,cs),
(1501,238,o),
(1422,314,o),
(1389,416,c),
(1318,317,o),
(1203,217,o),
(1035,217,cs),
(767,217,o),
(621,405,o),
(621,674,cs),
(621,985,o),
(846,1315,o),
(1158,1315,cs),
(1290,1315,o),
(1395,1266,o),
(1469,1208,c)
);
},
{
closed = 1;
nodes = (
(934,1163,o),
(814,927,o),
(814,662,cs),
(814,515,o),
(896,377,o),
(1043,377,cs),
(1342,377,o),
(1373,650,o),
(1414,907,cs),
(1426,981,l),
(1426,1083,o),
(1302,1163,o),
(1197,1163,cs)
);
}
);
width = 2267;
}
);
unicode = 64;
},
{
glyphname = backslash;
layers = (
{
layerId = m001;
shapes = (
{
closed = 1;
nodes = (
(-49,1854,o),
(7,1890,o),
(54,1890,cs),
(81,1890,o),
(101,1877,o),
(115,1851,c),
(1223,-463,ls),
(1228,-473,o),
(1231,-483,o),
(1231,-494,cs),
(1231,-542,o),
(1174,-580,o),
(1127,-580,cs),
(1092,-580,o),
(1074,-561,o),
(1059,-532,c),
(-43,1776,ls),
(-47,1786,o),
(-49,1794,o),
(-49,1804,cs)
);
}
);
width = 1176;
}
);
unicode = 92;
},
{
glyphname = exclamdown;
layers = (
{
layerId = m001;
shapes = (
{
closed = 1;
nodes = (
(502,29,o),
(448,-25,o),
(367,-25,cs),
(288,-25,o),
(231,29,o),
(231,123,cs),
(231,465,o),
(305,794,o),
(305,1157,cs),
(305,1191,o),
(333,1219,o),
(367,1219,cs),
(400,1219,o),
(428,1191,o),
(428,1157,cs),
(428,797,o),
(502,465,o),
(502,127,cs)
);
},
{
closed = 1;
nodes = (
(465,1739,o),
(541,1662,o),
(541,1562,cs),
(541,1462,o),
(465,1386,o),
(365,1386,cs),
(265,1386,o),
(188,1462,o),
(188,1562,cs),
(188,1662,o),
(265,1739,o),
(365,1739,cs)
);
}
);
width = 728;
}
);
unicode = 161;
},
{
glyphname = periodcentered;
layers = (
{
layerId = m001;
shapes = (
{
closed = 1;
nodes = (
(111,711,o),
(22,801,o),
(22,922,cs),
(22,1044,o),
(112,1133,o),
(233,1133,cs),
(355,1133,o),
(444,1043,o),
(444,922,cs),
(444,800,o),
(354,711,o),
(233,711,cs)
);
}
);
width = 477;
}
);
unicode = 183;
},
{
glyphname = questiondown;
layers = (
{
layerId = m001;
shapes = (
{
closed = 1;
nodes = (
(446,1665,o),
(536,1741,o),
(644,1741,cs),
(739,1741,o),
(790,1653,o),
(790,1559,cs),
(790,1459,o),
(716,1374,o),
(616,1374,cs),
(520,1374,o),
(446,1462,o),
(446,1557,cs)
);
},
{
closed = 1;
nodes = (
(720,1238,o),
(726,1156,o),
(726,1054,cs),
(726,1041,ls),
(726,729,o),
(304,760,o),
(304,438,cs),
(304,232,o),
(441,170,o),
(648,170,cs),
(693,170,o),
(731,177,o),
(755,201,c),
(766,347,o),
(764,481,o),
(923,481,cs),
(1006,481,o),
(1062,410,o),
(1062,328,cs),
(1062,91,o),
(810,-22,o),
(573,-22,cs),
(270,-22,o),
(26,166,o),
(26,467,cs),
(26,819,o),
(492,798,o),
(492,1077,cs),
(492,1169,o),
(518,1238,o),
(607,1238,cs)
);
}
);
width = 1096;
}
);
unicode = 191;
},
{
glyphname = dagger;
layers = (
{
layerId = m001;
shapes = (
{
closed = 1;
nodes = (
(1067,1255,o),
(1103,1219,o),
(1103,1175,cs),
(1103,1131,o),
(1067,1094,o),
(1023,1094,cs),
(695,1094,l),
(695,-98,ls),
(695,-140,o),
(647,-164,o),
(607,-164,cs),
(555,-164,o),
(519,-142,o),
(519,-82,cs),
(519,1094,l),
(213,1094,ls),
(169,1094,o),
(133,1131,o),
(133,1175,cs),
(133,1219,o),
(169,1255,o),
(213,1255,cs),
(519,1255,l),
(519,1769,ls),
(519,1817,o),
(563,1841,o),
(609,1841,cs),
(658,1841,o),
(690,1815,o),
(695,1769,c),
(695,1255,l),
(1023,1255,ls)
);
}
);
width = 1237;
}
);
unicode = 8224;
},
{
glyphname = daggerdbl;
layers = (
{
layerId = m001;
shapes = (
{
closed = 1;
nodes = (
(1007,1255,o),
(1043,1219,o),
(1043,1175,cs),
(1043,1131,o),
(1007,1094,o),
(963,1094,cs),
(695,1094,l),
(695,538,l),
(963,538,ls),
(1007,538,o),
(1043,501,o),
(1043,457,cs),
(1043,413,o),
(1007,377,o),
(963,377,cs),
(695,377,l),
(695,-98,ls),
(695,-140,o),
(647,-164,o),
(607,-164,cs),
(555,-164,o),
(519,-142,o),
(519,-82,cs),
(519,377,l),
(273,377,ls),
(229,377,o),
(193,413,o),
(193,457,cs),
(193,501,o),
(229,538,o),
(273,538,cs),
(519,538,l),
(519,1094,l),
(273,1094,ls),
(229,1094,o),
(193,1131,o),
(193,1175,cs),
(193,1219,o),
(229,1255,o),
(273,1255,cs),
(519,1255,l),
(519,1769,ls),
(519,1817,o),
(563,1841,o),
(609,1841,cs),
(658,1841,o),
(690,1815,o),
(695,1769,c),
(695,1255,l),
(963,1255,ls)
);
}
);
width = 1237;
}
);
unicode = 8225;
},
{
glyphname = bullet;
layers = (
{
layerId = m001;
shapes = (
{
closed = 1;
nodes = (
(334,289,o),
(193,427,o),
(193,643,cs),
(193,860,o),
(335,997,o),
(551,997,cs),
(761,997,o),
(898,853,o),
(898,643,cs),
(898,432,o),
(760,289,o),
(551,289,cs)
);
}
);
width = 1143;
}
);
unicode = 8226;
},
{
glyphname = plus;
layers = (
{
layerId = m001;
shapes = (
{
closed = 1;
nodes = (
(1114,787,o),
(1147,754,o),
(1147,714,cs),
(1147,673,o),
(1114,640,o),
(1073,640,cs),
(699,640,l),
(699,257,ls),
(699,213,o),
(664,178,o),
(620,178,cs),
(576,178,o),
(541,213,o),
(541,257,cs),
(541,640,l),
(165,640,ls),
(124,640,o),
(92,673,o),
(92,714,cs),
(92,754,o),
(124,787,o),
(165,787,cs),
(541,787,l),
(541,1177,ls),
(541,1221,o),
(576,1256,o),
(620,1256,cs),
(664,1256,o),
(699,1221,o),
(699,1177,cs),
(699,787,l),
(1073,787,ls)
);
}
);
width = 1238;
}
);
unicode = 43;
},
{
glyphname = less;
layers = (
{
layerId = m001;
shapes = (
{
closed = 1;
nodes = (
(128,713,l),
(76,736,o),
(46,754,o),
(46,807,cs),
(46,859,o),
(80,882,o),
(128,900,cs),
(1559,1430,ls),
(1577,1437,o),
(1595,1440,o),
(1611,1440,cs),
(1680,1440,o),
(1724,1383,o),
(1724,1325,cs),
(1724,1280,o),
(1698,1235,o),
(1637,1213,cs),
(431,779,l),
(1637,367,ls),
(1700,345,o),
(1727,303,o),
(1727,264,cs),
(1727,217,o),
(1689,173,o),
(1629,173,cs),
(1613,173,o),
(1596,176,o),
(1577,183,cs)
);
}
);
width = 1856;
}
);
unicode = 60;
},
{
glyphname = equal;
layers = (
{
layerId = m001;
shapes = (
{
closed = 1;
nodes = (
(1130,213,o),
(1178,165,o),
(1178,107,cs),
(1178,48,o),
(1130,1,o),
(1072,1,cs),
(165,1,ls),
(106,1,o),
(59,48,o),
(59,107,cs),
(59,165,o),
(106,213,o),
(165,213,cs),
(1072,213,ls)
);
},
{
closed = 1;
nodes = (
(1130,736,o),
(1178,688,o),
(1178,630,cs),
(1178,571,o),
(1130,524,o),
(1072,524,cs),
(165,524,ls),
(106,524,o),
(59,571,o),
(59,630,cs),
(59,688,o),
(106,736,o),
(165,736,cs),
(1072,736,ls)
);
}
);
width = 1237;
}
);
unicode = 61;
},
{
glyphname = greater;
layers = (
{
layerId = m001;
shapes = (
{
closed = 1;
nodes = (
(1645,901,l),
(1697,878,o),
(1727,860,o),
(1727,807,cs),
(1727,755,o),
(1693,732,o),
(1645,714,cs),
(214,183,ls),
(195,177,o),
(178,173,o),
(162,173,cs),
(93,173,o),
(49,230,o),
(49,288,cs),
(49,333,o),
(75,379,o),
(136,401,cs),
(1342,835,l),
(136,1247,ls),
(72,1269,o),
(46,1310,o),
(46,1350,cs),
(46,1397,o),
(84,1440,o),
(144,1440,cs),
(160,1440,o),
(177,1437,o),
(196,1430,cs)
);
}
);
width = 1856;
}
);
unicode = 62;
},
{
glyphname = bar;
layers = (
{
layerId = m001;
shapes = (
{
closed = 1;
nodes = (
(443,1841,o),
(475,1815,o),
(480,1769,c),
(480,-98,ls),
(480,-140,o),
(432,-164,o),
(392,-164,cs),
(340,-164,o),
(304,-142,o),
(304,-82,cs),
(304,1769,ls),
(304,1817,o),
(348,1841,o),
(394,1841,cs)
);
}
);
width = 778;
}
);
unicode = 124;
},
{
glyphname = asciitilde;
layers = (
{
layerId = m001;
shapes = (
{
closed = 1;
nodes = (
(159,1231,o),
(257,1350,o),
(379,1350,cs),
(619,1350,o),
(798,1168,o),
(884,1168,cs),
(1026,1168,o),
(1031,1330,o),
(1107,1330,cs),
(1146,1330,o),
(1181,1312,o),
(1181,1276,cs),
(1181,1109,o),
(1066,992,o),
(922,992,cs),
(727,992,o),
(538,1173,o),
(409,1173,cs),
(290,1173,o),
(290,1012,o),
(232,1012,cs),
(194,1012,o),
(159,1029,o),
(159,1065,cs)
);
}
);
width = 1338;
}
);
unicode = 126;
},
{
glyphname = logicalnot;
layers = (
{
layerId = m001;
shapes = (
{
closed = 1;
nodes = (
(171,770,o),
(217,817,o),
(273,817,cs),
(1015,817,ls),
(1071,817,o),
(1117,770,o),
(1117,715,cs),
(1117,711,l),
(1117,409,ls),
(1117,353,o),
(1077,326,o),
(1038,326,cs),
(999,326,o),
(961,352,o),
(961,403,cs),
(961,612,l),
(273,612,ls),
(216,612,o),
(171,658,o),
(171,715,cs)
);
}
);
width = 1291;
}
);
unicode = 172;
},
{
glyphname = plusminus;
layers = (
{
layerId = m001;
shapes = (
{
closed = 1;
nodes = (
(257,120,o),
(291,155,o),
(334,155,cs),
(898,155,ls),
(941,155,o),
(975,120,o),
(975,78,cs),
(975,35,o),
(941,0,o),
(898,0,cs),
(334,0,ls),
(291,0,o),
(257,35,o),
(257,78,cs)
);
},
{
closed = 1;
nodes = (
(1114,847,o),
(1146,815,o),
(1146,774,cs),
(1146,733,o),
(1114,700,o),
(1073,700,cs),
(699,700,l),
(699,377,ls),
(699,333,o),
(664,298,o),
(620,298,cs),
(576,298,o),
(541,333,o),
(541,377,cs),
(541,700,l),
(165,700,ls),
(124,700,o),
(92,733,o),
(92,774,cs),
(92,815,o),
(124,847,o),
(165,847,cs),
(541,847,l),
(541,1177,ls),
(541,1221,o),
(576,1256,o),
(620,1256,cs),
(664,1256,o),
(699,1221,o),
(699,1177,cs),
(699,847,l),
(1073,847,ls)
);
}
);
width = 1238;
}
);
unicode = 177;
},
{
glyphname = multiply;
layers = (
{
layerId = m001;
shapes = (
{
closed = 1;
nodes = (
(924,1108,o),
(959,1073,o),
(959,1035,cs),
(959,1016,o),
(951,998,o),
(937,983,cs),
(667,714,l),
(937,444,ls),
(951,430,o),
(959,411,o),
(959,393,cs),
(959,354,o),
(924,319,o),
(885,319,cs),
(866,319,o),
(847,327,o),
(833,341,cs),
(564,610,l),
(295,341,ls),
(280,327,o),
(262,319,o),
(243,319,cs),
(204,319,o),
(169,354,o),
(169,393,cs),
(169,411,o),
(176,430,o),
(191,444,cs),
(460,714,l),
(191,983,ls),
(176,998,o),
(169,1016,o),
(169,1035,cs),
(169,1073,o),
(204,1108,o),
(243,1108,cs),
(262,1108,o),
(280,1101,o),
(295,1086,cs),
(564,817,l),
(833,1086,ls),
(847,1101,o),
(866,1108,o),
(885,1108,cs)
);
}
);
width = 1128;
}
);
unicode = 215;
},
{
glyphname = divide;
layers = (
{
layerId = m001;
shapes = (
{
closed = 1;
nodes = (
(25,864,o),
(71,911,o),
(127,911,cs),
(869,911,ls),
(925,911,o),
(971,864,o),
(971,809,cs),
(971,752,o),
(926,706,o),
(869,706,cs),
(127,706,ls),
(70,706,o),
(25,752,o),
(25,809,cs)
);
},
{
closed = 1;
nodes = (
(409,314,o),
(347,376,o),
(347,460,cs),
(347,544,o),
(410,606,o),
(494,606,cs),
(578,606,o),
(640,543,o),
(640,460,cs),
(640,376,o),
(578,314,o),
(494,314,cs)
);
},
{
closed = 1;
nodes = (
(409,1012,o),
(347,1074,o),
(347,1158,cs),
(347,1242,o),
(410,1304,o),
(494,1304,cs),
(578,1304,o),
(640,1241,o),
(640,1158,cs),
(640,1074,o),
(578,1012,o),
(494,1012,cs)
);
}
);
width = 996;
}
);
unicode = 247;
},
{
glyphname = fraction;
layers = (
{
layerId = m001;
shapes = (
{
closed = 1;
nodes = (
(123,-580,o),
(65,-542,o),
(65,-494,cs),
(65,-483,o),
(68,-473,o),
(73,-463,cs),
(1181,1851,l),
(1192,1877,o),
(1213,1890,o),
(1243,1890,cs),
(1289,1890,o),
(1345,1854,o),
(1345,1804,cs),
(1345,1794,o),
(1343,1786,o),
(1339,1776,cs),
(237,-532,l),
(222,-561,o),
(205,-580,o),
(170,-580,cs)
);
}
);
width = 1408;
}
);
unicode = 8260;
},
{
glyphname = uni2206;
layers = (
{
layerId = m001;
shapes = (
{
closed = 1;
nodes = (
(280,487,ls),
(230,487,o),
(184,526,o),
(184,577,cs),
(184,588,o),
(187,602,o),
(194,618,cs),
(546,1411,ls),
(568.317,1461.28,o),
(604,1511,o),
(661,1511,cs),
(714,1511,o),
(749.024,1461.9,o),
(767,1419,cs),
(1116,586,ls),
(1121,575,o),
(1124,563,o),
(1124,551,cs),
(1124,514,o),
(1090,485,o),
(1054,485,cs)
);
},
{
closed = 1;
nodes = (
(683,1336,l),
(360,594,l),
(979.457,592.994,l)
);
}
);
width = 1301;
}
);
unicode = 8710;
},
{
glyphname = minus;
layers = (
{
layerId = m001;
shapes = (
{
closed = 1;
nodes = (
(174,770,o),
(220,817,o),
(276,817,cs),
(1018,817,ls),
(1074,817,o),
(1120,770,o),
(1120,715,cs),
(1120,658,o),
(1075,612,o),
(1018,612,cs),
(276,612,ls),
(219,612,o),
(174,658,o),
(174,715,cs)
);
}
);
width = 1293;
}
);
unicode = 8722;
},
{
glyphname = dollar;
layers = (
{
layerId = m001;
shapes = (
{
closed = 1;
nodes = (
(900,997,l),
(1023,967,l),
(1287,901,o),
(1468,775,o),
(1468,458,cs),
(1468,146,o),
(1208,3,o),
(900,-23,c),
(900,-144,ls),
(900,-180,o),
(870,-210,o),
(834,-210,cs),
(798,-210,o),
(768,-180,o),
(768,-144,cs),
(768,-27,l),
(636,-24,o),
(511,0,o),
(392,45,c),
(387,-1,o),
(346,-25,o),
(300,-25,cs),
(252,-25,o),
(221,-6,o),
(216,39,cs),
(159,535,l),
(159,588,o),
(191,614,o),
(255,614,cs),
(295,614,o),
(330,589,o),
(335,549,cs),
(351,410,l),
(374,227,o),
(562,151,o),
(768,150,c),
(768,794,l),
(660,825,l),
(420,879,o),
(246,1001,o),
(246,1271,cs),
(246,1545,o),
(474,1716,o),
(768,1737,c),
(768,1854,ls),
(768,1890,o),
(798,1920,o),
(834,1920,cs),
(870,1920,o),
(900,1890,o),
(900,1854,cs),
(900,1736,l),
(1017,1728,o),
(1132,1699,o),
(1205,1657,c),
(1205,1713,o),
(1244,1743,o),
(1299,1743,cs),
(1339,1743,o),
(1374,1717,o),
(1379,1677,c),
(1410,1309,l),
(1410,1251,o),
(1371,1227,o),
(1318,1227,cs),
(1271,1227,o),
(1239,1246,o),
(1234,1290,cs),
(1226,1372,l),
(1209,1513,o),
(1058,1572,o),
(900,1580,c)
);
},
{
closed = 1;
nodes = (
(900,157,l),
(1088,178,o),
(1263,255,o),
(1263,459,cs),
(1263,640,o),
(1138,689,o),
(988,732,cs),
(900,757,l)
);
},
{
closed = 1;
nodes = (
(768,1576,l),
(526,1551,o),
(467,1423,o),
(467,1287,cs),
(467,1157,o),
(557,1082,o),
(736,1038,cs),
(768,1030,l)
);
}
);
width = 1630;
}
);
unicode = 36;
},
{
glyphname = cent;
layers = (
{
layerId = m001;
shapes = (
{
closed = 1;
nodes = (
(762,1623,o),
(791,1603,o),
(791,1566,cs),
(791,1328,l),
(986,1322,o),
(1192,1256,o),
(1192,1018,cs),
(1192,939,o),
(1163,878,o),
(1095,878,cs),
(995,878,o),
(985,1026,o),
(959,1133,c),
(902,1148,o),
(845,1156,o),
(791,1158,c),
(791,317,l),
(886,329,o),
(983,371,o),
(1062,442,cs),
(1081,458,o),
(1102,468,o),
(1125,468,cs),
(1180,468,o),
(1221,439,o),
(1221,390,cs),
(1221,232,o),
(967,132,o),
(791,117,c),
(791,-113,ls),
(791,-152,o),
(757,-172,o),
(724,-172,cs),
(689,-172,o),
(655,-151,o),
(655,-104,cs),
(655,120,l),
(320,154,o),
(94,379,o),
(94,736,cs),
(94,1079,o),
(342,1284,o),
(655,1322,c),
(655,1566,ls),
(655,1604,o),
(688,1623,o),
(723,1623,cs)
);
},
{
closed = 1;
nodes = (
(455,1107,o),
(316,959,o),
(316,736,cs),
(316,485,o),
(469,350,o),
(655,320,c),
(655,1147,l)
);
}
);
width = 1295;
}
);
unicode = 162;
},
{
glyphname = sterling;
layers = (
{
layerId = m001;
shapes = (
{
closed = 1;
nodes = (
(47,399,o),
(185,502,o),
(356,502,cs),
(447,502,o),
(512,474,o),
(571,438,c),
(574,456,o),
(575,474,o),
(575,494,cs),
(575,631,o),
(520,733,o),
(467,840,c),
(450,870,l),
(178,870,ls),
(131,870,o),
(104,902,o),
(104,946,cs),
(104,990,o),
(129,1018,o),
(176,1018,cs),
(383,1018,l),
(340,1119,o),
(297,1236,o),
(297,1378,cs),
(297,1610,o),
(500,1778,o),
(731,1778,cs),
(904,1778,o),
(1032,1714,o),
(1114,1616,cs),
(1136,1590,o),
(1147,1580,o),
(1147,1542,cs),
(1147,1475,o),
(1088,1430,o),
(1024,1430,cs),
(950,1430,o),
(890,1532,o),
(849,1559,cs),
(814,1582,o),
(775,1593,o),
(733,1593,cs),
(597,1593,o),
(524,1490,o),
(524,1352,cs),
(524,1231,o),
(573,1116,o),
(618,1018,c),
(962,1018,ls),
(1009,1018,o),
(1034,990,o),
(1034,946,cs),
(1034,902,o),
(1007,870,o),
(960,870,cs),
(684,870,l),
(718,775,o),
(755,668,o),
(755,549,cs),
(755,470,o),
(741,393,o),
(714,319,c),
(787,244,o),
(870,145,o),
(999,145,cs),
(1106,145,o),
(1147,252,o),
(1237,252,cs),
(1277,252,o),
(1314,209,o),
(1314,168,cs),
(1314,34,o),
(1129,-27,o),
(993,-27,cs),
(827,-27,o),
(718,74,o),
(628,154,c),
(560,62,o),
(456,-29,o),
(311,-29,cs),
(157,-29,o),
(47,77,o),
(47,227,cs)
);
},
{
closed = 1;
nodes = (
(465,297,o),
(410,348,o),
(338,348,cs),
(253,348,o),
(192,311,o),
(192,231,cs),
(192,163,o),
(255,133,o),
(319,133,cs),
(412,133,o),
(473,194,o),
(512,256,c)
);
}
);
width = 1336;
}
);
unicode = 163;
},
{
glyphname = currency;
layers = (
{
layerId = m001;
shapes = (
{
closed = 1;
nodes = (
(924,1108,o),
(959,1073,o),
(959,1035,cs),
(959,1016,o),
(951,998,o),
(937,983,cs),
(667,714,l),
(937,444,ls),
(951,430,o),
(959,411,o),
(959,393,cs),
(959,354,o),
(924,319,o),
(885,319,cs),
(866,319,o),
(847,327,o),
(833,341,cs),
(564,610,l),
(295,341,ls),
(280,327,o),
(262,319,o),
(243,319,cs),
(204,319,o),
(169,354,o),
(169,393,cs),
(169,411,o),
(176,430,o),
(191,444,cs),
(460,714,l),
(191,983,ls),
(176,998,o),
(169,1016,o),
(169,1035,cs),
(169,1073,o),
(204,1108,o),
(243,1108,cs),
(262,1108,o),
(280,1101,o),
(295,1086,cs),
(564,817,l),
(833,1086,ls),
(847,1101,o),
(866,1108,o),
(885,1108,cs)
);
}
);
width = 1128;
}
);
unicode = 164;
},
{
glyphname = yen;
layers = (
{
layerId = m001;
shapes = (
{
closed = 1;
nodes = (
(1763,1580,o),
(1742,1538,o),
(1691,1538,cs),
(1552,1538,l),
(1130,846,l),
(1406,846,ls),
(1447,846,o),
(1480,812,o),
(1480,771,cs),
(1480,730,o),
(1447,697,o),
(1406,697,cs),
(1055,697,l),
(1055,584,l),
(1406,584,ls),
(1447,584,o),
(1480,551,o),
(1480,510,cs),
(1480,469,o),
(1447,435,o),
(1406,435,cs),
(1055,435,l),
(1055,176,l),
(1278,176,ls),
(1329,176,o),
(1349,134,o),
(1349,84,cs),
(1349,40,o),
(1323,0,o),
(1276,0,cs),
(559,0,ls),
(512,0,o),
(485,40,o),
(485,84,cs),
(485,134,o),
(506,176,o),
(557,176,cs),
(821,176,l),
(821,435,l),
(471,435,ls),
(430,435,o),
(397,469,o),
(397,510,cs),
(397,551,o),
(430,584,o),
(471,584,cs),
(821,584,l),
(821,697,l),
(471,697,ls),
(430,697,o),
(397,730,o),
(397,771,cs),
(397,812,o),
(430,846,o),
(471,846,cs),
(757,846,l),
(346,1538,l),
(135,1538,ls),
(84,1538,o),
(63,1580,o),
(63,1630,cs),
(63,1674,o),
(90,1714,o),
(137,1714,cs),
(731,1714,ls),
(778,1714,o),
(805,1674,o),
(805,1630,cs),
(805,1580,o),
(784,1538,o),
(733,1538,cs),
(592,1538,l),
(977,891,l),
(1358,1538,l),
(1196,1538,ls),
(1145,1538,o),
(1124,1580,o),
(1124,1630,cs),
(1124,1674,o),
(1151,1714,o),
(1198,1714,cs),
(1689,1714,ls),
(1736,1714,o),
(1763,1674,o),
(1763,1630,cs)
);
}
);
width = 1824;
}
);
unicode = 165;
},
{
glyphname = Euro;
layers = (
{
layerId = m001;
shapes = (
{
closed = 1;
nodes = (
(1932,257,o),
(1684,-25,o),
(1235,-25,cs),
(817,-25,o),
(516,204,o),
(424,600,c),
(233,600,ls),
(174,600,o),
(144,637,o),
(144,674,cs),
(144,711,o),
(174,748,o),
(233,748,cs),
(400,748,l),
(397,787,o),
(395,827,o),
(395,869,cs),
(395,896,o),
(396,923,o),
(398,950,c),
(233,950,ls),
(174,950,o),
(144,988,o),
(144,1025,cs),
(144,1063,o),
(174,1100,o),
(233,1100,cs),
(420,1100,l),
(508,1484,o),
(819,1739,o),
(1254,1739,cs),
(1472,1739,o),
(1621,1661,o),
(1741,1538,c),
(1741,1642,ls),
(1741,1693,o),
(1783,1714,o),
(1833,1714,cs),
(1877,1714,o),
(1917,1687,o),
(1917,1640,cs),
(1917,1266,ls),
(1917,1219,o),
(1877,1192,o),
(1833,1192,cs),
(1788,1192,o),
(1773,1236,o),
(1749,1270,c),
(1651,1431,o),
(1505,1550,o),
(1254,1550,cs),
(938,1550,o),
(710,1371,o),
(631,1100,c),
(997,1100,ls),
(1055,1100,o),
(1084,1063,o),
(1084,1025,cs),
(1084,988,o),
(1055,950,o),
(997,950,cs),
(603,950,l),
(601,926,o),
(600,902,o),
(600,878,cs),
(600,833,o),
(603,789,o),
(608,748,c),
(997,748,ls),
(1055,748,o),
(1084,711,o),
(1084,674,cs),
(1084,637,o),
(1055,600,o),
(997,600,cs),
(639,600,l),
(724,329,o),
(942,171,o),
(1254,171,cs),
(1537,171,o),
(1705,326,o),
(1764,560,cs),
(1775,607,o),
(1817,630,o),
(1859,630,cs),
(1906,630,o),
(1952,601,o),
(1952,546,cs),
(1952,539,l)
);
}
);
width = 2197;
}
);
unicode = 8364;
},
{
glyphname = asciicircum;
layers = (
{
layerId = m001;
shapes = (
{
closed = 1;
nodes = (
(1124,602,o),
(1090,573,o),
(1054,573,cs),
(1023,573,o),
(1000,594,o),
(989,618,cs),
(690,1257,l),
(364,623,l),
(347,593,o),
(320,567,o),
(280,567,cs),
(230,567,o),
(184,606,o),
(184,657,cs),
(184,668,o),
(187,682,o),
(194,698,cs),
(546,1411,ls),
(571,1460,o),
(604,1511,o),
(661,1511,cs),
(714,1511,o),
(747,1461,o),
(767,1419,cs),
(1116,674,ls),
(1121,663,o),
(1124,651,o),
(1124,639,cs)
);
}
);
width = 1301;
}
);
unicode = 94;
},
{
glyphname = grave;
layers = (
{
layerId = m001;
shapes = (
{
closed = 1;
nodes = (
(601,1454,o),
(578,1427,o),
(552,1427,cs),
(545,1427,o),
(539,1430,o),
(534,1434,cs),
(372,1527,o),
(193,1643,o),
(36,1741,cs),
(18,1753,o),
(9,1768,o),
(9,1786,cs),
(9,1827,o),
(51,1870,o),
(93,1870,cs),
(109,1870,o),
(123,1865,o),
(134,1855,cs),
(270,1738,o),
(435,1609,o),
(585,1509,cs),
(596,1502,o),
(601,1493,o),
(601,1479,cs)
);
}
);
width = 633;
}
);
unicode = 96;
},
{
glyphname = dieresis;
layers = (
{
layerId = m001;
shapes = (
{
closed = 1;
nodes = (
(126,1432,o),
(65,1492,o),
(65,1565,cs),
(65,1638,o),
(126,1698,o),
(199,1698,cs),
(272,1698,o),
(332,1638,o),
(332,1565,cs),
(332,1492,o),
(272,1432,o),
(199,1432,cs)
);
},
{
closed = 1;
nodes = (
(617,1432,o),
(557,1492,o),
(557,1565,cs),
(557,1638,o),
(617,1698,o),
(690,1698,cs),
(763,1698,o),
(823,1638,o),
(823,1565,cs),
(823,1492,o),
(763,1432,o),
(690,1432,cs)
);
}
);
width = 886;
}
);
unicode = 168;
},
{
glyphname = macron;
layers = (
{
layerId = m001;
shapes = (
{
closed = 1;
nodes = (
(252,1481.8,ls),
(197,1481.8,o),
(170,1521.8,o),
(170,1560.8,cs),
(170,1599.8,o),
(196,1637.8,o),
(246,1637.8,cs),
(784,1637.8,ls),
(832,1637.8,o),
(856,1599.8,o),
(856,1560.8,cs),
(856,1521.8,o),
(831,1481.8,o),
(782,1481.8,cs)
);
}
);
width = 958;
}
);
unicode = 175;
},
{
glyphname = acute;
layers = (
{
layerId = m001;
shapes = (
{
closed = 1;
nodes = (
(559,1870,o),
(601,1827,o),
(601,1786,cs),
(601,1768,o),
(593,1753,o),
(575,1741,cs),
(417,1642,o),
(240,1527,o),
(77,1434,cs),
(70,1430,o),
(63,1427,o),
(58,1427,cs),
(32,1427,o),
(9,1454,o),
(9,1479,cs),
(9,1493,o),
(15,1502,o),
(26,1509,cs),
(176,1609,o),
(340,1738,o),
(476,1855,cs),
(487,1865,o),
(501,1870,o),
(517,1870,cs)
);
}
);
width = 633;
}
);
unicode = 180;
},
{
glyphname = cedilla;
layers = (
{
layerId = m001;
shapes = (
{
closed = 1;
nodes = (
(204,-501,l),
(196,-619,o),
(127,-675,o),
(62,-675,cs),
(4,-675,o),
(-50,-629,o),
(-50,-538,cs),
(-50,-472,o),
(106,-49,o),
(136,0,c),
(264,0,l)
);
}
);
width = 354;
}
);
unicode = 184;
},
{
glyphname = breve;
layers = (
{
layerId = m001;
shapes = (
{
closed = 1;
nodes = (
(134,1647,o),
(215,1587,o),
(296,1587,cs),
(377,1587,o),
(458,1647,o),
(504,1767,cs),
(510,1783,o),
(524,1788,o),
(537,1788,cs),
(563,1788,o),
(592,1763,o),
(592,1741,cs),
(592,1530,o),
(444,1424,o),
(296,1424,cs),
(148,1424,o),
(0,1530,o),
(0,1741,cs),
(0,1763,o),
(29,1788,o),
(55,1788,cs),
(68,1788,o),
(82,1783,o),
(88,1767,cs)
);
}
);
width = 654;
}
);
unicode = 728;
},
{
glyphname = dotaccent;
layers = (
{
layerId = m001;
shapes = (
{
closed = 1;
nodes = (
(306,319,o),
(246,240,o),
(157,240,cs),
(60,240,o),
(7,319,o),
(7,396,cs),
(7,469,o),
(55,541,o),
(159,541,cs),
(251,541,o),
(306,470,o),
(306,396,cs)
);
}
);
width = 322;
}
);
unicode = 729;
},
{
glyphname = ring;
layers = (
{
layerId = m001;
shapes = (
{
closed = 1;
nodes = (
(323,1975.8,o),
(405,1851.8,o),
(405,1727.8,cs),
(405,1603.8,o),
(319,1477.8,o),
(153,1477.8,cs),
(-13,1477.8,o),
(-97,1599.8,o),
(-97,1722.8,cs),
(-97,1848.8,o),
(-9,1975.8,o),
(158,1975.8,cs)
);
},
{
closed = 1;
nodes = (
(255,1572.8,o),
(299,1642.8,o),
(299,1724.8,cs),
(299,1806.8,o),
(252,1878.8,o),
(157,1878.8,cs),
(61,1878.8,o),
(15,1806.8,o),
(15,1724.8,cs),
(15,1643.8,o),
(69,1572.8,o),
(161,1572.8,cs)
);
}
);
width = 352;
}
);
unicode = 730;
},
{
glyphname = ogonek;
layers = (
{
layerId = m001;
shapes = (
{
closed = 1;
nodes = (
(19,-516,o),
(-51,-473,o),
(-51,-358,cs),
(-51,-286,o),
(15,-111,o),
(185,30,c),
(264,30,ls),
(273,30,o),
(153,-162,o),
(153,-257,cs),
(153,-368,o),
(290,-343,o),
(290,-403,cs),
(290,-454,o),
(205,-516,o),
(111,-516,cs)
);
}
);
width = 354;
}
);
unicode = 731;
},
{
glyphname = tilde;
layers = (
{
layerId = m001;
shapes = (
{
closed = 1;
nodes = (
(141,1694.8,o),
(225,1804.8,o),
(331,1804.8,cs),
(486,1804.8,o),
(602,1662.8,o),
(658,1662.8,cs),
(747,1662.8,o),
(750,1804.8,o),
(799,1804.8,cs),
(838,1804.8,o),
(872,1786.8,o),
(872,1750.8,cs),
(872,1595.8,o),
(772,1486.8,o),
(646,1486.8,cs),
(530,1486.8,o),
(417,1627.8,o),
(340,1627.8,cs),
(255,1627.8,o),
(255,1486.8,o),
(214,1486.8,cs),
(175,1486.8,o),
(141,1503.8,o),
(141,1539.8,cs)
);
}
);
width = 1143;
}
);
unicode = 732;
},
{
glyphname = hungarumlaut;
layers = (
{
layerId = m001;
shapes = (
{
closed = 1;
nodes = (
(559,1870,o),
(601,1827,o),
(601,1786,cs),
(601,1768,o),
(593,1753,o),
(575,1741,cs),
(417,1642,o),
(240,1527,o),
(77,1434,cs),
(70,1430,o),
(63,1427,o),
(58,1427,cs),
(32,1427,o),
(9,1454,o),
(9,1479,cs),
(9,1493,o),
(15,1502,o),
(26,1509,cs),
(176,1609,o),
(340,1738,o),
(476,1855,cs),
(487,1865,o),
(501,1870,o),
(517,1870,cs)
);
},
{
closed = 1;
nodes = (
(934,1870,o),
(976,1827,o),
(976,1786,cs),
(976,1768,o),
(967,1753,o),
(949,1741,cs),
(791,1642,o),
(615,1527,o),
(452,1434,cs),
(445,1430,o),
(438,1427,o),
(433,1427,cs),
(407,1427,o),
(384,1454,o),
(384,1479,cs),
(384,1493,o),
(390,1502,o),
(401,1509,cs),
(551,1609,o),
(715,1738,o),
(851,1855,cs),
(862,1865,o),
(876,1870,o),
(892,1870,cs)
);
}
);
width = 862;
}
);
unicode = 733;
},
{
glyphname = brokenbar;
layers = (
{
layerId = m001;
shapes = (
{
closed = 1;
nodes = (
(451,714,o),
(483,688,o),
(488,642,c),
(488,-98,ls),
(488,-140,o),
(440,-164,o),
(400,-164,cs),
(348,-164,o),
(312,-142,o),
(312,-82,cs),
(312,642,ls),
(312,690,o),
(356,714,o),
(402,714,cs)
);
},
{
closed = 1;
nodes = (
(451,1891,o),
(483,1865,o),
(488,1819,c),
(488,1079,ls),
(488,1037,o),
(440,1013,o),
(400,1013,cs),
(348,1013,o),
(312,1035,o),
(312,1095,cs),
(312,1819,ls),
(312,1867,o),
(356,1891,o),
(402,1891,cs)
);
}
);
width = 778;
}
);
unicode = 166;
},
{
glyphname = section;
layers = (
{
layerId = m001;
shapes = (
{
closed = 1;
nodes = (
(100,1794,o),
(253,1937,o),
(460,1937,cs),
(638,1937,o),
(847,1833,o),
(847,1661,cs),
(847,1616,o),
(816,1587,o),
(774,1587,cs),
(733,1587,o),
(702,1612,o),
(690,1645,cs),
(655,1738,o),
(580,1802,o),
(468,1802,cs),
(359,1802,o),
(268,1729,o),
(268,1622,cs),
(268,1569,o),
(282,1518,o),
(309,1470,cs),
(403,1306,o),
(561,1184,o),
(677,1039,cs),
(748,950,o),
(821,842,o),
(821,694,cs),
(821,553,o),
(762,419,o),
(655,366,c),
(715,282,o),
(784,167,o),
(784,35,cs),
(784,-168,o),
(632,-309,o),
(423,-309,cs),
(245,-309,o),
(36,-205,o),
(36,-33,cs),
(36,12,o),
(68,41,o),
(110,41,cs),
(151,41,o),
(182,17,o),
(194,-16,cs),
(229,-109,o),
(303,-174,o),
(415,-174,cs),
(524,-174,o),
(616,-101,o),
(616,6,cs),
(616,59,o),
(602,110,o),
(575,158,cs),
(481,322,o),
(322,444,o),
(206,589,cs),
(135,678,o),
(63,786,o),
(63,934,cs),
(63,1075,o),
(121,1209,o),
(229,1262,c),
(169,1347,o),
(100,1459,o),
(100,1593,cs)
);
},
{
closed = 1;
nodes = (
(249,1140,o),
(225,1067,o),
(225,1006,cs),
(225,960,o),
(239,911,o),
(266,862,cs),
(350,710,o),
(479,587,o),
(590,451,c),
(635,488,o),
(659,561,o),
(659,623,cs),
(659,669,o),
(645,717,o),
(618,766,cs),
(534,918,o),
(405,1040,o),
(294,1177,c)
);
}
);
width = 877;
}
);
unicode = 167;
},
{
glyphname = copyright;
layers = (
{
layerId = m001;
shapes = (
{
closed = 1;
nodes = (
(1961,319,o),
(1593,-25,o),
(1064,-25,cs),
(535,-25,o),
(167,319,o),
(167,850,cs),
(167,1382,o),
(534,1739,o),
(1064,1739,cs),
(1594,1739,o),
(1961,1382,o),
(1961,850,cs)
);
},
{
closed = 1;
nodes = (
(1236,469,o),
(1359,562,o),
(1359,731,cs),
(1359,763,o),
(1397,774,o),
(1432,774,cs),
(1461,774,o),
(1504,759,o),
(1504,729,cs),
(1504,508,ls),
(1504,487,o),
(1503,480,o),
(1486,473,c),
(1387,387,o),
(1246,319,o),
(1070,319,cs),
(750,319,o),
(537,537,o),
(537,858,cs),
(537,1181,o),
(750,1405,o),
(1070,1405,cs),
(1185,1405,o),
(1271,1367,o),
(1338,1307,c),
(1338,1348,ls),
(1338,1380,o),
(1378,1391,o),
(1412,1391,cs),
(1440,1391,o),
(1484,1376,o),
(1484,1348,cs),
(1484,1083,ls),
(1484,1053,o),
(1441,1040,o),
(1412,1040,cs),
(1376,1040,o),
(1361,1079,o),
(1342,1106,c),
(1284,1195,o),
(1199,1262,o),
(1070,1262,cs),
(849,1262,o),
(726,1080,o),
(726,858,cs),
(726,639,o),
(853,469,o),
(1070,469,cs)
);
},
{
closed = 1;
nodes = (
(333,417,o),
(619,123,o),
(1064,123,cs),
(1509,123,o),
(1795,417,o),
(1795,854,cs),
(1795,1289,o),
(1507,1591,o),
(1064,1591,cs),
(621,1591,o),
(333,1289,o),
(333,854,cs)
);
}
);
width = 2128;
}
);
unicode = 169;
},
{
glyphname = registered;
layers = (
{
layerId = m001;
shapes = (
{
closed = 1;
nodes = (
(1122,986,o),
(1304,988,o),
(1304,1132,cs),
(1304,1307,o),
(1113,1307,o),
(933,1307,cs),
(855,1307,l),
(855,986,l),
(918,986,ls)
);
},
{
closed = 1;
nodes = (
(1464,970,o),
(1336,912,o),
(1160,886,c),
(1408,478,l),
(1496,478,ls),
(1550,478,o),
(1569,462,o),
(1569,416,cs),
(1569,366,o),
(1540,359,o),
(1498,359,cs),
(1497,359,l),
(1186,360,ls),
(1155,360,o),
(1137,387,o),
(1137,416,cs),
(1137,450,o),
(1151,478,o),
(1185,478,cs),
(1248,478,l),
(1027,867,l),
(855,867,l),
(855,478,l),
(972,478,ls),
(1006,478,o),
(1020,450,o),
(1020,416,cs),
(1020,387,o),
(1001,360,o),
(970,360,cs),
(610,360,ls),
(579,360,o),
(560,387,o),
(560,416,cs),
(560,450,o),
(574,478,o),
(608,478,cs),
(698,478,l),
(698,1307,l),
(636,1307,ls),
(602,1307,o),
(588,1336,o),
(588,1369,cs),
(588,1398,o),
(606,1425,o),
(637,1425,cs),
(954,1425,ls),
(1218,1425,o),
(1464,1379,o),
(1464,1135,cs)
);
},
{
closed = 1;
nodes = (
(337,442,o),
(643,106,o),
(1066,106,cs),
(1489,106,o),
(1795,442,o),
(1795,860,cs),
(1795,1278,o),
(1489,1614,o),
(1066,1614,cs),
(643,1614,o),
(337,1278,o),
(337,860,cs)
);
},
{
closed = 1;
nodes = (
(167,1358,o),
(558,1757,o),
(1066,1757,cs),
(1574,1757,o),
(1965,1358,o),
(1965,860,cs),
(1965,362,o),
(1574,-37,o),
(1066,-37,cs),
(558,-37,o),
(167,362,o),
(167,860,cs)
);
}
);
width = 2133;
}
);
unicode = 174;
},
{
glyphname = degree;
layers = (
{
layerId = m001;
shapes = (
{
closed = 1;
nodes = (
(845,1642,o),
(965,1461,o),
(965,1278,cs),
(965,1097,o),
(839,912,o),
(596,912,cs),
(353,912,o),
(230,1091,o),
(230,1271,cs),
(230,1456,o),
(359,1642,o),
(603,1642,cs)
);
},
{
closed = 1;
nodes = (
(745,1052,o),
(810,1154,o),
(810,1274,cs),
(810,1394,o),
(742,1500,o),
(602,1500,cs),
(462,1500,o),
(394,1394,o),
(394,1274,cs),
(394,1155,o),
(473,1052,o),
(608,1052,cs)
);
}
);
width = 1195;
}
);
unicode = 176;
},
{
glyphname = paragraph;
layers = (
{
layerId = m001;
shapes = (
{
closed = 1;
nodes = (
(1154,176,l),
(1154,1538,l),
(995,1538,l),
(995,176,l)
);
},
{
closed = 1;
nodes = (
(1371,176,l),
(1635,176,ls),
(1686,176,o),
(1707,134,o),
(1707,84,cs),
(1707,40,o),
(1680,0,o),
(1633,0,cs),
(458,0,ls),
(411,0,o),
(384,40,o),
(384,84,cs),
(384,134,o),
(405,176,o),
(456,176,cs),
(761,176,l),
(761,725,l),
(302,725,o),
(80,976,o),
(80,1232,cs),
(80,1470,o),
(295,1714,o),
(708,1714,cs),
(1367,1714,l)
);
}
);
width = 1780;
}
);
unicode = 182;
},
{
glyphname = trademark;
layers = (
{
layerId = m001;
shapes = (
{
closed = 1;
nodes = (
(2146,841,o),
(2158,870,o),
(2189,870,cs),
(2300,870,l),
(2300,1428,l),
(2009,860,l),
(2002,836,o),
(1981,816,o),
(1952,816,cs),
(1928,816,o),
(1906,833,o),
(1898,853,c),
(1553,1438,l),
(1553,870,l),
(1676,870,ls),
(1707,870,o),
(1720,841,o),
(1720,808,cs),
(1720,777,o),
(1704,750,o),
(1675,750,cs),
(1246,750,ls),
(1218,750,o),
(1202,777,o),
(1202,808,cs),
(1202,841,o),
(1214,870,o),
(1245,870,cs),
(1405,870,l),
(1405,1592,l),
(1276,1592,ls),
(1245,1592,o),
(1232,1620,o),
(1232,1655,cs),
(1232,1685,o),
(1248,1712,o),
(1277,1712,cs),
(1519,1712,ls),
(1541,1712,o),
(1551,1695,o),
(1559,1677,c),
(1952,1054,l),
(2294,1682,ls),
(2302,1698,o),
(2314,1712,o),
(2335,1712,cs),
(2572,1712,ls),
(2601,1712,o),
(2617,1685,o),
(2617,1655,cs),
(2617,1620,o),
(2604,1592,o),
(2573,1592,cs),
(2448,1592,l),
(2448,870,l),
(2606,870,ls),
(2637,870,o),
(2649,841,o),
(2649,808,cs),
(2649,777,o),
(2634,750,o),
(2605,750,cs),
(2190,750,ls),
(2162,750,o),
(2146,777,o),
(2146,808,cs)
);
},
{
closed = 1;
nodes = (
(227,1328,o),
(193,1350,o),
(193,1382,c),
(202,1659,ls),
(203,1695,o),
(212,1712,o),
(239,1712,cs),
(1096,1712,ls),
(1123,1712,o),
(1133,1693,o),
(1134,1659,cs),
(1143,1382,l),
(1143,1350,o),
(1108,1328,o),
(1082,1328,cs),
(1053,1328,o),
(1035,1340,o),
(1032,1373,cs),
(1013,1570,l),
(749,1570,l),
(749,870,l),
(910,870,ls),
(941,870,o),
(953,841,o),
(953,808,cs),
(953,777,o),
(938,750,o),
(909,750,cs),
(415,750,ls),
(386,750,o),
(370,777,o),
(370,808,cs),
(370,841,o),
(383,870,o),
(414,870,cs),
(574,870,l),
(574,1570,l),
(322,1570,l),
(304,1373,ls),
(301,1339,o),
(283,1328,o),
(255,1328,cs)
);
}
);
width = 2803;
}
);
unicode = 8482;
},
{
glyphname = uni00AD;
layers = (
{
layerId = m001;
shapes = (
{
closed = 1;
nodes = (
(174,770,o),
(220,817,o),
(276,817,cs),
(1018,817,ls),
(1074,817,o),
(1120,770,o),
(1120,715,cs),
(1120,658,o),
(1075,612,o),
(1018,612,cs),
(276,612,ls),
(219,612,o),
(174,658,o),
(174,715,cs)
);
}
);
width = 1293;
}
);
unicode = 173;
},
{
glyphname = ck;
layers = (
{
layerId = m001;
shapes = (
{
closed = 1;
nodes = (
(1581,1739,o),
(1606,1720,o),
(1606,1690,cs),
(1606,649,l),
(1761,754,o),
(1918,858,o),
(2069,957,c),
(1983,957,ls),
(1931,957,o),
(1907,997,o),
(1907,1047,cs),
(1907,1098,o),
(1933,1133,o),
(1989,1133,cs),
(2452,1133,ls),
(2499,1133,o),
(2526,1094,o),
(2526,1050,cs),
(2526,1000,o),
(2505,957,o),
(2454,957,cs),
(2343,957,ls),
(2290,957,o),
(2254,919,o),
(2218,894,cs),
(1938,692,l),
(2218,291,ls),
(2289,190,o),
(2342,188,o),
(2470,188,cs),
(2485,188,ls),
(2574,188,o),
(2601,173,o),
(2601,96,cs),
(2601,17,o),
(2552,0,o),
(2462,0,cs),
(2026,0,ls),
(1975,0,o),
(1950,40,o),
(1950,90,cs),
(1950,141,o),
(1975,176,o),
(2032,176,cs),
(2091,176,l),
(1790,608,l),
(1606,496,l),
(1606,176,l),
(1758,176,ls),
(1809,176,o),
(1829,134,o),
(1829,84,cs),
(1829,40,o),
(1803,0,o),
(1756,0,cs),
(1252,0,ls),
(1196,0,o),
(1170,35,o),
(1170,86,cs),
(1170,135,o),
(1194,176,o),
(1246,176,cs),
(1401,176,l),
(1401,1524,l),
(1166,1462,l),
(1160,1462,o),
(1161,1460,o),
(1155,1460,cs),
(1113,1460,o),
(1076,1505,o),
(1076,1546,cs),
(1076,1603,o),
(1109,1613,o),
(1153,1626,cs),
(1538,1737,ls),
(1541,1738,o),
(1546,1739,o),
(1553,1739,cs)
);
},
{
closed = 1;
nodes = (
(966,1188,o),
(1193,1128,o),
(1193,878,cs),
(1193,799,o),
(1164,738,o),
(1096,738,cs),
(996,738,o),
(986,886,o),
(960,993,c),
(895,1010,o),
(831,1018,o),
(770,1018,cs),
(512,1018,o),
(317,860,o),
(317,596,cs),
(317,310,o),
(516,174,o),
(735,174,cs),
(849,174,o),
(968,217,o),
(1063,302,cs),
(1082,318,o),
(1103,328,o),
(1126,328,cs),
(1181,328,o),
(1222,299,o),
(1222,250,cs),
(1222,78,o),
(922,-25,o),
(747,-25,cs),
(363,-25,o),
(95,207,o),
(95,596,cs),
(95,977,o),
(402,1188,o),
(763,1188,cs)
);
}
);
width = 2636;
}
);
},
{
glyphname = ct;
layers = (
{
layerId = m001;
shapes = (
{
closed = 1;
nodes = (
(1901,134,o),
(1905,242,o),
(1981,242,cs),
(2023,242,o),
(2053,208,o),
(2053,166,cs),
(2053,47,o),
(1873,-27,o),
(1738,-27,cs),
(1581,-27,o),
(1445,100,o),
(1445,248,cs),
(1445,956,l),
(1295,956,ls),
(1239,956,o),
(1213,991,o),
(1213,1042,cs),
(1213,1091,o),
(1237,1133,o),
(1289,1133,cs),
(1445,1133,l),
(1445,1255,o),
(1448,1528,o),
(1563,1528,cs),
(1596,1528,o),
(1619,1520,o),
(1643,1503,c),
(1643,1483,ls),
(1643,1465,o),
(1645,1442,o),
(1645,1424,cs),
(1645,1133,l),
(1907,1133,ls),
(1958,1133,o),
(1979,1090,o),
(1979,1040,cs),
(1979,996,o),
(1952,956,o),
(1905,956,cs),
(1645,956,l),
(1645,279,ls),
(1645,174,o),
(1698,134,o),
(1772,134,cs)
);
},
{
closed = 1;
nodes = (
(965,1188,o),
(1192,1128,o),
(1192,878,cs),
(1192,799,o),
(1163,738,o),
(1095,738,cs),
(995,738,o),
(985,886,o),
(959,993,c),
(894,1010,o),
(830,1018,o),
(769,1018,cs),
(511,1018,o),
(316,860,o),
(316,596,cs),
(316,310,o),
(515,174,o),
(734,174,cs),
(848,174,o),
(967,217,o),
(1062,302,cs),
(1081,318,o),
(1102,328,o),
(1125,328,cs),
(1180,328,o),
(1221,299,o),
(1221,250,cs),
(1221,78,o),
(921,-25,o),
(746,-25,cs),
(362,-25,o),
(94,207,o),
(94,596,cs),
(94,977,o),
(401,1188,o),
(762,1188,cs)
);
}
);
width = 2109;
}
);
},
{
glyphname = foundryicon;
layers = (
{
layerId = m001;
shapes = (
{
closed = 1;
nodes = (
(399,202,o),
(290,115,o),
(282,115,cs),
(259,115,o),
(247,124,o),
(247,141,cs),
(247,156,o),
(257,171,o),
(262,186,cs),
(380,542,l),
(176,703,o),
(70,786,o),
(55,799,cs),
(41,811,o),
(34,825,o),
(34,840,cs),
(34,860,o),
(47,870,o),
(73,870,cs),
(74,870,o),
(212,860,o),
(485,840,c),
(554,1007,o),
(594,1105,o),
(605,1134,cs),
(626,1194,o),
(646,1235,o),
(682,1235,cs),
(701,1235,o),
(731,1204,o),
(731,1188,c),
(794,848,l),
(1187,848,ls),
(1223,848,o),
(1241,834,o),
(1241,807,cs),
(1241,802,o),
(1234,795,o),
(1221,786,cs),
(1208,777,o),
(1100,689,o),
(897,522,c),
(961,259,o),
(991,122,o),
(991,106,cs),
(991,86,o),
(978,72,o),
(958,72,cs),
(947,72,o),
(830,173,o),
(608,375,c)
);
}
);
width = 1275;
}
);
},
{
glyphname = st;
layers = (
{
layerId = m001;
shapes = (
{
closed = 1;
nodes = (
(1821,134,o),
(1825,242,o),
(1901,242,cs),
(1943,242,o),
(1973,208,o),
(1973,166,cs),
(1973,47,o),
(1793,-27,o),
(1658,-27,cs),
(1501,-27,o),
(1365,100,o),
(1365,248,cs),
(1365,956,l),
(1215,956,ls),
(1159,956,o),
(1133,991,o),
(1133,1042,cs),
(1133,1091,o),
(1157,1133,o),
(1209,1133,cs),
(1365,1133,l),
(1365,1255,o),
(1368,1528,o),
(1483,1528,cs),
(1516,1528,o),
(1539,1520,o),
(1563,1503,c),
(1563,1483,ls),
(1563,1465,o),
(1565,1442,o),
(1565,1424,cs),
(1565,1133,l),
(1827,1133,ls),
(1878,1133,o),
(1899,1090,o),
(1899,1040,cs),
(1899,996,o),
(1872,956,o),
(1825,956,cs),
(1565,956,l),
(1565,279,ls),
(1565,174,o),
(1618,134,o),
(1692,134,cs)
);
},
{
closed = 1;
nodes = (
(167,1107,o),
(379,1188,o),
(590,1188,cs),
(727,1188,o),
(880,1126,o),
(929,1037,c),
(930,1122,ls),
(930,1163,o),
(964,1190,o),
(1005,1190,cs),
(1064,1190,o),
(1093,1163,o),
(1093,1112,cs),
(1089,823,l),
(1084,778,o),
(1053,754,o),
(1007,754,cs),
(963,754,o),
(955,782,o),
(942,831,c),
(897,972,o),
(731,1048,o),
(588,1048,cs),
(465,1048,o),
(358,1001,o),
(358,903,cs),
(358,818,o),
(409,778,o),
(532,747,c),
(788,663,ls),
(968,603,o),
(1131,542,o),
(1131,316,cs),
(1131,93,o),
(983,-27,o),
(708,-27,cs),
(564,-27,o),
(364,21,o),
(288,105,c),
(288,16,o),
(252,0,o),
(207,0,cs),
(156,0,o),
(118,20,o),
(118,74,cs),
(118,412,l),
(120,453,o),
(155,475,o),
(194,475,cs),
(253,475,o),
(270,447,o),
(282,395,cs),
(323,213,o),
(482,123,o),
(697,123,cs),
(827,123,o),
(936,169,o),
(936,282,cs),
(936,395,o),
(888,432,o),
(751,474,cs),
(479,559,ls),
(309,613,o),
(167,674,o),
(167,848,cs)
);
}
);
width = 2031;
}
);
},
{
glyphname = uniFB00;
layers = (
{
layerId = m001;
shapes = (
{
closed = 1;
nodes = (
(878,1411,o),
(836,1435,o),
(836,1487,cs),
(836,1556,l),
(610,1536,o),
(564,1439,o),
(564,1191,c),
(566,1122,l),
(1096,1122,l),
(1096,1227,ls),
(1096,1580,o),
(1305,1739,o),
(1664,1739,cs),
(1708,1739,o),
(1748,1712,o),
(1748,1665,cs),
(1748,1493,ls),
(1748,1437,o),
(1713,1411,o),
(1662,1411,cs),
(1613,1411,o),
(1571,1435,o),
(1571,1487,cs),
(1571,1556,l),
(1345,1536,o),
(1299,1439,o),
(1299,1191,c),
(1301,1122,l),
(1520,1122,ls),
(1571,1122,o),
(1592,1080,o),
(1592,1030,cs),
(1592,986,o),
(1565,946,o),
(1518,946,cs),
(1299,946,l),
(1301,176,l),
(1553,176,ls),
(1604,176,o),
(1625,134,o),
(1625,84,cs),
(1625,40,o),
(1598,0,o),
(1551,0,cs),
(981,0,ls),
(925,0,o),
(899,35,o),
(899,86,cs),
(899,135,o),
(923,176,o),
(975,176,cs),
(1096,176,l),
(1096,946,l),
(564,946,l),
(566,176,l),
(718,176,ls),
(769,176,o),
(790,134,o),
(790,84,cs),
(790,40,o),
(763,0,o),
(716,0,cs),
(146,0,ls),
(90,0,o),
(64,35,o),
(64,86,cs),
(64,135,o),
(88,176,o),
(140,176,cs),
(361,176,l),
(361,946,l),
(183,946,ls),
(127,946,o),
(101,981,o),
(101,1032,cs),
(101,1081,o),
(125,1122,o),
(177,1122,cs),
(361,1122,l),
(361,1227,ls),
(361,1580,o),
(570,1739,o),
(929,1739,cs),
(973,1739,o),
(1013,1712,o),
(1013,1665,cs),
(1013,1493,ls),
(1013,1437,o),
(978,1411,o),
(927,1411,cs)
);
}
);
width = 1815;
}
);
unicode = 64256;
},
{
glyphname = uniFB03;
layers = (
{
layerId = m001;
shapes = (
{
closed = 1;
nodes = (
(2315,1427,o),
(2247,1495,o),
(2247,1579,cs),
(2247,1663,o),
(2315,1731,o),
(2399,1731,cs),
(2483,1731,o),
(2550,1663,o),
(2550,1579,cs),
(2550,1495,o),
(2483,1427,o),
(2399,1427,cs)
);
},
{
closed = 1;
nodes = (
(2091,135,o),
(2115,176,o),
(2167,176,cs),
(2304,176,l),
(2304,946,l),
(1524,946,l),
(1526,176,l),
(1778,176,ls),
(1829,176,o),
(1850,134,o),
(1850,84,cs),
(1850,40,o),
(1823,0,o),
(1776,0,cs),
(1106,0,ls),
(1050,0,o),
(1024,35,o),
(1024,86,cs),
(1024,135,o),
(1048,176,o),
(1100,176,cs),
(1321,176,l),
(1321,946,l),
(564,946,l),
(564,176,l),
(817,176,ls),
(868,176,o),
(889,134,o),
(889,84,cs),
(889,40,o),
(862,0,o),
(815,0,cs),
(145,0,ls),
(89,0,o),
(63,35,o),
(63,86,cs),
(63,135,o),
(87,176,o),
(139,176,cs),
(360,176,l),
(360,946,l),
(182,946,ls),
(126,946,o),
(100,981,o),
(100,1032,cs),
(100,1081,o),
(124,1122,o),
(176,1122,cs),
(360,1122,l),
(360,1227,ls),
(360,1580,o),
(569,1739,o),
(928,1739,cs),
(972,1739,o),
(1012,1712,o),
(1012,1665,cs),
(1012,1493,ls),
(1012,1437,o),
(977,1411,o),
(926,1411,cs),
(877,1411,o),
(835,1435,o),
(835,1487,cs),
(835,1556,l),
(609,1536,o),
(564,1439,o),
(564,1191,cs),
(564,1122,l),
(1321,1122,l),
(1321,1227,ls),
(1321,1580,o),
(1530,1739,o),
(1889,1739,cs),
(1933,1739,o),
(1973,1712,o),
(1973,1665,cs),
(1973,1493,ls),
(1973,1437,o),
(1938,1411,o),
(1887,1411,cs),
(1838,1411,o),
(1796,1435,o),
(1796,1487,cs),
(1796,1556,l),
(1624,1541,o),
(1522,1475,o),
(1522,1284,c),
(1526,1122,l),
(2458,1122,ls),
(2489,1122,o),
(2509,1105,o),
(2509,1075,cs),
(2509,176,l),
(2663,176,ls),
(2714,176,o),
(2734,134,o),
(2734,84,cs),
(2734,40,o),
(2708,0,o),
(2661,0,cs),
(2173,0,ls),
(2117,0,o),
(2091,35,o),
(2091,86,cs)
);
}
);
width = 2783;
}
);
unicode = 64259;
},
{
glyphname = uniFB04;
layers = (
{
layerId = m001;
shapes = (
{
closed = 1;
nodes = (
(2267,1739,o),
(2291,1720,o),
(2291,1690,cs),
(2291,176,l),
(2483,176,ls),
(2534,176,o),
(2555,134,o),
(2555,84,cs),
(2555,40,o),
(2528,0,o),
(2481,0,cs),
(1914,0,ls),
(1858,0,o),
(1832,35,o),
(1832,86,cs),
(1832,135,o),
(1855,176,o),
(1907,176,cs),
(2087,176,l),
(2087,1556,l),
(1643,1556,ls),
(1435,1556,o),
(1393,1432,o),
(1393,1191,cs),
(1393,1122,l),
(1663,1122,ls),
(1714,1122,o),
(1735,1080,o),
(1735,1030,cs),
(1735,986,o),
(1708,946,o),
(1661,946,cs),
(1391,946,l),
(1391,176,l),
(1609,176,ls),
(1660,176,o),
(1681,134,o),
(1681,84,cs),
(1681,40,o),
(1654,0,o),
(1607,0,cs),
(1063,0,ls),
(1007,0,o),
(981,35,o),
(981,86,cs),
(981,135,o),
(1005,176,o),
(1057,176,cs),
(1188,176,l),
(1188,946,l),
(564,946,l),
(564,176,l),
(717,176,ls),
(768,176,o),
(789,134,o),
(789,84,cs),
(789,40,o),
(762,0,o),
(715,0,cs),
(145,0,ls),
(89,0,o),
(63,35,o),
(63,86,cs),
(63,135,o),
(87,176,o),
(139,176,cs),
(360,176,l),
(360,946,l),
(182,946,ls),
(126,946,o),
(100,981,o),
(100,1032,cs),
(100,1081,o),
(124,1122,o),
(176,1122,cs),
(360,1122,l),
(360,1227,ls),
(360,1580,o),
(591,1739,o),
(987,1739,cs),
(1031,1739,o),
(1071,1712,o),
(1071,1665,cs),
(1071,1493,ls),
(1071,1437,o),
(1036,1411,o),
(985,1411,cs),
(936,1411,o),
(894,1435,o),
(894,1487,cs),
(894,1556,l),
(619,1536,o),
(564,1439,o),
(564,1191,cs),
(564,1122,l),
(1188,1122,l),
(1188,1227,ls),
(1188,1580,o),
(1397,1739,o),
(1756,1739,cs),
(2238,1739,ls)
);
}
);
width = 2605;
}
);
unicode = 64260;
},
{
glyphname = uni00B5;
layers = (
{
layerId = m001;
shapes = (
{
closed = 1;
nodes = (
(343,-502,o),
(289,-454,o),
(289,-375,cs),
(289,979,l),
(146,944,ls),
(143,943,o),
(139,942,o),
(132,942,cs),
(92,942,o),
(50,981,o),
(50,1022,cs),
(50,1065,o),
(69,1096,o),
(107,1106,cs),
(427,1186,ls),
(431,1187,o),
(436,1188,o),
(443,1188,cs),
(474,1188,o),
(494,1171,o),
(494,1139,cs),
(494,401,ls),
(494,254,o),
(561,145,o),
(703,145,cs),
(875,145,o),
(1026,236,o),
(1082,354,c),
(1082,979,l),
(939,944,ls),
(936,943,o),
(931,942,o),
(924,942,cs),
(884,942,o),
(842,981,o),
(842,1022,cs),
(842,1065,o),
(862,1096,o),
(900,1106,cs),
(1219,1186,ls),
(1223,1187,o),
(1229,1188,o),
(1236,1188,cs),
(1267,1188,o),
(1287,1171,o),
(1287,1139,cs),
(1287,190,l),
(1438,190,ls),
(1483,190,o),
(1508,154,o),
(1508,109,cs),
(1508,66,o),
(1489,35,o),
(1451,25,c),
(1178,-4,l),
(1139,-4,o),
(1117,18,o),
(1107,84,cs),
(1092,182,l),
(1014,67,o),
(840,-25,o),
(666,-25,cs),
(584,-25,o),
(494,25,o),
(447,100,c),
(463,-44,o),
(486,-227,o),
(486,-371,cs),
(486,-463,o),
(442,-502,o),
(395,-502,cs)
);
}
